/* XPM */
static char *result[] = {
/* columns rows colors chars-per-pixel */
"64 64 79 1 ",
"  c #3B5DC9",
". c #3C63CD",
"X c #3F69CF",
"o c #3C67D0",
"O c #3C6BD2",
"+ c #3D72D6",
"@ c #3D76D9",
"# c #3E7BDC",
"$ c #416BCE",
"% c #406FD2",
"& c #4473D1",
"* c #457BD4",
"= c #487FD4",
"- c #417DDA",
"; c #3E81DF",
": c #3E85E1",
"> c #3F8AE5",
", c #3F8FE8",
"< c #3F92EA",
"1 c #4981D5",
"2 c #4383DC",
"3 c #4987DA",
"4 c #468BDE",
"5 c #4D8DDA",
"6 c #4F92DB",
"7 c #5195DB",
"8 c #539CDE",
"9 c #56A1DF",
"0 c #4186E0",
"q c #438CE3",
"w c #4492E6",
"e c #4994E3",
"r c #4B9BE5",
"t c #4095EC",
"y c #419AEE",
"u c #489CE8",
"i c #519EE0",
"p c #409DF1",
"a c #4CA0E7",
"s c #47A2EE",
"d c #48A3EE",
"f c #4CABEE",
"g c #52A4E5",
"h c #54A9E5",
"j c #59ACE2",
"k c #52AEEB",
"l c #4EB0EF",
"z c #5CB4E6",
"x c #5FB9E7",
"c c #53B3ED",
"v c #5AB5E9",
"b c #5CBBEB",
"n c #41A4F5",
"m c #48A6F0",
"M c #46A9F4",
"N c #4AADF3",
"B c #4EB8F6",
"V c #51B6F2",
"C c #52BBF4",
"Z c #60BCE7",
"A c #61BEE9",
"S c #5CC0EE",
"D c #57C3F5",
"F c #5BC4F2",
"G c #5CCBF5",
"H c #5FD2F7",
"J c #63C5EB",
"K c #65CAEC",
"L c #68D1EE",
"P c #60C7F0",
"I c #63CEF1",
"U c #64D4F4",
"Y c #6AD5F0",
"T c #65DAF7",
"R c #6BDCF2",
"E c #6DE2F5",
"W c #6FE9F7",
"Q c #70E6F5",
"! c #73EEF7",
/* pixels */
"          *8ZR!!!!Yz5$                &7ZRRA8*O#,pnnMnn>@o      ",
"          &8ZR!!!!Yz7%                &7ZRRA8*o#,pnnnnn,@o      ",
"          &5jKRREEKk6&Oo.             &6zUTb8=+:<nnnn<t:+o      ",
"          $17jZJGIFke2@OO.            &5hFGci0:q<nnp<>>@Oo      ",
"          X&=58gcCVNn<>#Oo            O4uVCNdt<<pnpy>#@Oo       ",
"           X$$*3yMNMn<<,@O            O#wmNMmnnnnnp,:+oo        ",
"   .......o...O#<<nnMn<<#+..    ...XXX*2tmMMnnn<npy>@o          ",
"  ..O+@@@@@@@@#><nnnnMn<q#@O...oO+@-358acVVldt,>,,>#+o          ",
"  oO##>>q>>>>>>,<nnnnnnntt:+O oO@:qeavvbFGFca4####@+O.          ",
"  o#>ynnnnnnpnnnnnMnMnnnppp:+.o-q<MBDWWQ!!Rb8=X.o...            ",
"OO+#>,<p<p<pppp<pp<<n<<nnnnw0*=quNBDH!!!!!QJ95&$$          ooooO",
"####:>>>>>,>>>>>>,<>,><<pnMuriihcCGHW!!!!!QLJ95=&.         oO@##",
">,>::#@@@#@@@@@@@#@#@@#>tpMNVvAJIUTEWW!!!!QRLJj7=$        o+#:,,",
"ppt>#OooooooooooooooOo+#>pMCITEEEEWWW!!!!!!!QEJj5$        o@:<n<",
"ppt:@o         o.oo.. o@:<mCUTWW!!!!!!!!!!!!!!Kz7=$$Oooooo+#<<nn",
">>>@Oo         oO++O. oO#0wNCUTTEW!!!!!!!!!!TTGbh753-#@@@+:<<nMn",
"##@+oo        .O@#:@O..o+@#uNCGTRQ!!!!!!!!WETGDbbvjgu>><>>,<<nMn",
"OOoo          o+:<>:+. .oo%quNBGTQ!!!!!!!!WTGBBFPYIFBM<<n<n<nnnn",
"   oooOo.     .+#,>#+.    o#tpMBFIYYYYYYTYUbNmdVSIKFDMnnnnnnn<n<",
"  oo+##OX.    .O@::@O.    o#qpMNkvjZjZjZzzjgrwqrgjvcNMnnMnnn<,>,",
"  .+#>>#+.    ..O++o..    o#tpnpre56766657532---356uunMnnMn<,##@",
"  O@:<<>@.     ......      #tnpy0&$$$$$$$$$$oo.$X%&2qpnMnn<,:Ooo",
"  O@:<<>@.             .ooO:tp<<@$                o@>pMnnn<:@o  ",
"  .+@>>#+             ..O+#qtp<,-$                o@><n<<<:#+.  ",
"  ..+@@+O             oO@:><<nn,#o                o@,<n<,#@+o.  ",
"   ..oO..             o+:,<nnn<<#o                o@>pn>#+O..   ",
"               .....oo+#,nMnnn<:@o              ..O-tyNq#.      ",
"               OO#####:<<nn<<>:@Oo            .O+#0efCCr;O      ",
"              .+#:<<,,<<<nn,>@+Oo             o+#>tfCGUh1$      ",
"              .@><nn<nnnnnn>#O.o              o@qyMVGTTj5%      ",
"OOOOXOXOOOOO.O+#,nnnnn<<n<<:+   ooooo         O0tMBFUEQZ8=&&&&&&",
"@@@#@#@#@@@##@#q<<n<<<<,,,,#Oooo++++o         &3rVDHTW!Kz8777777",
",<<<,<<<,,<<,<<<pnp<:;#@@@@OO oO#:>#+.        &5hPTTQQQRLZZZZZZZ",
"<n<<<n<<<n<<<<ppnn<<;OOOOOOo  o@:,<:@.        &8vUWWQ!!QQRYRYYYY",
"n<<nnn<nnnppnnnnnnp<#O..      o@><<>#O..ooo$$%=8AE!WQQEQRQRQQQEE",
"<<,<<<<<,<,<<<<<pn<<:#@Ooo    o+#>,>:@@@@@%--38ZLEQEYJZAJAAAAAAA",
":##########:;#;,<nn<<,:@Oo     O+@:#:>>>>>0wijAKYQQLZj8887888888",
"oooo..o.......O#<<nnnn<>@O       oo#:<pnnnMBFTQQQ!EA8=$$$$$$$$$$",
"       ..Oo.. .+;<nnnn<<;@oOOOOOOO+#,nnnnMMVFILYRYJj6&          ",
"       .+@@+...+#;<<pnn<,;#@##@####><nnMnnMNlvZZZZj7=$          ",
"      .O#>;#+...O@;><nn<p<<,,,,,>,,<pnnnMMnnue77775=&.          ",
"      .@><<:@.  ..@;<nnnnnppp<pn<n<nnnnnnnnt0#%$%&$o.           ",
"      .@;<<:@.  . .#<nnnnnMnnnnnnnnnppnnnnn,#O     o..oo        ",
"      .O@,:#+.    O;<nMnnnnMnnnn<<,,,,<<<M<,#o     oO&@O$       ",
"      ..O#@+..    O#,nnnnnnnnnn<,:####:><Mn,#+    .O@:>+%       ",
"       ..OO..    .O#,<nnnnMnnnn<#+OoO++:<n<,#O    .+#>t#%       ",
"               ..O@:<pnnnpp<pp<;@o    o+><<>#+Oo. .+:ty#%o      ",
"              .OO@:<<nnn<,>,,;;@+o    oO#:>::#@+O..O@#>+Oo      ",
"               O;;<<ynn<>;@@@@+Oo     ..++##:>:#O...O@@O.       ",
"              o+;<nnnMn<;+oo..o..      ..oO@><<#@. . oo..       ",
"   .ooo   o$$%&0,ynMnp<;@o         ..o..  .+:,<>-Oooooo..       ",
"  ..O+#Oo o%=57rsnn<<<;;+.        .oo@@Oo.o+@:>>:#@@#@@O.       ",
"  .+##:#O.$15jzklMp<;;++o.        .o#>:@O..oO+#::>>>>>>+O.      ",
"  .@#<t:@.&5jJYFBNp,;+o... .      .+:<,:@o .oo+#>tppp<t:+.      ",
"  o#,<<t2$=8JRWUDN<;@.......      .@:<<:@.    o#:tnnnnn>@Oo.oo..",
"  .O##<te8jZLQEPca;@O...O@@Oo.    .o@::@O.    o+@:><ppn<>:######",
"  ..O+*58xJLEQEJ94@X...+#>>#o.     .O@+Oo     .oO@#:<nnpt<,,,t,>",
"    ..&5jYQQQ!RJ8=....o@:<<:@.     .....       ..oO#<<nnnnpnpppp",
"&&&&&&=8bE!!!!EZ8&    .+:<<:+.                    o#,pnnpppppppp",
"7777778zK!!!!!RZ8&    .O#::@o.                    o@>pppt>>>,>>,",
"ZZzZZZZKR!!!!!QZ8&.   ..+@@+..                    o@>ppt0#######",
"LRLLRERRQ!!!!!EZ9&     ..oo..                     o#,<n,#+oOoOoo",
"!!!!!!!!!!!!!!RZ8&                                o@>pp>#o      ",
"!!!!!!!!!!!!!!EZ8+                                o@>pn>+o      "
};
