/* XPM */
static char *_caf870fd95840b0ebcd1b2886e384f0xvkIRAqRMT1QU8A9[] = {
/* columns rows colors chars-per-pixel */
"64 64 208 2 ",
"   c #020202",
".  c #060A0B",
"X  c #0B0C0A",
"o  c #070808",
"O  c #0E100D",
"+  c #12120E",
"@  c #080D16",
"#  c #0D1213",
"$  c #0B131C",
"%  c #121512",
"&  c #161A14",
"*  c #191C16",
"=  c #1C1E1A",
"-  c #13161A",
";  c #120F0B",
":  c #2C1910",
">  c #1E221C",
",  c #21261E",
"<  c #272418",
"1  c #3B3212",
"2  c #0D1424",
"3  c #0E182A",
"4  c #151B26",
"5  c #0F1B32",
"6  c #111B38",
"7  c #152528",
"8  c #13283A",
"9  c #193139",
"0  c #232720",
"q  c #252922",
"w  c #292C26",
"e  c #2C2D2B",
"r  c #26262D",
"t  c #372E26",
"y  c #2E312B",
"u  c #31342F",
"i  c #3B3327",
"p  c #262B34",
"a  c #343631",
"s  c #3B3E39",
"d  c #373A35",
"f  c #4B3C0D",
"g  c #493B2A",
"h  c #443828",
"j  c #3F413D",
"k  c #5C470B",
"l  c #785B09",
"z  c #624C0C",
"x  c #48443A",
"c  c #594732",
"v  c #6A563C",
"b  c #66523A",
"n  c #152443",
"m  c #172847",
"M  c #1B364C",
"N  c #1A2A55",
"B  c #193757",
"V  c #243644",
"C  c #1D3667",
"Z  c #243977",
"A  c #203269",
"S  c #254E55",
"D  c #1D456B",
"F  c #1F4871",
"G  c #224769",
"H  c #224679",
"J  c #255475",
"K  c #356B77",
"L  c #484945",
"P  c #51524E",
"I  c #595B56",
"U  c #4F514C",
"Y  c #6C5C42",
"T  c #5F605B",
"R  c #7A6345",
"E  c #61625D",
"W  c #6A6B67",
"Q  c #7A7A77",
"!  c #73746F",
"~  c #B00E07",
"^  c #AF2D05",
"/  c #952419",
"(  c #D10908",
")  c #EB0009",
"_  c #F60009",
"`  c #805F05",
"'  c #A75204",
"]  c #966E03",
"[  c #8C6807",
"{  c #A77803",
"}  c #AB6D08",
"|  c #967A30",
" . c #866C4C",
".. c #8D774F",
"X. c #8E7350",
"o. c #947854",
"O. c #7F807C",
"+. c #B5850C",
"@. c #C99201",
"#. c #D09700",
"$. c #FFB900",
"%. c #FAB600",
"&. c #ECAB00",
"*. c #82827E",
"=. c #9B937C",
"-. c #B59266",
";. c #A38857",
":. c #263F82",
">. c #274688",
",. c #2A5191",
"<. c #2B6398",
"1. c #3B798F",
"2. c #324EA8",
"3. c #3257AA",
"4. c #3559B7",
"5. c #2D6BA7",
"6. c #3977A8",
"7. c #327ABA",
"8. c #3477B9",
"9. c #3269B3",
"0. c #4070BD",
"q. c #3A5CC5",
"w. c #3B5DC9",
"e. c #3C64CD",
"r. c #3A69CB",
"t. c #3C67D0",
"y. c #3C6DD3",
"u. c #3D73D5",
"i. c #3D76D8",
"p. c #3E7ADB",
"a. c #3A70CF",
"s. c #416DCE",
"d. c #416ED0",
"f. c #4371D0",
"g. c #4378D5",
"h. c #487FD4",
"j. c #407CDB",
"k. c #4377CC",
"l. c #458DAF",
"z. c #53AAB9",
"x. c #3E81DE",
"c. c #3B8BD7",
"v. c #398BD5",
"b. c #3E85E2",
"n. c #3F8BE6",
"m. c #3F8FE8",
"M. c #3F93EA",
"N. c #3D95E5",
"B. c #4384DD",
"V. c #4C8CDA",
"C. c #4882D6",
"Z. c #4D93DE",
"A. c #4496D6",
"S. c #5195DC",
"D. c #529BDE",
"F. c #4783C8",
"G. c #55A0DE",
"H. c #4EABD3",
"J. c #428EE4",
"K. c #4392E7",
"L. c #4095EC",
"P. c #449CEC",
"I. c #4B9BE5",
"U. c #419EF1",
"Y. c #47A0EC",
"T. c #52A5E5",
"R. c #59ADE3",
"E. c #5CB4E6",
"W. c #5FB9E7",
"Q. c #57B5EA",
"!. c #41A4F5",
"~. c #46ABF5",
"^. c #4BACF0",
"/. c #52BBF4",
"(. c #51B5F2",
"). c #4BB3F2",
"_. c #60BAE7",
"`. c #61BFE8",
"'. c #5FC4D1",
"]. c #5CC7F3",
"[. c #5DC3EE",
"{. c #66CDED",
"}. c #61C2EB",
"|. c #60CBF2",
" X c #65D4F3",
".X c #6DDCF2",
"XX c #67D1E5",
"oX c #6EE3F4",
"OX c #73EFF7",
"+X c #73EEF7",
"@X c #70E5F4",
"#X c #868682",
"$X c #8E8E8A",
"%X c #92928E",
"&X c #9A9481",
"*X c #9A9A95",
"=X c #999A95",
"-X c #A2A29E",
";X c #A9A9A5",
":X c #B2B1AA",
">X c #BABAB5",
",X c #C3C3BE",
"<X c #CBCBC5",
"1X c #D2D2CD",
"2X c #DEDED9",
"3X c #D9D9D3",
"4X c #D0CFC9",
"5X c #E2E2DC",
/* pixels */
"w.w.w.w.w.w.w.w.w.w.d.S.W..XOXOXOXOX.XW.S.f.w.w.w.w.w.w.w.w.w.w.w.w.w.w.w.w.f.S.W..X.XW.S.f.t.p.n.U.!.!.!.!.U.n.p.t.w.w.w.w.w.w.",
"w.w.w.w.w.w.w.w.w.w.s.S.W..XOXOXOXOX.XW.S.f.w.w.w.w.w.w.w.w.w.w.w.w.w.w.w.w.f.S.W..X.XW.S.f.t.p.n.U.!.!.!.!.U.n.p.t.w.w.w.w.w.w.",
"w.w.w.w.w.w.w.w.w.w.s.V.R.{..XoXoXoX XQ.Z.g.e.e.e.w.w.w.w.w.w.w.w.w.w.w.w.w.f.Z.E. X XQ.Z.g.y.x.m.U.!.!.!.U.L.b.i.e.w.w.w.w.w.w.",
"w.w.w.w.w.w.w.w.w.w.s.C.S.R.`.}.|. X].Q.I.B.i.y.e.e.w.w.w.w.w.w.w.w.w.w.w.w.d.V.T.].].Q.I.B.p.n.L.!.!.U.L.M.b.p.y.e.w.w.w.w.w.w.",
"w.w.w.w.w.w.w.w.w.w.e.f.h.V.D.T.Q././.^.P.K.b.p.y.e.w.w.w.w.w.w.w.w.w.w.w.w.y.B.I.(./.^.P.K.m.L.U.!.!.L.n.p.i.y.e.e.w.w.w.w.w.w.",
"w.w.w.w.w.w.w.w.w.w.w.e.s.s.g.B.K.~.~.~.!.!.L.b.i.e.w.w.w.w.w.w.w.w.w.w.w.w.t.j.K.~.~.~.!.U.U.!.!.!.U.m.p.y.e.e.e.w.w.w.w.w.w.w.",
"w.w.w.e.e.e.t.t.t.t.t.t.t.t.u.p.J.U.!.!.!.!.U.m.p.y.e.e.e.w.w.e.e.e.t.t.d.d.g.B.P.~.~.~.!.U.7.7.U.U.L.b.i.e.w.w.w.w.w.w.w.w.w.w.",
"w.w.e.e.y.i.p.p.p.p.p.p.p.p.p.n.L.!.!.!.!.!.!.L.n.p.i.y.e.e.e.e.y.i.j.B.V.V.D.T.Q././.^.c.H $ F m.m.b.p.y.e.w.w.w.w.w.w.w.w.w.w.",
"w.w.e.y.p.b.n.n.n.n.n.n.n.n.m.L.U.!.!.!.!.!.!.P.L.m.b.p.y.e.e.y.p.b.K.I.T.E.W.[.|.|.H.J . % > 8 i.p.i.y.t.e.w.w.w.w.w.w.w.w.w.w.",
"w.w.e.i.b.L.U.U.U.U.U.P.N.U.U.!.!.!.!.!.!.!.!.!.!.U.L.b.i.e.e.i.b.L.~.(.]. X.X'.K 9 % , , , , $ 2.e.e.e.e.w.w.w.w.w.w.w.w.w.w.w.",
"t.t.y.p.n.L.U.U.U.U.U.B $ v.U.U.U.U.U.U.U.U.U.!.!.!.!.K.B.g.g.B.K.~.).H.l.S 7 # > y y 0 , , , % Z e.w.w.w.w.w.w.w.w.w.e.e.e.e.t.",
"p.p.p.x.b.n.n.n.n.n.n.M i G J.J.n.n.n.n.n.n.m.L.U.!.!.P.A.l.6.,.G M 7 - = w a a e , , , , , , & n e.w.w.w.w.w.w.w.w.e.t.y.i.p.p.",
"n.n.n.b.x.p.p.p.p.p.p.>.t 4 a.p.p.p.p.p.p.p.p.n.m.v.8.J M 4 # * 0 e a a u y q 0 P W w , , , , > 2 3.w.w.w.w.w.w.w.w.e.y.p.b.n.n.",
"U.U.L.n.p.y.t.t.t.t.t.4.r g >.t.t.t.t.t.t.e.4.H 8 # O & > > , , 0 , , , , , , u 4X5XQ d , , , , % Z w.w.w.w.w.w.w.w.e.i.b.M.U.U.",
"U.U.M.b.i.e.w.w.w.w.w.q.N v m 4.e.e.e.4.Z 6 # % = > , , , , , , , , , , , , , q $X5X2X1Xe , , , * n f.s.y.t.t.t.t.t.y.p.M.U.!.!.",
"n.n.b.p.y.e.w.w.w.w.w.w.>.h t ,.y.a.H 3 % * > , , , , , , , , < k l [ l 1 > , q *X5X1X>Xw , , , > 2 F.V.B.j.p.p.p.p.p.n.L.!.!.!.",
"p.p.i.y.t.e.w.w.w.w.w.w.4.4 b B 3.n # > , , , q , , , , , < z @.&.%.%.%.{ [ < U 3X<XL u , , , , 0 - 6.T.I.K.n.n.n.n.m.L.U.!.!.!.",
"t.t.e.e.e.w.w.w.w.w.w.w.w.N R < o > u q , , x 1X$Xq , , > ] %.$.$.$.$.@.#.@.] %X2XT , , , , , , 0 q S [.(.~.U.U.U.U.U.!.!.!.!.!.",
"w.w.w.e.e.e.e.e.e.w.w.Z 6 $ X % y y , , , > ! 5X:Xy , , l +.{ #.$.$.&.{ / ~ ( / #X, , , , , , , , y - H./.~.!.!.!.!.!.!.!.U.U.U.",
"w.w.e.e.y.i.i.y.t.e.q.@ % * o y u q , , , L 1X5X1X*., < &.{ { ] ' ^ ~ ) _ _ _ ( : f ] [ , , , , , u = <.^.~.!.!.!.!.!.U.L.m.m.m.",
"w.w.e.y.p.b.b.p.y.e.w.>.6 @   X = e u q , I 3X<X<X5X<Xc } ^ ~ ( _ _ ) ( ( ^ ' ] { l f < , , , , , y a 8 A.!.!.!.!.!.!.L.n.p.p.p.",
"w.w.e.i.b.L.L.b.i.e.w.w.4.6 X ; g   > q , w E s L %X1X/ ) _ ) ( ( ^ ' ] { | ;.=.! > , , , , , , , e s % <.!.!.!.!.!.U.m.p.u.t.t.",
"w.w.e.i.b.L.L.b.i.e.w.w.q.5 X o X.X . > , , , , , , s / ( ^ ' } +.| ..&Xe * ! 3X#X> , , , , , , , w s > n U.!.!.!.U.L.b.i.e.w.w.",
"w.w.e.y.p.b.b.p.y.e.w.w.w.N 2 m b g 6   > , , , < 1 k { +.+.| Y x =X2XW     o %XI , , , , , , , , w s q X 7.!.U.L.m.b.p.y.e.w.w.",
"w.w.e.e.y.i.i.y.t.e.w.w.w.4.3.2.e X.N 3 X > , , f ` z 1 :X4X=X    o %XL       W a , , , , , , , , q s q & 8 U.L.n.p.i.y.e.e.w.w.",
"w.w.w.e.e.e.e.e.e.w.w.w.w.w.w.q.n o.$ Z   % , , < , , > *.5XW       W -XX   e ! , , , , , , , , , q d 0 = . 5.m.p.u.e.e.e.w.w.w.",
"w.w.w.w.w.w.w.w.w.w.w.w.w.w.w.e.:.c t ,.2   > , , , , , > ;X*X      W L >X;X;Xe , , , , , , , , , q a , >   3 J.j.t.w.w.w.w.w.w.",
"w.w.w.w.w.w.w.w.w.w.w.w.w.w.e.t.r.%  .N H   O , , , , , , q Q ;XQ :X:Xs <X=X-X#X#Xw , , , , , , , q y , ,     <.B.t.w.w.w.w.w.w.",
"w.w.w.w.w.w.w.w.w.w.w.w.w.w.e.y.p.m o.- 9.@   > , , , , , , , a *.$X$XQ *XQ *X$X,X4XW u Q j , , , q q , ,     @ k.d.w.w.w.w.w.w.",
"w.w.w.w.w.w.w.w.w.w.w.w.w.w.e.i.b.5.c h <.B   * , , , , , , w #X*X%X;X*X%X%X$X*XO.4X5X2X5X;X, , , q , , ,       G s.w.w.w.w.w.w.",
"e.t.e.e.e.e.e.e.e.e.e.e.e.e.u.p.m.N.-  .D <.  + , , , , , , T >X*X#X$X:X*.,X#X,XP L >X5X1XE , , , q , , >       3 0.f.f.f.f.f.f.",
"p.p.p.p.p.p.p.p.p.p.p.p.p.p.x.n.L.!.M X.p 5.o o , , , , , s ,X<X! Q $X*X! >X2X2XU > =X5X;X> , , , , , , O     o 1.G.S.S.S.S.S.S.",
"n.n.n.n.n.n.n.n.n.n.n.n.n.n.m.L.P.!.5.h x H $ o , , , w L =X5X$XP 1X1X1X5X5X5X>Xw , I >XP , , , , , , &     # l.{.}.W.W.W.W.W.W.",
"U.U.U.U.U.U.U.U.U.U.U.U.U.U.U.!.!.!.N.2 R n 6   , , , *X2X5X<Xy 0 #X3X5X5X5X;XL , , , q , , , , , , %     S '.@XoXoX.X.X.X.X.X.X",
"U.U.U.U.U.U.U.U.U.U.U.U.U.U.U.!.!.!.U.B v y m   , , , W <X2X3XI , q P *.*.T y , , , , , , , , , > +   7 1.XX.X.X.X.X.X.X.X.X.X.X",
"n.n.n.n.n.n.n.n.n.n.n.n.n.n.m.L.U.!.!.8.g v 6 o , , , , * ;X2XE , , , , , , , , , , , , , > = O   7 1.XX{.`.W.W._.W.W.W.W.W.W.W.",
"p.p.p.p.p.p.p.p.p.p.p.p.p.p.x.n.L.!.!.P.p  .o X , , , , , q s > , , , , , , , > * & + o . $ 9 K z.oXoX{.W.G.S.S.S.S.S.S.S.S.S.S.",
"t.t.t.t.t.t.t.t.t.t.t.t.t.t.y.p.m.U.!.!.G v < X , , , , , , , , , > % X o o $ n F <.7.A.W. XoXoX@XOX.X`.G.h.f.f.f.f.f.f.f.f.f.f.",
"w.w.w.w.w.w.w.e.e.e.e.e.e.w.e.i.b.L.U.!.8.i g % q y u q = % - 2 5 m C ,.8.c.!.!.!.!.~./.]. X.X.X.X.X{.R.V.s.w.w.w.w.w.w.w.w.w.w.",
"w.w.w.w.w.w.e.e.y.i.i.y.t.e.e.y.p.b.m.5.F - + 0 a w & # 3 C ,.9.u.p.p.n.L.!.!.!.!.!.~.^.Q.Q.W.W.W.W.R.S.C.s.w.w.w.w.w.w.w.w.w.w.",
"w.w.w.w.w.w.e.y.p.b.b.p.y.e.e.e.y.i.p.5 X X % e % $ C 8.x.m.m.m.n.m.m.L.U.!.!.!.!.!.!.Y.I.Z.S.S.S.S.V.h.f.e.w.w.w.w.w.w.w.w.w.w.",
"w.w.w.w.w.w.e.i.b.L.L.b.i.e.w.e.e.e.y.9.$ o   + B v.U.U.U.U.U.U.U.U.U.!.!.!.!.!.!.!.!.L.B.g.f.f.f.f.s.s.e.e.w.w.w.w.w.w.w.w.w.w.",
"w.w.w.w.w.w.e.i.b.L.M.b.i.e.w.w.w.w.t.9.$ o X X.V N.!.!.!.!.!.!.U.U.U.U.U.U.U.!.!.!.U.m.p.t.w.w.w.w.w.e.e.e.e.e.e.w.w.w.w.w.w.w.",
"w.w.w.w.w.w.e.y.p.b.b.p.y.e.w.w.w.w.t.n % $ 8 R i 7.!.!.!.!.!.U.L.m.m.m.m.m.m.L.U.!.U.m.p.e.w.w.w.w.e.t.y.i.i.y.e.e.w.w.w.w.w.w.",
"w.w.w.w.w.w.e.e.y.i.i.y.t.e.w.w.w.w.e.2 @ F 7.t v J !.!.!.!.!.L.n.p.p.p.p.p.p.n.L.!.U.m.p.t.w.w.w.w.e.y.p.b.b.p.y.e.w.w.w.w.w.w.",
"w.w.w.w.w.w.w.e.e.e.e.e.e.w.w.w.w.w.t.i.x.P.N.7 X.V !.!.!.!.U.m.p.y.t.t.t.t.u.p.M.U.U.m.p.t.w.w.w.w.e.i.b.L.L.b.i.e.w.w.w.w.w.w.",
"w.w.w.w.w.w.w.w.w.w.w.w.w.w.w.e.e.e.y.p.m.U.!.D X.h v.U.U.U.L.b.i.e.w.w.w.w.e.i.b.L.L.n.p.y.e.e.e.w.e.i.b.L.L.b.i.e.w.w.w.w.w.w.",
"w.w.w.w.w.w.w.w.w.w.w.w.w.w.e.t.u.i.x.n.L.!.!.7.c R D n.n.n.b.p.y.e.w.w.w.w.e.y.p.b.b.b.x.p.i.y.t.e.e.y.p.b.b.p.y.e.w.w.w.w.w.w.",
"w.w.w.w.w.w.w.w.w.w.w.w.w.w.e.y.p.b.m.L.U.!.!.c.p o.3 p.p.p.i.y.t.e.w.w.w.w.e.e.y.i.p.p.b.n.b.p.y.e.e.t.y.i.i.y.e.e.w.w.w.w.w.w.",
"w.w.w.w.w.w.w.w.w.w.w.w.w.w.e.i.b.M.U.!.!.!.U.m.m X.< 4.t.t.e.e.e.w.w.w.w.w.w.e.e.e.y.p.n.M.M.b.i.e.w.e.e.e.e.e.e.w.w.w.w.w.w.w.",
"w.w.w.e.e.e.e.e.e.w.w.e.s.s.g.B.K.U.!.!.!.U.L.b.>.c R Z w.w.w.w.w.w.w.e.e.e.e.e.e.w.e.i.b.L.L.n.p.y.t.t.t.t.e.e.e.w.w.w.w.w.w.w.",
"w.w.e.e.y.i.i.y.t.e.e.f.C.V.Z.I.Y.!.!.U.L.m.b.p.4.p -.3 q.w.w.w.w.w.e.t.y.i.i.y.t.e.e.y.p.b.n.b.x.p.p.p.p.p.i.y.e.e.w.w.w.w.w.w.",
"w.w.e.y.p.b.b.p.y.e.s.C.S.R.Q.Q.^.~.!.L.n.p.i.y.e.n ;.< 2.w.w.w.w.w.e.y.p.b.b.p.y.e.e.e.y.i.p.x.b.n.n.n.n.n.b.p.y.e.w.w.w.w.w.w.",
"w.w.e.i.b.L.L.b.i.e.s.V.R.{. X]./.~.U.m.p.y.e.e.e.Z b b C w.w.w.w.w.e.i.b.L.L.b.i.e.w.e.e.e.y.p.n.L.U.U.U.U.L.b.i.e.w.w.w.w.w.w.",
"w.w.e.i.b.L.L.J.B.f.h.G.`..XoX X/.~.L.b.i.e.w.e.e.3.< -.2 q.w.w.w.w.e.i.b.L.L.b.i.e.w.w.w.w.e.i.b.L.U.!.!.!.U.m.p.y.e.e.e.e.e.e.",
"w.w.e.y.p.b.J.J.Z.Z.G.W.{.oXoX|.Q.P.b.p.y.e.e.e.y.i.2 -.< 2.w.w.w.w.e.y.p.b.b.p.y.e.w.w.w.w.e.y.p.b.m.L.U.!.!.L.n.p.p.p.p.p.p.p.",
"w.w.e.e.y.i.B.Z.T.E.}.{..X@X.X}.T.B.i.y.e.e.e.y.p.b.H  .v A w.w.w.w.e.e.y.i.i.y.e.e.w.w.w.w.e.e.y.i.p.n.L.!.!.U.L.M.m.m.m.m.m.m.",
"w.w.w.e.e.e.g.Z.E.{..XoX@XOX.XW.D.g.e.e.e.w.e.i.b.L.7.h -.n q.w.w.w.w.e.e.e.e.e.e.w.w.w.w.w.w.e.e.e.y.p.m.U.!.!.!.U.U.U.U.U.U.U.",
"s.s.s.s.s.s.h.D.`.oXOXOXOXOX.XW.S.f.w.w.w.w.e.i.b.L.m.- -.e 2.w.w.w.w.w.w.w.w.w.w.w.w.w.w.w.w.w.w.w.t.p.n.U.!.!.!.U.U.U.U.U.U.U.",
"S.S.S.S.S.S.G.W.{.@XOXOXOXOX.XW.S.f.w.w.w.w.e.y.p.b.b.m X.c Z w.w.w.w.w.w.w.w.w.w.w.w.w.w.w.w.w.w.w.t.p.n.U.!.U.L.m.n.n.n.n.n.n.",
"_._._._._._.}.{..X@XOXOXOXOX.XW.S.f.w.w.w.w.e.e.y.i.i.>.g X.n w.w.w.w.w.w.w.w.w.w.w.w.w.w.w.w.w.w.w.t.p.n.U.!.L.n.p.p.p.p.p.p.p.",
".X.X.X.X.X.X.XoX@XOXOXOXOXOX.XW.S.f.w.w.w.w.w.e.e.e.e.q.- X.4 q.w.w.w.w.w.w.w.w.w.w.w.w.w.w.w.w.w.w.t.p.n.U.U.m.p.y.t.t.t.t.t.t.",
"OXOXOXOXOXOXOXOXOXOXOXOXOXOX.XW.S.f.w.w.w.w.w.w.w.w.w.w.C p A q.w.w.w.w.w.w.w.w.w.w.w.w.w.w.w.w.w.w.t.p.n.U.U.n.p.t.w.w.w.w.w.w.",
"OXOXOXOXOXOXOXOXOXOXOXOXOXOX.XW.S.f.w.w.w.w.w.w.w.w.w.w.w.w.w.w.w.w.w.w.w.w.w.w.w.w.w.w.w.w.w.w.w.w.t.p.n.U.U.n.p.t.w.w.w.w.w.w."
};
