/* XPM */
static char *_60615b207094c659fa00994cba0bec9hyrpFyScMsds3zAt[] = {
/* columns rows colors chars-per-pixel */
"64 64 240 2 ",
"   c #160E13",
".  c #190F16",
"X  c #191116",
"o  c #1C141A",
"O  c #1E191D",
"+  c #171115",
"@  c #22161D",
"#  c #22191E",
"$  c #291818",
"%  c #28171C",
"&  c #34251D",
"*  c #1F1520",
"=  c #241623",
"-  c #241B23",
";  c #291A25",
":  c #2C1C2C",
">  c #29182B",
",  c #311C2E",
"<  c #2B1A32",
"1  c #341B33",
"2  c #371938",
"3  c #2C232C",
"4  c #292328",
"5  c #36272A",
"6  c #292736",
"7  c #332334",
"8  c #332B35",
"9  c #3B253B",
"0  c #342C3B",
"q  c #3B2A3C",
"w  c #362538",
"e  c #38323D",
"r  c #2C343F",
"t  c #4C291E",
"y  c #492924",
"u  c #573724",
"i  c #412B3F",
"p  c #443636",
"a  c #543229",
"s  c #653526",
"d  c #753D2D",
"f  c #5A442E",
"g  c #71482D",
"h  c #3E1C43",
"j  c #282946",
"k  c #3E2A41",
"l  c #393746",
"z  c #2A3758",
"x  c #2F3750",
"c  c #2A3869",
"v  c #363C65",
"b  c #2C3C7A",
"n  c #323E7A",
"m  c #441D46",
"M  c #501D54",
"N  c #432B44",
"B  c #4C244B",
"V  c #472A49",
"C  c #45324A",
"Z  c #4C334C",
"A  c #443547",
"S  c #4E2651",
"D  c #532454",
"F  c #572759",
"G  c #4B3652",
"H  c #523654",
"J  c #543A55",
"K  c #5A3C5C",
"L  c #55385A",
"P  c #51314E",
"I  c #61265E",
"U  c #5D1D66",
"Y  c #681E70",
"T  c #5D2665",
"R  c #5C3C62",
"E  c #5D3562",
"W  c #64226C",
"Q  c #672868",
"!  c #623D65",
"~  c #64386A",
"^  c #6B2673",
"/  c #752978",
"(  c #6B3672",
")  c #753679",
"_  c #374657",
"`  c #2A4158",
"'  c #384668",
"]  c #3B526F",
"[  c #3A5875",
"{  c #374B72",
"}  c #3D657F",
"|  c #4F4456",
" . c #5D4361",
".. c #445175",
"X. c #664369",
"o. c #6C4573",
"O. c #6B4876",
"+. c #754A7B",
"@. c #764979",
"#. c #79527E",
"$. c #734B69",
"%. c #477077",
"&. c #715B43",
"*. c #8A542E",
"=. c #A85636",
"-. c #B95836",
";. c #AD582F",
":. c #956A28",
">. c #A97B2A",
",. c #B2712C",
"<. c #D56B32",
"1. c #D07132",
"2. c #C25F39",
"3. c #822E7C",
"4. c #83557F",
"5. c #B88529",
"6. c #B18332",
"7. c #CD8D2E",
"8. c #E49D29",
"9. c #E68630",
"0. c #E8A62B",
"q. c #EFB326",
"w. c #2D3F82",
"e. c #7C2C82",
"r. c #7C3785",
"t. c #35488C",
"y. c #344A98",
"u. c #344F8E",
"i. c #3B658D",
"p. c #3752AB",
"a. c #3959B9",
"s. c #364DA3",
"d. c #3C67B8",
"f. c #3A73B2",
"g. c #7C4D83",
"h. c #7A4886",
"j. c #7C5384",
"k. c #4A7A8D",
"l. c #4273B1",
"z. c #43558B",
"x. c #3B5CC3",
"c. c #3B5DC9",
"v. c #3C64CD",
"b. c #3C6ACE",
"n. c #3C65C3",
"m. c #3D6CD2",
"M. c #3C67D0",
"N. c #3D73D7",
"B. c #3D76D9",
"V. c #3E7ADB",
"C. c #3C7FD3",
"Z. c #3D75CA",
"A. c #416DCE",
"S. c #4067C9",
"D. c #4270CF",
"F. c #4A7FCD",
"G. c #4373D1",
"H. c #437DD7",
"J. c #416FD0",
"K. c #852C86",
"L. c #853789",
"P. c #8B3B92",
"I. c #913C94",
"U. c #844A89",
"Y. c #84548C",
"T. c #87568A",
"R. c #8C4895",
"E. c #96489B",
"W. c #8A5593",
"Q. c #8D5994",
"!. c #8A5798",
"~. c #935C9B",
"^. c #95589B",
"/. c #90468B",
"(. c #97629C",
"). c #91618D",
"_. c #955CA3",
"`. c #9B5CA4",
"'. c #9C5DAA",
"]. c #9957A7",
"[. c #9554A5",
"{. c #A25EAC",
"}. c #A357A8",
"|. c #A55EB6",
" X c #9C62A4",
".X c #9E62AA",
"XX c #9865A5",
"oX c #9E63B1",
"OX c #A463AC",
"+X c #A667A9",
"@X c #A564B2",
"#X c #AA64B3",
"$X c #AA6AB3",
"%X c #AC6BBA",
"&X c #A666B7",
"*X c #AE6EB8",
"=X c #A15D9B",
"-X c #B270C0",
";X c #3D81BE",
":X c #588B94",
">X c #5090B5",
",X c #58A9B2",
"<X c #64B7BE",
"1X c #3E83DC",
"2X c #3D8CD3",
"3X c #3E85E2",
"4X c #3F8BE6",
"5X c #3F8FE8",
"6X c #3F94EA",
"7X c #4588C7",
"8X c #4787DA",
"9X c #4E92DB",
"0X c #4595DC",
"qX c #5094DB",
"wX c #539ADC",
"eX c #56A4DE",
"rX c #65BEC8",
"tX c #418DE6",
"yX c #4094EB",
"uX c #4499E8",
"iX c #419DF1",
"pX c #54A6E3",
"aX c #5DB5E5",
"sX c #5EBAE7",
"dX c #59B7EA",
"fX c #41A4F5",
"gX c #48ABF3",
"hX c #52B9F3",
"jX c #48A3EC",
"kX c #60BDE7",
"lX c #5BC6F3",
"zX c #5CC4EC",
"xX c #65CCEC",
"cX c #6CDCF2",
"vX c #66D4F3",
"bX c #6BDBEA",
"nX c #6EE3F4",
"mX c #73EFF7",
"MX c #70E7F4",
"NX c #5FC2DB",
/* pixels */
"c.c.c.c.c.c.c.c.c.c.A.qXsXcXmXmXmXmXnXkXqXD.c.c.c.c.c.c.c.c.c.c.c.c.c.c.c.c.A.qXaXcXcXsXqXA.M.V.4XiXfXfXfXfXiX4XB.v.c.c.c.c.c.c.",
"c.c.c.c.c.c.c.c.c.c.A.qXsXcXmXmXmXmXnXsXqXD.c.c.c.c.c.c.c.c.c.c.c.c.c.c.c.c.A.qXaXcXcXsXqXA.M.V.4XiXfXfXfXfXiX4XB.v.c.c.c.c.c.c.",
"c.c.c.c.c.c.c.c.c.c.A.9XaXxXcXcXnXnXvXdXqXG.v.v.v.c.c.c.c.c.c.c.c.c.c.c.c.c.A.9XaXvXvXdX9XG.N.1X4XiXfXfXfXiXyX3XN.v.c.c.c.c.c.c.",
"c.c.c.c.c.c.c.c.c.c.A.8X7XeXsXsXzXlXzXpXuX8XB.m.b.v.c.c.c.c.c.c.c.c.c.c.c.c.b.8XpXlXlXdXuX8X1X4XyXfXfXiXyX4X3XV.m.v.c.c.c.c.c.c.",
"c.c.c.c.c.c.c.c.c.c.v.l.6 3 8 3 8 8 3 4 8 e e 0 8 l t.c.c.c.c.c.c.c.c.c.c.c.b.8XuXhXhXgXiXyXyXyXiXfXfXyX4XV.N.m.v.v.c.c.c.c.c.c.",
"c.c.c.c.c.c.c.c.c.n v j 4 g >.>.>.>.>.5.>.>.:.>.6.y ' t.y.y.p.c.c.c.c.c.c.c.v.V.tXgXgXgXfXiXuX2Xf.f.f.f.V.m.v.v.v.c.c.c.c.c.c.c.",
"c.c.c.v.v.v.v.v.s.6 5 y a *.7.5.5.5.5.>.5.7.5.5.q.:.f f f 5 v a.a.x.n.n.n.S.A.H.0XgXgXgXfXiXi.8 p a a l b.v.c.c.c.c.c.c.c.c.c.c.",
"c.c.v.b.m.N.B.d.6 5 s -.-.;.=.5 5 5 5 5 5 5 & & 7.0.0.0.0.g p p k k l l l l l x [ hXhXgXuXi.3 5 *.1.6.l n.v.c.c.c.c.c.c.c.c.c.c.",
"c.c.v.m.V.3X4XZ.3 :.1.-.s y | l.7X7X7X7X7Xf.' - & ;.1.<.<.1.7.7.5.5.5.5.5.5.:.d l [ i.[ ] 3 5 =.2.;.a 0 a.v.c.c.c.c.c.c.c.c.c.c.",
"c.c.v.B.3X6XiX2X8 :.7.g ..u.x [ i.;XfXfXfXfXuX' - y s s s ;.9.9.q.>.:.:.:.:.,.,.*.g d d g g :.9.=.a 8 ..x.c.c.c.c.c.c.c.c.c.c.c.",
"v.v.m.V.4XyXiX0Xr :.7.s z.f...a % [ iXiXiXiXiXiX] _ x 6 # a =.<.8.u e l 4 # *.7.5.=.=.1.1.9.7.7.&.G ..x.c.c.c.c.c.c.c.v.v.v.v.v.",
"V.V.V.1X3X4X4X1Xr *.7.-.u 5 u =.u { 4X4X4X4X5X6XuXuXuX;Xr @ a <.8.u k.NX:X5 5 p e 5 5 >.0.6.f p z.l.x.c.c.c.c.c.c.c.v.v.m.B.V.V.",
"4X4X4X3XV.V.V.Z.r & f 7.-.;.;.=.s ' V.V.V.V.V.4X6XiXgXjXl.4 t <.8.f >XcXbXrX<XrX<X%.7 f &.f e >X7XA.c.c.c.c.c.c.c.c.v.m.V.3X4X4X",
"iXiXyX3XV.m.v.v.t.6 & u u a u a y v v.v.v.v.m.V.c z ` z x o t <.8.u _ %.%.k.:X<XmXbX:X:X:X:X,XpX9XG.c.c.c.c.c.c.c.c.v.B.3XyXiXiX",
"iXiX6X3XN.v.c.c.c.y.v v v v ' v ' z.M.v.t.c c ' o X X X X + t <.8.u # 4 - O # %.,X,X,XMXMXnXvXaXpX8XG.J.M.M.M.M.M.M.N.V.4XiXfXfX",
"4X4X3XV.m.v.c.c.c.c.c.c.c.c.v.b.m.N.u.u.6 O @ @ X > 1 , , @ t <.8.u ; w 9 , - 4 - - 4 ,XxXvXlXdXaXpXqX9X8XH.V.V.V.V.1X4XyXfXfXfX",
"V.V.B.m.v.v.c.c.c.c.c.c.c.c.v.m.B.n.= @ @ @ @ # o D / ^ ^ 2 y <.8.f B / ) Q N - - 4 # 3 >XlXlXhXdXaXaXpXuXtX4X4X4X4X4XyXiXfXfXfX",
"M.M.v.v.v.c.c.c.c.c.c.c.c.c.n.j 6 7 ( = B ) @.T.g.^.[.R.V = t <.8.u ; B 3./ Q F F I F : l r x lXlXvXvXlXhXgXiXiXiXiXiXiXfXfXfXfX",
"c.c.c.v.v.v.v.v.v.c.c.c.c.p.j - N o.^.; ! ^.@X*X! !.^.! 3 o y <.8.t 5 a D D L.L.Q P.F ; - - 6 } >XvXcXlXhXgXfXfXfXfXfXfXfXfXiXiX",
"c.c.v.b.m.B.B.m.b.v.c.c.c.s.- Z X.OX*X: X.$X+XY.i +.+.; o $ s <.9.s d *.- - o.U.V ( = , 9 9 - 3 [ >XdXdXgXgXfXfXfXfXfXiXyXyX4X4X",
"c.c.v.N.V.3X3XV.m.v.c.c.x.y.- U.$X'.W.w ! {.~.@ U.#Xo.; X s ;.-.-.-.-.*.# # X.$XT.O - Q K.Q 7 7 3 _ >XuXjXfXfXfXfXfXfXyX4X1XV.V.",
"c.c.v.B.3XyXyX3XB.v.c.c.n @ ; T.$XY.@ Q K.I. X@ Q }. X^.w X $ $ $ $ $ $ : #./.E.).4 (.I.K.K.L./ D - j Z.tXiXfXfXfXfXiXyX1Xm.v.v.",
"c.c.v.B.3XyXyX3XB.v.x.z > : F , ; , W.^.].}.^.o D E.$XOXU.N o X X X o 7 @.L.Q X.Q.4 A U.E.^ , ) F - 6 6 f.iXfXfXfXiXyX3XB.v.c.c.",
"c.c.v.m.V.3X3XV.m.v.x.j 2 F / @.o.X.+X+X#X#X@X! B ( E.E.E.( H H H J P F U.D L j..XO.8 @.OXU.; ^ D : F 7 f.iXfXiXyX4X3XV.m.v.c.c.",
"c.c.v.v.m.N.N.m.v.c.t.< 2 e.P.@X+X#.$.X.o.o.@._.! B I I ) E.'.Y.U.T.( Q I V @.$X#X$X8 G +. .7 ) D 1 ) 7 ' f.fXyX3XV.N.m.v.v.c.c.",
"c.c.c.v.v.v.v.v.c.s.= = m e.U.~.j.o ; ; - - # +.~.! = ; @.OXg.3 - - # - A Y.+X(.T. XN A q 7 Z ) D 1 / S 9 i.iX4XV.m.v.v.v.c.c.c.",
"c.c.c.c.c.c.c.c.y.@ o D r.T.> = o @ (. X+XU.# # #.$X`.OXOX#X@X^. X X`.(.T.q 4 @ ; (.OX$X$XOX&X/ B 1 ^ K.B ] 0XtXH.v.c.c.c.c.c.c.",
"c.c.c.c.c.c.c.c.y.X X ! ( ! X.X.X.X.`.'.@X~.o.o X.OX{.OXOXOX#XOX&X#X{.W.J K X.H @ Z ~.%X$X&X%XK.D w R.I.B 8 ] 0XH.M.c.c.c.c.c.c.",
"c.c.c.c.c.c.c.p.c X   Z L Z ~.+X{.+X{.@XOX@XOX= V #.{.OX+X{.#X#X#X#XW.X.H T.+XT.Z - Z T.&X#X$XF 9 q _.}.) D _ wX8XA.c.c.c.c.c.c.",
"c.c.c.c.c.c.c.c X X = o N  X+X+X`.W.U.Q.~.OXOXq @ V ].+X+X+X#X#X#X#X~ N +X+X(.T.~.N O X.%X$X$X0 8  .'.#XE.( l k.7XA.c.c.c.c.c.c.",
"v.v.v.v.v.v.v.c + = O.9 N  X.X^.@.; ; = H `.+X^.q m 3.E.=X+XOX}.#XOX! q Q.OXR N OX^.7 X.OXOXQ.k L OX@XE.P.g.e l >XH.D.D.D.D.D.D.",
"V.V.V.V.V.V.V.c   X w R U. X+XL i #.#.9 Z +X@X`.V m / 3./.OX+XOX+X@X! - q g.K 9 +XOXq ! $X X7 4 G @X.XP.K.) A e >XwXqXqXqXqXqXqX",
"4X4X4X4X4X3Xs.6 * 2 Z +.&X@X+XN : +X`.@.K K +X`.#.V 2 1 1 q N N ) ^.W.X.- 7 7 q $X@X9 ! OX(.8 X.Q._.V ^ K.) G | >XkXsXsXsXsXsXsX",
"iXiXiXiXiX5X6   = D @.+.g.g.(.V -  X`.OXW.R OX`.+.J Z H H H H H B @.{.~.K J K X.@XOXq D ) Z 3 Y.T.L X.L Q L.( N | :XcXcXcXcXcXcX",
"iXiXiXiX6X2X6   X X O @ = ; Y.N @  XOX$X%XOXOXU.k A `.@XOXOX&X(.w Z @.U. X+X$X&X+Xg.Z F F = N Y.g.7 !.! D Q / k 8 k.cXcXcXcXcXcX",
"4X4X4X4X4XC.6 h E g.Y.j.O.; j.N = (.!. XXXW.Q.3 @ N _.~.W.W.(.~.N 3 ; 3 4.+X#XOXQ.: Q K.Q 4 (.@Xj.0 W.P.S 2 / k 3 [ aXaXaXaXaXaX",
"B.B.B.B.B.b.6 < F _.oXoX_.o.N B M w 1 9 7 ; 7 o L W.T.q 3 7 k Q.~.~.R @ 7 @.OXg.: ( R.{.+.@ ). Xj.0 ) e.D 1 Q k 8 ] 9X9X9X9X9X9X",
"M.M.M.M.M.d.< + q T._._.&X_.w D ) i 9 N Z q o k +.h.Z H J N - K ~.@XT.! K J K H K U.! K C O | T.j.0 ) r.D , ^ 9 3 ' D.G.G.G.G.G.",
"c.c.c.c.c.a.<         R &X[.1 K T. X`.@XOXh.O U.@Xo.@ @.'.g.7 = X.Q.OX@X_.X.q V .X@.w - w q 4 #.T.G ) ~ V , ( 9 3 ' c.c.c.c.c.c.",
"c.c.c.c.c.a.6 2 F R = o V _._.V 3 +X'.*X$X!.X @.+X@.@ #.@X&X!.: 4 R OXOX{.$X(.~.XX; 3 X.@XXX@ o.XX'.L.N 4 w ) 9 4 v c.c.c.c.c.c.",
"c.c.c.c.c.x.j m r.!.R : w '..XV =  X'.@X+XW.O @.OX`.Y.q ( |.@X Xq B P.#X{.$XX.O = g.XX@X#X X- 3 G XX.XV N U.R.N e ..c.c.c.c.c.c.",
"c.c.c.c.c.a.j m ) _.g.Z K '.@XV O $XoX&X].) # 7 X._.OXU.W.|.&X+X9 m P.#XXXX.7 = +.`.+X@X{.+Xe 3 4 q 7 - N ) | A t.c.c.c.c.c.c.c.",
"c.c.c.c.c.c.v.z N W.9 ~ '.[.Y.Z q O.o.O.( D X   7 ! OX@X'.@X`.X.; S }.`.K 8 7 ! +X+X@.@.@X*XO.e q X.! E Q ) A e y.c.c.c.c.c.c.c.",
"c.c.c.c.c.c.v.v q W._.XX+X!.w R +.  X = - o o @ + 3 h.#.o.@.o.3 : ~ @X!.: : L {.OXT.X.Z @.%X@XG C '.{.P.L.) q 8 s.v.c.c.c.c.c.c.",
"c.c.c.c.c.c.v.n 1 ) ].'.'.!.:       O.XXQ.!.XX(. .O X . o = ; ; Q E.%X!.8 X.%X@X$XA +.@.9 OX@X .N '.-XE.L.h.e l u.v.c.c.c.c.c.c.",
"c.c.c.c.c.c.c.b ; S h.~ L C o   X X.!.oX.X'.'.'.J = W Q Q ^ Q / E.#X#X!.3 R {.#X`.A O.@X_.%X&XJ 7 (.%X[.R.) | f.B.v.c.c.c.c.c.c.",
"c.c.c.c.c.c.c.b o o M 1 * q C > X XX_.o.Z H .XOXL X 1 W L.E.E.].OX#X%X`.q R OX@X@Xk X.@X&X&X&X| 3 q G A C G l d.N.v.c.c.c.c.c.c.",
"c.c.c.c.c.c.c.c.t.X X X 9 !._.N O XX_.K : 7 o.Q.+.q . Q R.@X'.&X%X#X%X~.8 9 ! %X&XN i o.oXX.X.X.X.! ~ ! ~ R l d.m.v.c.c.c.c.c.c.",
"c.c.c.c.c.c.c.c.y.@ o 1 E ~.r.2 * XX_.(.Y.g.> h.'.O.+ o.`..X^.~._.'.&X^.N - w ].].H 7 q Q.- e #._.L.h.r.r.( | d.b.v.c.c.c.c.c.c.",
"c.c.c.c.c.c.c.c.p.j - : S ) ^ 1 + V +.X.9 k O._.&Xg.o o..XY.7 7 7 ~ @X{.XX .: r.P.W.J 4 A 8 #.+XOXL.L k q e | p.v.c.c.c.c.c.c.c.",
"c.c.c.v.v.v.v.v.v.a.j @ < W ^ m < 2 H w * G XXoX+.9 X O.o.q = L X.H K .XOXR O 9 / ^.h.T ~ 8 ( E.U.S E ( R 0 s.x.v.c.c.c.c.c.c.c.",
"c.c.v.M.m.N.B.m.v.v.a.6 < T W ^ ^ r.2 1 G '.@Xg.C O 9 H q = C ~.@XX.q _.^.( 2 = Q /.P.^ F B ^ ( E P ) r.~ l d.m.v.v.c.c.c.c.c.c.",
"c.c.v.m.V.3X3XV.m.v.S.x @ : T h.!.].h.Q.Q.W.!.> * N U.w X N !..X!.K k _.P.e.Q = ^ L.L.^ - ^ / E k @.r.~ l ] Z.V.m.v.c.c.c.c.c.c.",
"c.c.v.B.3X6XyX3XB.v.A.l._ O < w Z _.w 7 : 7 7 o J h.^ < 2 ) '._.G ; k ^.L.e.T = ^ e.L.) 0 ^ e.F 7 ~ L l _ 5XyX3XN.v.c.c.c.c.c.c.",
"c.c.v.B.3X6XyXtX8XG.8XeX>X_ # o = L + > m m M ~ h.e.^ < 2 r.'..XC G W.P.K.e.Q = ^ / e.r.Q 2 D F 8 9 0 ..2XfXiX4XV.m.M.M.M.M.M.M.",
"c.c.v.m.V.3XtXtXtX9XeXsXxXrXr - + o o m ^ Y Y r.r./ W < : D U.].g.) R.e./ T 9 o W / / e./ : w B 7 3 ' f.iXfXfXyX4XV.V.V.V.V.V.V.",
"c.c.v.b.m.N.H.9XpXaXxXxXcXMXNXx * o o m W U Y ^ / ^ W h - < ^ E.].P.e.^ T k = , W / / / ( q 3 3 6 x u.4XyXfXfXiXyX5X4X4X4X4X4X4X",
"c.c.v.v.v.v.G.9XaXxXnXMXMXmXcX>X' o o * 2 W U U W W W W h 1 T W W W W M ; o = ~ T W W T 3 3 3 z p.n.b.V.4XiXfXfXfXiXiXiXiXiXiXiX",
"G.G.G.G.G.G.F.wXkXcXmXmXmXmXcXaX>Xz z O o 2 2 < < 2 ^ W U m > > : > > ; o < B : : < : 1 3 y.p.y.x.c.v.V.4XiXfXfXfXiXiXiXiXiXiXiX",
"9X9X9X9X9X9XwXaXxXnXmXmXmXmXcXaXwXG.c.j # X O o o ; M M M h o o O o + o o > B o * O o 6 z a.c.c.c.c.v.V.4XiXfXiXyXyXtXtXtXtXtXtX",
"aXaXaXaXaXaXsXxXcXMXmXmXmXmXcXaXwXG.c.c.c X o + o O + X X X o # o o O - # - - O - 3 3 6 c.c.c.c.c.c.v.V.4XiXfXyX4XV.V.V.V.V.V.V.",
"cXcXcXcXcXcXcXnXMXmXmXmXmXmXcXaXwXG.c.c.a.p.y.p.6 o o o X X o O o o O o o o O - p.x.x.x.c.c.c.c.c.c.v.V.4XiXiX4XV.m.M.M.M.M.M.M.",
"mXmXmXmXmXmXmXmXmXmXmXmXmXmXcXaXwXG.c.c.c.c.c.c.y.b b c b b b b b w.t.b w.t.t.t.x.c.c.c.c.c.c.c.c.c.v.V.4XiXiX4XB.v.c.c.c.c.c.c.",
"mXmXmXmXmXmXmXmXmXmXmXmXmXmXcXaXwXG.c.c.c.c.c.c.c.c.c.c.c.c.c.c.c.c.c.c.c.c.c.c.c.c.c.c.c.c.c.c.c.c.v.V.4XiXiX4XB.v.c.c.c.c.c.c."
};
