/* XPM */
static char *_f9502664a434316cf7aa5854ffed592qccnonu2VlN2mceQ[] = {
/* columns rows colors chars-per-pixel */
"64 64 245 2 ",
"   c #040404",
".  c #0A0A0A",
"X  c #090707",
"o  c #140A09",
"O  c #18150A",
"+  c #181514",
"@  c #0E0F12",
"#  c #251A19",
"$  c #2E1510",
"%  c #1A251C",
"&  c #292519",
"*  c #352C14",
"=  c #151B28",
"-  c #0D162A",
";  c #152839",
":  c #152A2B",
">  c #262627",
",  c #352B27",
"<  c #383825",
"1  c #242338",
"2  c #373839",
"3  c #2F3031",
"4  c #4E1013",
"5  c #731316",
"6  c #463E1A",
"7  c #4F2D1C",
"8  c #652B1C",
"9  c #7B3216",
"0  c #423626",
"q  c #503931",
"w  c #752D23",
"e  c #494215",
"r  c #56491C",
"t  c #5A531E",
"y  c #67571C",
"u  c #604E1B",
"i  c #766A1E",
"p  c #494737",
"a  c #594F32",
"s  c #6A4E2C",
"d  c #796926",
"f  c #776E37",
"g  c #716B2E",
"h  c #1B2949",
"j  c #193657",
"k  c #0F2A57",
"l  c #232949",
"z  c #29344B",
"x  c #232C57",
"c  c #2B364D",
"v  c #243769",
"b  c #293B72",
"n  c #102960",
"m  c #39464F",
"M  c #244568",
"N  c #294775",
"B  c #314D74",
"V  c #1E4168",
"C  c #4B4A48",
"Z  c #545447",
"A  c #57514B",
"S  c #726852",
"D  c #797877",
"F  c #6B6C6A",
"G  c #635D59",
"H  c #971618",
"J  c #80151B",
"K  c #A91215",
"L  c #91301B",
"P  c #B1311B",
"I  c #913226",
"U  c #AE3025",
"Y  c #A01E24",
"T  c #D51A1D",
"R  c #CF1819",
"E  c #D83516",
"W  c #C5281D",
"Q  c #E53313",
"!  c #E53814",
"~  c #E53011",
"^  c #D81D23",
"/  c #CE1F21",
"(  c #CE2F21",
")  c #97491D",
"_  c #AC521B",
"`  c #87721F",
"'  c #95572A",
"]  c #8C4C2B",
"[  c #A24E2D",
"{  c #866D25",
"}  c #8A7A25",
"|  c #966F27",
" . c #B0742D",
".. c #AC691E",
"X. c #AA5B52",
"o. c #85754A",
"O. c #92704C",
"+. c #877C63",
"@. c #A26253",
"#. c #988624",
"$. c #968A31",
"%. c #A48C29",
"&. c #AA9525",
"*. c #B39A29",
"=. c #B39D37",
"-. c #AF8F36",
";. c #B8A526",
":. c #B9A637",
">. c #C5892F",
",. c #C4AB28",
"<. c #C9B429",
"1. c #D4BB26",
"2. c #CAB633",
"3. c #CEB63B",
"4. c #E9B41C",
"5. c #DAC31F",
"6. c #FBDD0E",
"7. c #F6DD13",
"8. c #FBDE12",
"9. c #F5DC1B",
"0. c #FADD1B",
"q. c #F2D61B",
"w. c #E7CD1E",
"e. c #FBE013",
"r. c #F9E01B",
"t. c #F6E00E",
"y. c #DBC527",
"u. c #D7CA39",
"i. c #E5CB27",
"p. c #ECD326",
"a. c #F5DB23",
"s. c #F5D925",
"d. c #968E4E",
"f. c #AB954C",
"g. c #958666",
"h. c #9C9377",
"j. c #979467",
"k. c #A9997A",
"l. c #B49373",
"z. c #B0A874",
"x. c #CDB247",
"c. c #CDB574",
"v. c #D8D047",
"b. c #E2D775",
"n. c #2A3E81",
"m. c #2C4489",
"M. c #2E4995",
"N. c #314B9A",
"B. c #2E538E",
"V. c #33668F",
"C. c #3558AB",
"Z. c #3757B7",
"A. c #324DA3",
"S. c #336AAA",
"D. c #356CB2",
"F. c #3B5DC9",
"G. c #3A5BC4",
"H. c #3C64CE",
"J. c #3B68CA",
"K. c #3A79CB",
"L. c #3C67D0",
"P. c #3D6CD3",
"I. c #3D73D6",
"U. c #3D76D9",
"Y. c #3E7ADB",
"T. c #3A7CD1",
"R. c #416CCE",
"E. c #406DC4",
"W. c #4270CF",
"Q. c #4078CB",
"!. c #4374D1",
"~. c #447DD6",
"^. c #416FD0",
"/. c #596A85",
"(. c #519DAB",
"). c #3E81DF",
"_. c #3A88D0",
"`. c #3B8CD1",
"'. c #3E85E2",
"]. c #3F8BE6",
"[. c #3F8FE8",
"{. c #3F95E8",
"}. c #4888DA",
"|. c #4E92DC",
" X c #5094DB",
".X c #529ADD",
"XX c #4B8ACB",
"oX c #56A5D9",
"OX c #418DE6",
"+X c #408FE8",
"@X c #4095EB",
"#X c #419BEE",
"$X c #4798E5",
"%X c #419DF1",
"&X c #55A9E4",
"*X c #5DB5E5",
"=X c #5EBAE7",
"-X c #58B6EB",
";X c #41A4F5",
":X c #48ABF3",
">X c #52B9F3",
",X c #46A0ED",
"<X c #60BDE7",
"1X c #5DC8F3",
"2X c #5EC2EC",
"3X c #65CAEC",
"4X c #6CDCF2",
"5X c #66D4F2",
"6X c #6DE2F4",
"7X c #73EFF7",
"8X c #70E6F5",
"9X c #989897",
"0X c #918D8A",
"qX c #AA9E86",
"wX c #AE9390",
"eX c #B8AA8A",
"rX c #BAB193",
"tX c #AEA997",
"yX c #A7A6A5",
"uX c #B8B8B7",
"iX c #B2AFA9",
"pX c #8A96A7",
"aX c #CCBA8D",
"sX c #C5B3A8",
"dX c #BFC0BE",
"fX c #DAC798",
"gX c #D4C48C",
"hX c #EDD494",
"jX c #FDE39E",
"kX c #EAE396",
"lX c #D0C7B5",
"zX c #EDDBAB",
"xX c #FDE3A3",
"cX c #F8E6A9",
"vX c #F6E5B5",
"bX c #C6C5C5",
"nX c #D9D8D7",
"mX c #D9D1C7",
"MX c #F3E9CB",
"NX c #E9E9E8",
"BX c #F5F5F4",
"VX c #FDFDFD",
"CX c #F9F9F7",
"ZX c #F6F0E9",
"AX c #E0DCDB",
/* pixels */
"F.F.F.F.F.F.F.F.F.F.W. X=X4X7X7X7X7X6X=X XW.F.F.F.F.F.F.F.F.F.F.F.F.F.F.F.F.R. X*X4X4X=X XR.L.Y.].%X;X;X;X;X%X].U.H.F.F.F.F.F.F.",
"F.F.F.F.F.F.F.F.F.F.W. X=X4X7X7X7X7X6X=X XW.F.F.F.F.F.F.F.F.F.F.F.F.F.F.F.F.R. X*X4X4X=X XR.L.Y.].%X;X;X;X;X%X].U.H.F.F.F.F.F.F.",
"F.F.F.F.F.F.F.F.F.F.R.|.&X3X4X4X6X6X5X=X|.!.H.H.H.F.F.F.F.F.F.F.F.F.F.F.F.F.R.|.*X5X5X-X|.!.I.).].%X;X;X;X%X@X'.I.H.F.F.F.F.F.F.",
"F.F.F.F.F.F.F.F.F.F.R.~. X&X=X2X1X1X1X-X$X}.U.P.L.H.F.F.G.m.b n.M.N.Z.G.F.F.L.}.&X1X1X-X$X}.).].@X;X;X%X@X].'.Y.P.H.F.F.F.F.F.F.",
"F.F.F.F.F.F.F.F.F.F.H.W.~.}.|.&X&X>X>X:X,X@X'.Y.P.H.F.F.m.} <.;.%.} y 6 > l v S.|.>X>X:X,X@X@X@X%X;X;X@X].Y.I.P.H.H.F.F.F.F.F.F.",
"F.F.F.F.F.F.F.F.F.F.H.H.R.R.~.}.$X:X:X:X;X%X@X'.I.H.F.Z.p i.7.7.7.7.0.a.p.2.i * % B `.;X;X;X%X;X;X;X%X[.Y.P.H.H.H.F.F.F.F.F.F.F.",
"F.F.F.H.H.H.H.H.H.H.H.H.H.H.I.).OX%X;X;X;X;X%X].Y.P.J.v &.7.8.8.6.8.8.8.8.7.9.p.,.i < M _.#X%X%X%X%X@X'.U.H.F.F.F.F.F.F.F.F.F.F.",
"F.F.H.L.P.I.U.U.U.U.U.U.U.Y.Y.].@X%X;X;X;X;X;X@XOXY.M d 7.6.8.e.8.8.8.8.8.8.8.8.0.0.y.#.< M K.].].].'.Y.P.H.F.F.F.F.F.F.F.F.F.F.",
"F.F.H.P.Y.'.].].].].].].].].].@X#X;X;X;X;X;X;X#X@XS.t 5.6.8.e.e.8.8.8.8.8.8.8.8.8.8.8.7.i.} 3 B.I.Y.U.P.L.H.F.F.F.F.F.F.F.F.F.F.",
"F.F.H.U.OX@X%X%X%X%X%X%X%X%X%X;X;X;X;X;X;X;X;X;X{.3 y.7.6.8.e.e.8.8.8.8.8.8.8.8.8.8.8.8.8.0.<.e z Z.H.H.H.F.F.F.F.F.F.F.F.F.F.F.",
"H.H.P.Y.].@X%X%X%X%X%X%X%X%X%X%X%X%X%X%X%X%X%X;XM #.0.8.8.8.e.8.8.8.8.8.8.8.8.8.8.8.8.8.8.8.7.i.#.3 A.F.F.F.F.F.F.F.F.H.H.H.H.H.",
"Y.Y.Y.).'.].].].].].].].OXOXOXOX].].].].].].[.S.t a.e.e.e.e.e.e.8.8.8.8.8.8.8.8.8.8.8.8.8.8.8.8.9.;.c G.F.F.F.F.F.F.H.H.P.U.Y.Y.",
"].].].'.Y.Y.Y.Y.Y.Y.Y.Y.Y.Y.U.U.Y.Y.Y.Y.Y.Y.K.3 u.a.9.a.a.r.r.e.e.8.8.8.8.8.8.8.8.8.8.8.8.8.8.8.8.p.A G.F.F.F.F.F.F.H.P.Y.'.].].",
"%X%X@X'.Y.P.H.H.H.H.H.H.L.L.H.H.H.H.H.H.H.H.j < g f S o.d.d.d.=.<.y.q.8.e.7.0.8.8.8.8.8.8.8.8.8.8.<.B F.F.F.F.F.F.F.H.U.'.@X%X%X",
"%X%X{.Y.C.m.v x l l x v n.A.Z.H.H.H.L.H.H.M.3 yXnXNXBXCXCXBXNXnXbXrXj.f.2.i.0.8.8.8.8.8.e.8.8.e.7.#.C.^.P.L.L.L.L.L.I.Y.].%X;X;X",
"].].D.1 * 8 w ] ' ' ' ] s 7 0 z N C.I.I.J.- 9XbXuXuXbXmXBXVXVXVXVXVXCXNXlXtXf.<.q.7.8.8.e.e.e.e.9.g XX|.}.Y.Y.Y.Y.Y.).].@X;X;X;X",
"Y.I.= 8 [ [ ] ] ] ' | |  . .-.| y , M D.N.@ 9XuXnXNXCXVXVXVXVXVXVXVXVXVXVXVXNXtXf.y.0.8.8.8.8.e.i.Z &X&X$XOX].].].].].@X#X;X;X;X",
"L.b 8 8 y &.y.s.a.a.s.s.i.,.#.{ { f.-.r O > 0XwXwXwXwXsXmXZXVXVXVXVXVXVXVXVXVXVXCXlXf.<.0.0.8.e.;.(.5X2X>X:X%X%X%X%X%X%X;X;X;X;X",
"F.h $ :.0.8.e.e.8.8.8.8.8.e.7.9.i.&.{ } f.d 7 L ( ( ( ( P U X.wXAXVXVXVXVXVXVXVXVXVXVXmXj.:.a.a.$.(.4X1X>X:X;X;X;X;X;X;X;X;X%X%X",
"F.n.r a.e.8.e.e.8.8.8.8.0.r.7.7.8.7.9.y.#.{ =.=.] P E Q ~ ~ Q E P X.sXZXVXVXbX9XiXNXVXVXVXnXj.f.Z oX=X-X:X:X;X;X;X;X;X%X@X@X].].",
"F.F.x $.0.e.e.8.8.8.8.w.,.=.%.#.*.i.9.7.7.s.&.d =.2.' L E Q ~ Q Q Q E U l.lXCXCXnX0XF uXCXVXVX9Xm |.|.$X,X;X;X;X;X;X;X@X].).Y.Y.",
"F.F.H.z #.0.e.e.8.8.e.0.7.7.0.p.<.{ y *.s.7.7.s.;.{ =.3. .P E Q ~ Q Q Q E ( X.lXCXVXCXyXF yXCX0XB R.!.}.+X%X;X;X;X;X%X@X).P.H.H.",
"F.F.H.I.v u y.e.8.8.e.e.8.8.8.8.8.0.i.i 6 &.s.9.7.9.,.} %.3. .P E Q ~ Q Q Q Q ( X.mXVXVXVXbXD 2 N.F.H.Y.].%X;X;X;X%X@X'.U.H.F.F.",
"F.F.H.P.Y.C.3 &.a.8.8.8.8.8.8.8.8.8.8.7.u.e * ;.9.8.8.7.1.} -.x. .P E Q Q ~ Q ! ! P @.nXVXVXNXh Z.F.L.Y.].%X;X#X@X].'.Y.P.H.F.F.",
"F.F.H.H.P.I.J.x y 1.0.8.8.8.8.8.8.e.9.;.*       e ,.7.8.8.9.y.#.%.x. .P E E Q ! ! ! E I wXCXiXb F.F.H.Y.].%X;X@X'.Y.I.P.H.H.F.F.",
"F.F.F.H.H.H.H.H.M.> d y.7.8.8.8.0.<.e X           . t ;.9.8.6.9.p.;.1.i.>...) ) L L L L I G C C.F.F.H.Y.].%X%X].Y.P.H.H.H.F.F.F.",
"F.F.F.F.F.F.F.F.F.G.b > y <.s.1.{ r d *         o S   . y y.7.8.6.6.8.6.6.8.7.0.a.p.i.1.,.&.} d a 2 c N S.$X:XOX~.H.F.F.F.F.F.F.",
"F.F.F.F.F.F.F.F.F.F.G.N.x < y r s =.:.O         A qX    , aX3.q.8.6.6.6.6.6.6.6.8.8.7.7.0.0.a.p.i.1.;.} a m B D.Q.L.F.F.F.F.F.F.",
"F.F.F.F.F.F.F.F.F.F.F.F.G.A.v ; = > #       @ C aXfXX   A BXlXd.<.9.6.6.6.6.6.6.8.8.8.8.8.8.8.8.8.e.e.9.q.y.;.i p N C.F.F.F.F.F.",
"F.F.F.F.F.F.F.F.F.F.F.F.F.F.H.I.T.D..       S g.jXxX&   D VXVXNXF i y.7.6.6.6.6.8.8.8.8.8.8.8.8.8.8.8.8.8.8.7.9.y.&.a M G.F.F.F.",
"H.H.H.H.H.H.H.H.L.H.H.H.H.H.I.).].B.X X   2 k.k.jXjXa X yXVXVXVXNXC * } 1.q.7.6.6.6.8.8.8.8.8.8.8.8.8.8.8.8.e.e.8.9.p.$.N W.W.W.",
"Y.Y.Y.Y.Y.Y.Y.Y.Y.Y.Y.Y.Y.Y.).].{.; N j X iXrXk.xXjXg.# dXuX0XuXNX9X. X O e #.1.q.8.8.6.8.8.6.8.8.8.8.8.8.e.e.e.8.8.9.y B  X X X",
"].].].].].].].].].].].].].].[.@X#XN ;XB.X bXtXeXxXxXfXZ 0XyXbXyXD lXA   X X X O e ` ;.w.9.0.8.8.8.8.8.8.8.8.8.8.8.9.} > oX=X=X=X",
"%X%X%X%X%X%X%X%X%X%X%X%X%X%X%X;X;X{.%XV X bXC qXcXxXcXrXnXNXF D mXzXeX. + 3     + & O * d #.&.,.1.w.7.8.7.6.e.e.0.&.% (.4X4X4X4X",
"%X%X%X%X%X%X%X%X%X%X%X%X%X%X%X;X;X;X;XM M F + D vXxXxXMXVXnX> + lXvXzX, A iX  Z rXaXqXo f 2.1.1.,.&.%.;.5.9.e.e.1.< (.4X4X4X4X4X",
"].].].].].].].].].].].].].].].@X#X;X;XD.T.> 9XAXMXxXxXvXCXBXF C mXcXcXS h.lX# lXgXc.zX+ 6 y.8.8.6.7.w.<.%.#.;.y.t V.*X*X*X*X*X*X",
"U.U.U.U.U.U.U.U.U.U.U.U.U.U.Y.].@X%X;X#X@XM C bXaXxXxXcXZXVXBXnXyXgXjXk.fXlXS eXfXgXfXX * <.0.6.6.6.8.0.s.2.f 0 B XX|.|.|.|.|.|.",
"L.L.L.L.L.L.L.L.L.L.L.L.L.L.I.'.].%X;X;X%X_.@ h.hXjXxXxXMXNXuX9XyXfXkXhXcXvXk.fXaXcX+.    * 2.a.a.p.y.;.} u 3 v E.!.!.!.!.!.!.!.",
"F.F.F.F.F.F.F.H.H.H.H.H.H.F.L.Y.'.@X;X;X;X;X= vXcXcXfXeXtXiXnXuXiXyXz.cXcXcXkXgXcXh..       o & & % z B V.Z.F.F.F.F.F.F.F.F.F.F.",
"F.F.F.F.F.F.H.H.P.I.I.P.H.H.H.I.Y.'.+X{.{.;X; S tXiXbXnXuXyXuXNXCXuXqXk.g.+.S Z & X     X X X + V.=X*X.X}.R.F.F.F.F.F.F.F.F.F.F.",
"F.F.F.F.F.F.H.P.Y.'.'.Y.P.H.H.L.P.U.Y.].@X;X{.; D uXbXnXBXCXmXuX9XG w w $ o X X X X X X X X X . @ B |.}.!.H.F.F.F.F.F.F.F.F.F.F.",
"F.F.F.F.F.F.H.I.'.@X@X'.U.H.F.H.H.H.P.Y.].%X;X{.B.c m C A 2 2 p 8 U ^ W J o X X X X X X = ; ; - . . B.R.H.F.F.F.F.F.F.F.F.F.F.F.",
"F.F.F.F.F.F.H.I.'.@X@X'.U.H.F.F.F.F.H.Y.].%X;X;X;X;X;X{.V.0 x.>.[ J H Y $ X X X     X   - Z.F.F.Z.v m.H.H.H.H.H.H.F.F.F.F.F.F.F.",
"F.F.F.F.F.F.H.P.Y.'.'.Y.P.H.F.F.F.F.H.Y.].%X;X;X;X;X;X`.1 O.f.x.f.I J 4 o X X - h   V.j   h F.F.F.F.H.H.P.U.U.P.H.H.F.F.F.F.F.F.",
"F.F.F.F.F.F.H.H.P.U.U.P.H.H.F.F.F.F.H.Y.OX%X;X;X;X;X;XV., +.hXO.P ^ ^ Y $ @ z S.{.N _.].B.. Z.F.F.F.H.P.Y.'.'.Y.P.H.F.F.F.F.F.F.",
"F.F.F.F.F.F.F.H.H.H.H.H.H.F.F.F.F.F.H.Y.].%X;X;X;X;X`.m a cXc.U ^ T H 4 4 + J.Y.].#X#X].U.v N.F.F.F.H.U.'.@X@X'.U.H.F.F.F.F.F.F.",
"F.F.F.F.F.F.F.F.F.F.F.F.F.F.F.H.H.H.P.Y.[.%X;X;X;X%XB.> S cX@./ ^ T K Y Y 4 M.I.'.{.@X].Y.P.J.H.H.F.H.I.'.@X@X'.I.H.F.F.F.F.F.F.",
"F.F.F.F.F.F.F.F.F.F.F.F.F.F.H.L.P.U.).].@X;X;X#X@X].z + g.kXI ^ T T K H 5 4 l P.Y.'.'.'.Y.Y.U.P.L.H.H.P.Y.'.'.Y.P.H.F.F.F.F.F.F.",
"F.F.F.F.F.F.F.F.F.F.F.F.F.F.H.P.U.'.].@X#X;X;X@X].K.q # j.b.] / T R K 5 5 5 # J.P.U.Y.).'.'.'.U.P.H.H.L.I.U.U.P.L.H.F.F.F.F.F.F.",
"F.F.F.F.F.F.F.F.F.F.F.F.F.F.H.U.'.{.%X%X;X;X%X[.).B , . z.x.*.P T R H $ # O + b H.H.P.Y.].@X{.'.U.H.F.H.H.H.H.H.H.F.F.F.F.F.F.F.",
"F.F.F.H.H.H.H.H.H.F.F.H.R.R.!.}.OX%X;X;X;X%X@X'.J., o . j.2.3.I / / w eXaXaXh.1 H.F.H.U.'.@X@X'.Y.P.H.H.H.H.H.H.H.F.F.F.F.F.F.F.",
"F.F.H.L.P.I.U.P.H.H.H.W.~.|.|.$X#X;X;X%X@X[.'.Y.C.@ X p d.f.f.O.] ] l.xXxXxXaXc H.H.H.P.Y.'.].'.).Y.Y.Y.Y.Y.U.P.H.H.F.F.F.F.F.F.",
"F.F.H.P.Y.'.'.Y.P.H.R.}. X&X-X-X:X:X;X@X].Y.U.P.H.= & f.v.u.v.v.c.hXxXxXxXfXm J.P.H.H.L.P.U.Y.).'.].].].].].'.Y.P.H.F.F.F.F.F.F.",
"F.F.H.U.'.{.@X'.U.H.R.|.&X3X5X1X>X:X%X[.Y.P.H.H.H.x + < g f f f o.gXjXjXhXS j '.U.H.F.H.H.H.P.Y.'.@X%X%X%X%X@X'.I.H.F.F.F.F.F.F.",
"F.F.H.U.'.{.@XOX}.!.}.oX3X6X6X1X>X:X@X'.U.H.F.H.H.h - k k l c 2 l.hXhXhXj.> : '.U.H.F.F.F.F.L.U.'.{.%X;X;X;X%X].Y.P.L.L.L.L.L.L.",
"F.F.H.P.Y.'.OXOX|.|.oX=X3X6X6X1X-X$X'.Y.P.H.H.L.I.B.2 B v n k - p c.hXc.d.% : Y.P.H.F.F.F.F.H.I.Y.'.].@X#X;X;X@X].Y.Y.Y.Y.Y.Y.Y.",
"F.F.H.L.P.I.~.|.&X*X3X3X4X8X4X=X&X}.U.P.H.H.H.I.Y.C.bXNXbXpX/.M j m g.g.p : ; P.H.H.F.F.F.F.H.L.P.I.Y.].@X;X;X%X@X[.].].].].].].",
"F.F.H.H.H.H.!.|.*X3X6X8X8X7X4X=X.X~.H.H.H.F.H.U.'._.G D 0X0X0XD h j j ; : : M.H.H.F.F.F.F.F.F.H.H.H.P.Y.].%X;X;X;X%X%X%X%X%X%X%X",
"!.!.!.!.!.!.~..X=X4X7X7X7X7X4X*X.X!.F.F.F.F.H.U.'.@XD.z o $ $ + + G q # h M.F.F.F.F.F.F.F.F.F.F.F.F.H.Y.].%X;X;X;X%X%X%X%X%X%X%X",
"|.|.|.|.|.|..X*X3X6X7X7X7X7X4X*X.X!.F.F.F.F.H.I.Y.T.).B $ 9 ) A mXlXsXq m.F.F.F.F.F.F.F.F.F.F.F.F.F.H.Y.].%X;X%X@X@XOXOXOXOXOXOX",
"*X*X*X*X*X*X=X3X4X8X7X7X7X7X4X*X.X!.F.F.F.F.H.L.M.* * 9 _ ) _ q qXg.g.0 m.F.F.F.F.F.F.F.F.F.F.F.F.F.H.Y.].%X;X@X].Y.Y.Y.Y.Y.Y.Y.",
"4X4X4X4X4X4X4X6X8X7X7X7X7X7X4X*X.X!.F.F.F.F.F.H.x %.4.4.4.) L # g.O.O.* N.F.F.F.F.F.F.F.F.F.F.F.F.F.H.Y.].%X%X].Y.P.L.L.L.L.L.L.",
"7X7X7X7X7X7X7X7X7X7X7X7X7X7X4X*X.X!.F.F.F.F.F.F.C.l p a a > 1 x q o.a 2 Z.F.F.F.F.F.F.F.F.F.F.F.F.F.H.Y.].%X%X].U.H.F.F.F.F.F.F.",
"7X7X7X7X7X7X7X7X7X7X7X7X7X7X4X*X.X!.F.F.F.F.F.F.F.F.F.F.F.F.F.F.Z.m.N.G.F.F.F.F.F.F.F.F.F.F.F.F.F.F.H.Y.].%X%X].U.H.F.F.F.F.F.F."
};
