/* XPM */
static char *_d38e3dcf292492ad213522c3844a154i6yxrZ8LK4fergB6[] = {
/* columns rows colors chars-per-pixel */
"64 64 244 2 ",
"   c #040404",
".  c #0A0A0A",
"X  c #090706",
"o  c #150B0A",
"O  c #181615",
"+  c #121212",
"@  c #251B17",
"#  c #311610",
"$  c #28251A",
"%  c #372916",
"&  c #3B3718",
"*  c #2E270F",
"=  c #131B29",
"-  c #101A34",
";  c #2A1D23",
":  c #172838",
">  c #15282D",
",  c #252624",
"<  c #2E3228",
"1  c #282639",
"2  c #383A39",
"3  c #373029",
"4  c #0F251E",
"5  c #501114",
"6  c #731315",
"7  c #47391B",
"8  c #672A1D",
"9  c #7A3218",
"0  c #4C382E",
"q  c #7A3223",
"w  c #3C4034",
"e  c #574B1D",
"r  c #51481A",
"t  c #66571E",
"y  c #4A4737",
"u  c #564D2E",
"i  c #6A4E2B",
"p  c #786923",
"a  c #756D2F",
"s  c #72681E",
"d  c #192A47",
"f  c #1D2D59",
"g  c #193458",
"h  c #142C52",
"j  c #233348",
"k  c #273956",
"l  c #2A2E4D",
"z  c #263767",
"x  c #293C76",
"c  c #173371",
"v  c #264458",
"b  c #334A4D",
"n  c #23466A",
"m  c #2C4B72",
"M  c #2A546E",
"N  c #4A4947",
"B  c #554E43",
"V  c #575447",
"C  c #555556",
"Z  c #6A5A55",
"A  c #736A51",
"S  c #787877",
"D  c #6B6C6A",
"F  c #911518",
"G  c #A71418",
"H  c #912F1C",
"J  c #B2331C",
"K  c #923126",
"L  c #AE2A24",
"P  c #A11E24",
"I  c #D71B1D",
"U  c #CF181A",
"Y  c #D83418",
"T  c #C72D1D",
"R  c #E43312",
"E  c #E83412",
"W  c #E72F11",
"Q  c #D51D23",
"!  c #CD2822",
"~  c #96461C",
"^  c #975728",
"/  c #8D4C29",
"(  c #A94E29",
")  c #856D26",
"_  c #8A7B25",
"`  c #966F27",
"'  c #AF722B",
"]  c #A44816",
"[  c #A95B52",
"{  c #8C724C",
"}  c #877C64",
"|  c #A26253",
" . c #988625",
".. c #9E9135",
"X. c #A38B28",
"o. c #AA9626",
"O. c #B19D37",
"+. c #AF9430",
"@. c #B9A528",
"#. c #B5A437",
"$. c #BEAB1F",
"%. c #D0BB1F",
"&. c #E9B41A",
"*. c #C5892F",
"=. c #C3AB27",
"-. c #C9B429",
";. c #D4BB27",
":. c #CAB634",
">. c #CDB539",
",. c #DAC61D",
"<. c #FBDE0E",
"1. c #F7DD0F",
"2. c #F6DD15",
"3. c #FBDE12",
"4. c #F4DC1B",
"5. c #F9DD1B",
"6. c #F2D61A",
"7. c #E7CE1D",
"8. c #FAE00E",
"9. c #FBE013",
"0. c #FAE019",
"q. c #DBC526",
"w. c #D6C838",
"e. c #E5CB26",
"r. c #EDD326",
"t. c #F5DB22",
"y. c #F5DA23",
"u. c #958C4E",
"i. c #A69B4A",
"p. c #AE904F",
"a. c #958665",
"s. c #9C976A",
"d. c #958F70",
"f. c #AE9475",
"g. c #B0A563",
"h. c #CBAD4A",
"j. c #CDB573",
"k. c #D8D044",
"l. c #E2D774",
"z. c #2B3F84",
"x. c #2B4587",
"c. c #2D4994",
"v. c #324B99",
"b. c #2C558D",
"n. c #326595",
"m. c #3453A8",
"M. c #3758B8",
"N. c #334EA6",
"B. c #3679BB",
"V. c #336EAC",
"C. c #4E6FA1",
"Z. c #3B5DC9",
"A. c #3A5BC5",
"S. c #3C64CD",
"D. c #3C69CF",
"F. c #3A67C4",
"G. c #3C67D0",
"H. c #3D6DD3",
"J. c #3D73D6",
"K. c #3D76D9",
"L. c #3E7ADB",
"P. c #3D7BD7",
"I. c #3A75CC",
"U. c #416CCE",
"Y. c #4270CF",
"T. c #4373D1",
"R. c #457DD6",
"E. c #488C9D",
"W. c #4FA3B7",
"Q. c #4894A3",
"!. c #3E82DE",
"~. c #3B89D6",
"^. c #3A89CC",
"/. c #3E85E2",
"(. c #3F8BE6",
"). c #3F8FE8",
"_. c #3F96E9",
"`. c #3FA1EE",
"'. c #4887DA",
"]. c #4F92DB",
"[. c #4F96DB",
"{. c #5095DB",
"}. c #539BDD",
"|. c #56A2DF",
" X c #418DE6",
".X c #4095EB",
"XX c #469AE8",
"oX c #419DF1",
"OX c #46A0EC",
"+X c #55A8E4",
"@X c #5DB5E5",
"#X c #5EBAE7",
"$X c #58B5EB",
"%X c #41A3F4",
"&X c #48ABF3",
"*X c #52B8F3",
"=X c #4DB4F1",
"-X c #60BCE7",
";X c #61BEE8",
":X c #5CC7F3",
">X c #5EC8EE",
",X c #66CDED",
"<X c #62C2E9",
"1X c #65D4F3",
"2X c #6CDCF2",
"3X c #67DCF7",
"4X c #66D2EF",
"5X c #6EE2F4",
"6X c #6FE8F7",
"7X c #72EEF7",
"8X c #70E6F5",
"9X c #63CBD8",
"0X c #999998",
"qX c #918D8A",
"wX c #AB9E84",
"eX c #B0928F",
"rX c #BAB193",
"tX c #B3A990",
"yX c #A7A6A5",
"uX c #B8B8B8",
"iX c #B1AFA9",
"pX c #8C96A7",
"aX c #CCB98E",
"sX c #C5B3A7",
"dX c #D6C492",
"fX c #EDD494",
"gX c #FDE39E",
"hX c #E9E393",
"jX c #C9C6BA",
"kX c #D8CAB0",
"lX c #ECDBAC",
"zX c #FDE3A4",
"xX c #F8E5A9",
"cX c #F8E9B0",
"vX c #C6C5C5",
"bX c #D9D8D7",
"nX c #D7CFC7",
"mX c #F0E7CB",
"MX c #E8E9E7",
"NX c #F5F5F4",
"BX c #FDFDFD",
"VX c #FAF9F7",
"CX c #F5F0EA",
"ZX c #E2D8D5",
/* pixels */
"Z.Z.Z.Z.Z.Z.Z.Z.Z.Z.Y.{.#X2X7X7X7X7X5X#X{.Y.Z.Z.Z.Z.Z.Z.Z.Z.Z.Z.Z.Z.Z.Z.Z.Z.U.{.@X2X2X#X{.U.G.L.(.oX%X%X%X%XoX(.K.S.Z.Z.Z.Z.Z.Z.",
"Z.Z.Z.Z.Z.Z.Z.Z.Z.Z.Y.{.#X2X7X7X7X7X5X#X{.Y.Z.Z.Z.Z.Z.Z.Z.Z.Z.Z.Z.Z.Z.Z.Z.Z.U.{.@X2X2X#X{.U.G.L.(.oX%X%X%X%XoX(.K.S.Z.Z.Z.Z.Z.Z.",
"Z.Z.Z.Z.Z.Z.Z.Z.Z.Z.U.].+X,X2X2X5X5X1X#X[.R.S.S.S.Z.Z.Z.Z.Z.Z.Z.Z.Z.Z.Z.Z.Z.U.].@X1X1X$X[.T.J.!.(.oX%X%X%XoX.X/.J.S.Z.Z.Z.Z.Z.Z.",
"Z.Z.Z.Z.Z.Z.Z.Z.Z.Z.U.R.{.+X#X<X>X:X:X$XXX'.L.H.S.S.Z.Z.M.m.v.x.x z x.A.Z.Z.D.'.+X:X:X$XXX'.!.(..X%X%XoX.X)./.L.H.S.Z.Z.Z.Z.Z.Z.",
"Z.Z.Z.Z.Z.Z.Z.Z.Z.Z.S.Y.R.'.[.+X+X*X*X&XOX.X/.I.c.f : , 7 t _ X.@.;._ x Z.Z.D.'.XX=X*X&XOX.X.X.XoX%X%X.X(.L.J.H.S.S.Z.Z.Z.Z.Z.Z.",
"Z.Z.Z.Z.Z.Z.Z.Z.Z.Z.S.S.U.U.R.'.XX&X&X&XOX^.n O & p :.r.4.2.3.3.3.3.e.y m.Z.S.R. X&X&X%X%XoXoX%X%X%XoX).L.H.S.S.S.Z.Z.Z.Z.Z.Z.Z.",
"Z.Z.Z.S.S.S.S.S.S.S.S.S.S.S.J.!. XoX%XB.v < s =.7.5.3.3.3.3.3.3.3.3.3.o.k F.T.'.XX&X&X%X%X%XoXoXoXoX.X/.K.S.Z.Z.Z.Z.Z.Z.Z.Z.Z.Z.",
"Z.Z.S.D.H.J.K.K.K.K.K.K.K.L.L.(..X~.n &  .e.5.3.3.3.3.3.3.3.3.3.9.9.<.6.p v [.+X=X*X*X&XXX.X(. X(.(./.L.H.S.Z.Z.Z.Z.Z.Z.Z.Z.Z.Z.",
"Z.Z.S.H.L./.(.(.(.(.(.(.(.(.(.~.n.< _ q.3.3.3.3.3.3.3.3.3.3.3.3.9.9.3.<.,.t E.<X>X1X:X$XXX'.L.L.L.L.K.H.G.S.Z.Z.Z.Z.Z.Z.Z.Z.Z.Z.",
"Z.Z.S.K./._.oXoXoXoXoXoXoXoX^.v r -.5.3.3.3.3.3.3.3.3.3.3.3.3.3.3.9.3.<.3.q.< 9X5X5X1X$X[.T.G.G.G.G.S.S.S.Z.Z.Z.Z.Z.Z.Z.Z.Z.Z.Z.",
"S.S.H.L.(..XoXoXoXoXoXoXoXB.2  .e.3.3.3.3.3.3.3.3.9.3.3.3.3.3.3.3.9.3.3.3.5. .b 8X7X5X;X}.R.U.U.S.S.Z.Z.Z.Z.Z.Z.Z.Z.Z.S.S.S.S.S.",
"L.L.L.!./.(.(.(.(.(.(.(.~.b @.2.3.3.3.3.3.3.3.3.3.3.9.3.3.3.3.3.9.9.9.9.9.9.t.r Q.7X5X,X@X}.].R.T.S.Z.Z.Z.Z.Z.Z.Z.Z.S.S.H.K.L.L.",
"(.(.(./.L.L.L.L.L.L.L.L.J.V r.3.3.3.3.3.3.3.3.3.3.3.3.3.3.3.3.9.9.0.0.4.4.4.t.w.< 9X8X2X,X<X@X{.'.U.Z.Z.Z.Z.Z.Z.Z.Z.S.H.L./.(.(.",
"oXoX.X/.L.H.S.S.S.S.S.S.S.m -.3.3.3.3.3.3.3.3.3.3.3.3.9.3.6.q.-.O.u.u.u.{ A a a & b 8X8X8X5X,X+X].T.Z.Z.Z.Z.Z.Z.Z.Z.S.K./..XoXoX",
"oXoX_./.J.S.Z.Z.Z.Z.Z.Z.Z.c. .9.3.3.3.3.3.3.3.3.3.5.e.-.i.s.rXvXbXMXNXNXNXNXMXbXyX< W.8X6X6X1X@X}.B.m.x.z f d d f z x.V.!.oX%X%X",
"(.(./.L.H.S.Z.Z.Z.Z.Z.Z.Z.M.u 4.9.3.3.3.3.3.3.r.-.i.tXjXMXVXBXBXBXBXBXNXbXvXuXuXvX0X> 4X3X>XW.M b 0 7 i / ^ ^ ^ / q 8 % 1 B.%X%X",
"L.L.K.H.S.S.Z.Z.Z.Z.Z.Z.Z.A.N e.3.3.3.3.3.5.q.i.tXMXBXBXBXBXBXBXBXBXBXBXVXNXMXbXvX0X+ Q.W.M < t ` +.' ' ` ` ^ / / / ( ( 8 = _.%X",
"G.G.S.S.S.Z.Z.Z.Z.Z.Z.Z.Z.Z.m @.0.9.9.5.-.s.jXBXBXBXBXBXBXBXBXBXBXBXCXnXsXeXeXeXeXqX, + e +.p.) )  .=.e.t.t.5.t.y.q.o.t 8 8 n %X",
"Z.Z.Z.S.S.S.S.S.S.Z.Z.Z.Z.Z.v._ t.t.@.s.nXBXBXBXBXBXBXBXBXBXBXZXeX[ L J T Y Y T H 7 a #._ ) o.e.4.3.3.3.3.3.3.3.3.3.3.0.@.@ : oX",
"Z.Z.S.D.H.K.K.H.D.S.Z.Z.Z.Z.M.y i.d.bXBXBXBXMXiX0XvXBXBXCXsX[ J Y R W W R Y L / O.O.)  .q.4.3.<.<.3.9.9.3.3.3.3.9.9.9.9.t.e m (.",
"Z.Z.S.J.L././.L.H.S.Z.Z.Z.Z.S.l 0XVXBXVXuXS qXbXVXVXnXf.( Y R R R W R Y H ^ :.O.p o.6.1.2.4.e.o. .X.O.=.7.3.3.3.9.9.3.5...j K.L.",
"Z.Z.S.K./..X.X/.K.S.Z.Z.Z.Z.Z.x qXNXyXD yXNXBXVXkX[ T Y R R W W R Y J ' >.O.) @.t.2.3.y.@.t ) -.r.5.3.3.3.3.3.3.9.9.5. .j D.S.S.",
"Z.Z.S.K./..X.X/.K.S.Z.Z.Z.Z.Z.c.< S vXBXBXBXnX[ T R R R R R W Y J ' w..._ =.4.2.2.t.o.7 p e.3.<.3.3.3.3.3.3.<.8.9.q.e k J.S.Z.Z.",
"Z.Z.S.H.L././.L.H.S.Z.Z.Z.Z.Z.m.: MXBXBXbX| J E E R R R R Y J ' >.+.` ;.2.3.3.4.o.& 7 w.3.<.3.3.3.3.3.3.3.3.3.5.o.< b.L.H.S.Z.Z.",
"Z.Z.S.S.H.J.J.H.S.S.Z.Z.Z.Z.Z.A.x iXVXeXK Y R R R R R Y J ' h... .q.2.3.3.4.=.r X X X & @.4.3.3.3.3.3.3.3.5.;.t j F.J.H.S.S.Z.Z.",
"Z.Z.Z.S.S.S.S.S.S.Z.Z.Z.Z.Z.Z.A.v.N Z K H H H H ~ ^ ' *.e.;.@.e.2.1.1.4.@.e .           X r -.3.3.<.3.3.q.p , n.L.H.S.S.S.Z.Z.Z.",
"Z.Z.Z.Z.Z.Z.Z.Z.Z.Z.M.x.z l 2 u s _ o.=.;.e.r.t.5.3.3.<.<.<.<.<.3.3.q.t X   A o         % a r ) ;.y.-.s $ b.XX XR.S.Z.Z.Z.Z.Z.Z.",
"Z.Z.Z.Z.Z.Z.Z.M.c.z 2 u _ @.;.e.r.4.5.5.3.3.3.3.<.<.<.<.<.<.<.<.6.>.aX3     wXB         + #.O.i e t & k B.=X=XXX'.D.Z.Z.Z.Z.Z.Z.",
"Z.Z.Z.Z.A.N.z w s o.,.6.5.9.9.3.3.3.3.3.3.3.3.3.<.<.<.<.<.<.4.-.u.jXNXC   X dXaXN +     X @ , = : n B.OX*X:X:X+X'.U.Z.Z.Z.Z.Z.Z.",
"Z.Z.Z.A.k u o.,.5.3.3.3.3.3.3.3.3.3.3.3.3.3.3.3.<.<.<.<.3.q.p D MXBXBXS   $ xXgXd.Z       X c.F.P..X&X*X:X3X1X@X].U.Z.Z.Z.Z.Z.Z.",
"S.S.S.x ..r.3.3.3.3.3.3.3.3.3.3.3.3.3.3.3.3.<.<.<.3.6.;._ * N MXBXBXBXyXX u gXgXf.f.2       z L. X%X=X:X1X5X2X-X}.R.Y.Y.Y.Y.Y.Y.",
"L.L.L.k s t.3.3.3.3.3.3.3.3.3.<.<.3.3.3.3.3.3.6.%. .r @ X . 0XMXuXqXuXjX@ a.gXgXwXrXiXX - f = '.XX=X:X1X3X8X5X,X@X}.{.{.{.{.{.{.",
"(.(.(.I.O _ 4.3.9.9.3.3.3.3.3.9.<.3.3.4.,.$._ r O X       V jXS yXvXyXqXB dXgXzXrXiXvXX z A.f '.+X:X1X3X5X7X8X2X,X;X#X#X#X#X#X#X",
"oXoXoXoXV.O o.3.9.9.3.3.3.2.7.%.=.o. .p * O @ +     < + . tXlXnXS D MXbXrXxXzXxXwXN vXX h Z.M.].@X1X5X8X7X7X7X8X5X2X2X2X2X2X2X2X",
"oXoXoXoXoXb.% ;.8.9.2.q.@.X.o.=.;.;.:.a o wXaXrXB   iXV 3 lXcXjXO , bXBXmXzXzXlXS O S k d Y.'.+X-X2X7X8X5X2X2X2X2X2X2X2X2X2X2X2X",
"(.(.(.(.(.!.n e q.@. .X.-.7.3.<.3.3.q.7 O xXj.dXkXO sXd.A xXxXbXN D NXVXcXzXzXmXZX0X, B.n.].+X#X,X5X8X2X,X-X@X@X@X@X@X@X@X@X@X@X",
"K.K.K.K.K.K.I.k & a :.y.3.3.<.<.<.5.-.* X dXdXdXtXZ kXdXf.gXdXyXbXNXBXCXxXgXgXaXvXN v XX+X@X<X4X2X8X5X,X@X}.].].].].].].].].].].",
"G.G.G.G.G.G.G.M.f , e _ @.q.r.5.t.;.% X   } xXaXfXwXcXxXfXfXdXyX0XuXMXmXzXzXgXfXd.. ^.=X:X4X2X5X8X8X5X<X|.'.T.T.T.T.T.T.T.T.T.T.",
"Z.Z.Z.Z.Z.Z.Z.S.S.S.m.x f - O @ * o       X s.xXdXhXxXxXzXwXyXiXuXbXiXtXrXdXxXxXxXO &X*X:X2X5X5X5X5X4X@X].U.Z.Z.Z.Z.Z.Z.Z.Z.Z.Z.",
"Z.Z.Z.Z.Z.Z.S.S.H.J.J.H.S.S.F.z . X X X     X $ V A a.a.f.wXuXVXMXuXyXuXbXvXiXtXZ = &X=X$X#X-X-X-X-X@X}.'.U.Z.Z.Z.Z.Z.Z.Z.Z.Z.Z.",
"Z.Z.Z.Z.Z.Z.S.H.L././.L.H.S.z . . . . . X X X X X X o # 6 8 Z 0XuXbXVXNXbXvXuXS = ~.%XOXXX[.{.{.{.{.].'.T.S.Z.Z.Z.Z.Z.Z.Z.Z.Z.Z.",
"Z.Z.Z.Z.Z.Z.S.J./..X.X/.K.x.X X + = - + X X X X X X o H U Q L 8 y 2 2 C N 2 j M _.%X%X.X'.T.T.T.T.T.U.U.S.S.Z.Z.Z.Z.Z.Z.Z.Z.Z.Z.",
"Z.Z.Z.Z.Z.Z.S.J./..X.X/.K.x.f N.A.Z.M.+   X       X X 5 L F 9 ( *.h.7 b.~._.oX%X%X%XoX(.L.S.Z.Z.Z.Z.Z.S.S.S.S.S.S.Z.Z.Z.Z.Z.Z.Z.",
"Z.Z.Z.Z.Z.Z.S.H.L././.L.H.S.Z.Z.Z.Z.-   d b.  : + X . o 5 F K p.h.' { ; B.(. X.XoX%XoX(.L.S.Z.Z.Z.Z.S.S.H.K.K.H.S.S.Z.Z.Z.Z.Z.Z.",
"Z.Z.Z.Z.Z.Z.S.S.H.K.K.H.S.S.Z.Z.Z.M.X m (.B.n %XV.j . # P Q Q L | hX} 3 z L.L./..X%XoX(.L.S.Z.Z.Z.Z.S.H.L././.L.H.S.Z.Z.Z.Z.Z.Z.",
"Z.Z.Z.Z.Z.Z.Z.S.S.S.S.S.S.Z.Z.Z.Z.c.f L.(._.`.%X%X_.+ 5 5 F I I L j.xXB l m.H.L.(.oXoX(.L.S.Z.Z.Z.Z.S.K./..X.X/.K.S.Z.Z.Z.Z.Z.Z.",
"Z.Z.Z.Z.Z.Z.Z.Z.Z.Z.Z.Z.Z.Z.Z.S.S.F.D.L.).oX%X%XoXV.5 P P G I I Q | xXA ; z S.J./._..X(.L.H.S.S.S.Z.S.J./..X.X/.J.S.Z.Z.Z.Z.Z.Z.",
"Z.Z.Z.Z.Z.Z.Z.Z.Z.Z.Z.Z.Z.Z.S.G.H.K.!.(._.%X%X_._.j 5 6 F G I I Q K hXa.O 1 S.H.L./././.!.L.K.H.G.S.S.H.L././.L.H.S.Z.Z.Z.Z.Z.Z.",
"Z.Z.Z.Z.Z.Z.Z.Z.Z.Z.Z.Z.Z.Z.S.H.K./.(..XoX%X%X.X~.O 6 6 6 G U I Q / l.s.@ 0 m.G.H.K.L.!./././.K.H.S.S.G.J.K.K.H.D.S.Z.Z.Z.Z.Z.Z.",
"Z.Z.Z.Z.Z.Z.Z.Z.Z.Z.Z.Z.Z.Z.S.K./._.oXoX%X%XoX).m O o @ # F U I L +.h.g.. % k S.S.S.H.L.(..X_./.K.S.Z.S.S.S.S.S.S.Z.Z.Z.Z.Z.Z.Z.",
"Z.Z.Z.S.S.S.S.S.S.Z.Z.S.U.U.T.'. XoX%X%X%XoX.X/., d.aXaXwXq U Q K >.:.s.o o ; M.S.Z.S.K./..X.X/.L.H.S.S.S.S.S.S.S.Z.Z.Z.Z.Z.Z.Z.",
"Z.Z.S.G.H.J.K.H.S.S.S.Y.R.].[.XXXX%X%XoX.X)./.L.j dXzXzXzXf./ / { i.i.u.y X o v.D.S.S.H.L./.(./.!.L.L.L.L.L.K.H.S.S.Z.Z.Z.Z.Z.Z.",
"Z.Z.S.H.L././.L.H.S.U.'.{.+X$X$X&X&X%X.X(.L.K.H.M.l dXzXzXzXfXj.k.k.w.k.i.< O L.H.S.S.G.H.K.L.!./.(.(.(.(.(./.L.H.S.Z.Z.Z.Z.Z.Z.",
"Z.Z.S.K./._..X/.K.D.U.].+X,X1X:X*X&XoX).L.H.S.S.S.d A fXgXgXfX{ a a a a < O j  XK.S.Z.S.S.S.H.L./..XoXoXoXoX.X/.J.S.Z.Z.Z.Z.Z.Z.",
"Z.Z.S.K./._..X X'.T.'.|.<X5X5X:X*X&X.X/.K.S.Z.S.S.4 , p.fXfXfXg.2 l j h h = d /.K.S.Z.Z.Z.Z.G.K./._.oX%X%X%XoX(.L.H.G.G.G.G.G.G.",
"Z.Z.S.H.L./. X X].[.|.#X,X5X5X>X$XXX/.L.H.S.S.G.D.4 4 u.j.fXj.y - h h c m 2 b.L.H.S.Z.Z.Z.Z.S.J.L./.(..XoX%X%X.X(.L.L.L.L.L.L.L.",
"Z.Z.S.D.H.J.R.].+X@X<X,X2X8X2X#X+X'.K.H.S.S.S.J.L.d > y a.a.b g z C.pXvXMXvXc.H.G.S.Z.Z.Z.Z.S.G.H.J.L.(..X%X%XoX.X).(.(.(.(.(.(.",
"Z.Z.S.S.S.S.T.].@X,X5X8X8X7X2X#X}.R.S.S.S.Z.S.K./.V.: > : g g d S qXqXqXS C m.S.S.Z.Z.Z.Z.Z.Z.S.S.S.H.L.(.oX%X%X%XoXoXoXoXoXoXoX",
"T.T.T.T.T.T.R.}.#X2X7X7X7X7X2X@X}.T.Z.Z.Z.Z.S.K./..XV.j @ 0 Z O + # % o 1 v.Z.Z.Z.Z.Z.Z.Z.Z.Z.Z.Z.Z.S.K.(.oX%X%X%XoXoXoXoXoXoXoX",
"].].].].].].}.@X,X5X7X7X7X7X2X@X}.T.Z.Z.Z.Z.S.J.L.(./.b.0 sXkXnXV ~ 9 # l M.M.Z.Z.Z.Z.Z.Z.Z.Z.Z.Z.Z.S.L.(.oX%XoX.X.X X X X X X X",
"@X@X@X@X@X@X#X,X2X8X7X7X7X7X2X@X}.T.Z.Z.Z.Z.S.G.J.L.K.b.7 a.a.wX0 ] ~ ( 9 % % x Z.Z.Z.Z.Z.Z.Z.Z.Z.Z.S.L.(.oX%X.X(.L.L.L.L.L.L.L.",
"2X2X2X2X2X2X2X5X8X7X7X7X7X7X2X@X}.T.Z.Z.Z.Z.Z.S.S.S.S.c.% { { a.@ H ~ &.&.&.X.d Z.Z.Z.Z.Z.Z.Z.Z.Z.Z.S.L.(.oXoX(.L.H.G.G.G.G.G.G.",
"7X7X7X7X7X7X7X7X7X7X7X7X7X7X2X@X}.T.Z.Z.Z.Z.Z.Z.Z.Z.Z.M.1 i { 0 f 1 , u u y 1 N.Z.Z.Z.Z.Z.Z.Z.Z.Z.Z.S.L.(.oXoX(.K.S.Z.Z.Z.Z.Z.Z.",
"7X7X7X7X7X7X7X7X7X7X7X7X7X7X2X@X}.T.Z.Z.Z.Z.Z.Z.Z.Z.Z.Z.M.c.z.m.Z.Z.Z.Z.Z.Z.Z.Z.Z.Z.Z.Z.Z.Z.Z.Z.Z.Z.S.L.(.oXoX(.K.S.Z.Z.Z.Z.Z.Z."
};
