/* XPM */
static char *_64ebe7045e04a169530da48313bbd89ACdy6EydQ0UGLHjv[] = {
/* columns rows colors chars-per-pixel */
"64 64 224 2 ",
"   c #131213",
".  c #2E0D0D",
"X  c #37321A",
"o  c #09152C",
"O  c #091B36",
"+  c #151B31",
"@  c #301928",
"#  c #172235",
"$  c #262727",
"%  c #303033",
"&  c #47090B",
"*  c #5A1917",
"=  c #510D10",
"-  c #6D0B0E",
";  c #7A070C",
":  c #790612",
">  c #691B19",
",  c #781B1B",
"<  c #6D130E",
"1  c #552513",
"2  c #483218",
"3  c #77231B",
"4  c #653614",
"5  c #471926",
"6  c #571C22",
"7  c #711C22",
"8  c #54312D",
"9  c #792221",
"0  c #642627",
"q  c #3C4431",
"w  c #534617",
"e  c #6B5018",
"r  c #73691B",
"t  c #484829",
"y  c #585625",
"u  c #404131",
"i  c #685823",
"p  c #715529",
"a  c #7E7021",
"s  c #071F42",
"d  c #16264B",
"f  c #0D2A55",
"g  c #293A58",
"h  c #2A324D",
"j  c #083269",
"k  c #063A7D",
"l  c #083675",
"z  c #1C2D61",
"x  c #253668",
"c  c #2A3A76",
"v  c #483940",
"b  c #1E4564",
"n  c #274567",
"m  c #294577",
"M  c #344C75",
"N  c #36667A",
"B  c #375457",
"V  c #51696F",
"C  c #8B0E13",
"Z  c #8A221C",
"A  c #85221B",
"S  c #93271E",
"D  c #903C1B",
"F  c #AD261B",
"G  c #872222",
"H  c #972924",
"J  c #803423",
"K  c #A42A24",
"L  c #A13721",
"P  c #9B1417",
"I  c #D6161B",
"U  c #D02C18",
"Y  c #DE241D",
"T  c #89501E",
"R  c #AC4D1C",
"E  c #8B741C",
"W  c #915421",
"Q  c #867920",
"!  c #936D2C",
"~  c #AA7223",
"^  c #C8561F",
"/  c #CF451E",
"(  c #EC491D",
")  c #F25C1D",
"_  c #F5651A",
"`  c #F46819",
"'  c #F46516",
"]  c #CC5922",
"[  c #D24623",
"{  c #F45D24",
"}  c #E06224",
"|  c #9E8A1E",
" . c #9C921E",
".. c #B89D1F",
"X. c #AA901E",
"o. c #988623",
"O. c #A38723",
"+. c #A89323",
"@. c #B99822",
"#. c #B38D2F",
"$. c #B5A423",
"%. c #BDA523",
"&. c #B9A11F",
"*. c #D4B91F",
"=. c #CEB41E",
"-. c #C4AC23",
";. c #C9AA23",
":. c #CAB522",
">. c #D7BC23",
",. c #DFAA32",
"<. c #E6B62D",
"1. c #CF9832",
"2. c #DAC51E",
"3. c #F9DF0E",
"4. c #F6DF0F",
"5. c #E7CB1C",
"6. c #ECD41D",
"7. c #EFD91B",
"8. c #F6DE15",
"9. c #FBDE12",
"0. c #F5DC1B",
"q. c #F8DB1A",
"w. c #FCE00F",
"e. c #FCE011",
"r. c #F9E11B",
"t. c #DCC424",
"y. c #E4CA23",
"u. c #EAD323",
"i. c #F5DC22",
"p. c #F7DB24",
"a. c #F5CD26",
"s. c #AD9C52",
"d. c #F1DB59",
"f. c #E4D362",
"g. c #043C84",
"h. c #283E88",
"j. c #02408E",
"k. c #024291",
"l. c #2B468A",
"z. c #285787",
"x. c #2E479A",
"c. c #2F5193",
"v. c #376F90",
"b. c #314DA1",
"n. c #3355AB",
"m. c #3858BD",
"M. c #3656B6",
"N. c #2F67A2",
"B. c #3366A6",
"V. c #3575B6",
"C. c #336FB1",
"Z. c #537B86",
"A. c #3B5DC9",
"S. c #3A5BC5",
"D. c #3C64CD",
"F. c #3D69CF",
"G. c #3968C5",
"H. c #377BC5",
"J. c #3C67D0",
"K. c #3D6CD2",
"L. c #3D73D6",
"P. c #3D76D9",
"I. c #3E7ADB",
"U. c #416CCE",
"Y. c #4270CF",
"T. c #4374D1",
"R. c #457DD6",
"E. c #416FD0",
"W. c #3481BE",
"Q. c #498B9A",
"!. c #5098B5",
"~. c #54A8B2",
"^. c #3787CA",
"/. c #3E81DE",
"(. c #3B87D7",
"). c #3B92DA",
"_. c #3E85E2",
"`. c #3F8BE6",
"'. c #3F8FE8",
"]. c #3F93EA",
"[. c #3E95E5",
"{. c #3FA1EE",
"}. c #4982D5",
"|. c #4384DD",
" X c #4C8DDA",
".X c #4687DB",
"XX c #4E92DB",
"oX c #4F98DE",
"OX c #5095DB",
"+X c #539BDD",
"@X c #4F99CA",
"#X c #55A3DB",
"$X c #52ABD6",
"%X c #418DE6",
"&X c #408FE8",
"*X c #4095EB",
"=X c #429CEE",
"-X c #4899E6",
";X c #419DF1",
":X c #46A0ED",
">X c #52A3E3",
",X c #57ACE4",
"<X c #5DB5E5",
"1X c #5EBAE7",
"2X c #58B5EA",
"3X c #41A4F5",
"4X c #46ABF5",
"5X c #4BADF1",
"6X c #52B9F3",
"7X c #60BCE7",
"8X c #61BFE8",
"9X c #62C7D4",
"0X c #5DC8F2",
"qX c #5EC2EC",
"wX c #66CDED",
"eX c #62C2E9",
"rX c #6BDAEB",
"tX c #6CDCF1",
"yX c #66D5F2",
"uX c #60CFF5",
"iX c #6EE2F4",
"pX c #70E6F5",
"aX c #73EFF7",
"sX c #73EEF7",
/* pixels */
"A.A.A.A.A.A.A.A.A.A.Y.OX1XtXaXaXaXaXiX1XOXY.A.A.A.A.A.A.A.A.A.A.A.A.A.A.A.A.U.OX<XtXtX1XOXU.J.I.`.;X3X3X3X3X;X`.P.D.A.A.A.A.A.A.",
"A.A.A.A.A.A.A.A.A.A.Y.OX1XtXaXaXaXaXiX1XOXY.A.A.A.A.A.A.A.A.A.A.A.A.A.A.A.A.U.OX<XtXtX1XOXU.J.I.`.;X3X3X3X3X;X`.P.D.A.A.A.A.A.A.",
"A.A.A.A.A.A.A.A.A.A.U. X,XwXtXtXiXiXyX1XoXT.D.D.D.A.A.A.A.A.A.A.A.A.A.A.A.A.U. X<XyXyX2XoXT.L./.`.;X3X3X3X;X*X_.L.D.A.A.A.A.A.A.",
"A.A.A.A.A.A.A.A.A.A.U.R.OX,X1XqX0X0X0X2X-X|.P.K.D.D.A.A.A.A.A.A.A.A.A.A.A.A.F..X>X0X0X2X-X|./.%X*X3X3X;X*X`._.I.K.D.A.A.A.A.A.A.",
"A.A.A.A.A.A.A.A.A.A.D.Y.R. XoX>X5X6X6X5X:X*X_.I.K.D.A.A.A.A.A.A.A.A.A.A.A.A.D.|.-X6X6X5X=X&X*X*X;X3X3X*X`.I.L.K.D.D.A.A.A.A.A.A.",
"A.A.A.A.A.A.A.A.A.A.D.D.U.U.R..X-X4X4X4X3X;X*X_.L.D.A.A.A.A.A.A.A.A.A.A.A.A.D.R.%X4X4X4X3X;X;X3X3X3X;X'.I.K.D.D.D.A.A.A.A.A.A.A.",
"A.A.A.D.D.D.D.D.D.D.D.D.D.D.L./.%X;X3X3X3X3X;X`.I.K.D.D.D.A.m.M.M.G.D.F.U.U.T.|.-X4X4X4X3X3X;X;X;X;X*X_.P.D.A.A.A.A.A.A.A.A.A.A.",
"A.A.D.F.K.L.P.P.P.P.P.P.P.I.I.`.*X;X3X3X3X3X3X*X_.I.L.F.b.g q y t % m V..X XOX>X5X6X6X5X=X*X`.`.`.`._.I.K.D.A.A.A.A.A.A.A.A.A.A.",
"A.A.D.K.I._.`.`.`.`.`.`.`.`.`.*X=X3X3X3X3X3X3X=X*X`.C.g y $.5.0.7.2.o.q z.@X1XqX0XuX0X2X-X|.I.I.I.I.P.K.J.D.A.A.A.A.A.A.A.A.A.A.",
"A.A.D.P._.].;X;X;X;X;X;X;X;X;X3X3X3X3X3X3X3X3X3X=Xz.t +.7.9.9.9.9.9.8.t.Q q Q.rXiXiXyX2XoXT.J.J.J.J.D.D.D.A.A.A.A.A.A.A.A.A.A.A.",
"D.D.K.I.`.*X;X;X;X;X;X;X;X;X;X;X;X;X;X;X;X;X;X[.n i y.8.9.9.9.9.9.9.9.e.q.t.r B 9XaXiX8X+XR.U.F.D.D.A.A.A.A.A.A.A.A.A.D.D.D.D.D.",
"I.I.I./._.`.`.`.`.`.`.`.`.`.`.`.`.`.`.`.`.`.(.h Q 7.9.9.9.9.9.9.e.e.e.e.e.e.0.$.t ~.iXwX<X+X XR.T.D.A.A.A.A.A.A.A.A.D.D.K.P.I.I.",
"`.`.`._.I.I.I.I.I.I.I.I.I.I.I.I.I.I.I.I.I.C.%  .0.9.9.9.9.e.e.e.e.e.e.e.e.e.e.e.2.y ~.tXwXeX,XoX}.U.A.A.A.A.A.A.A.A.D.K.I._.`.`.",
";X;X*X_.I.K.D.D.D.D.D.D.D.D.D.D.D.D.D.D.n.% $.8.9.9.9.9.9.e.e.e.e.e.e.e.e.e.e.e.e.2.q iXiXiXwX,XXXT.A.A.A.A.A.A.A.A.D.P._.*X;X;X",
";X;X]._.L.D.A.A.A.A.A.A.A.A.A.D.D.m.b.c $ -.4.9.9.9.9.9.9.e.e.e.e.e.e.e.e.e.e.e.w.e.r Q.9XiXyX<X>X}.T.E.K.J.J.J.J.J.L.I.`.;X3X3X",
"`.`._.I.K.D.A.A.A.A.A.A.A.S.n.m h u y X  .4.3.9.9.e.e.e.e.e.e.e.e.e.e.e.e.e.e.e.w.e.$.  t B Q.@X,X>XOX X.XR.I.I.I.I./.`.*X3X3X3X",
"I.I.P.K.D.D.A.A.A.A.A.A.n.x $ y o.t.p.i u.3.3.9.e.e.e.e.e.e.e.e.e.e.e.e.e.e.e.w.w.w.y.w t.o.2 % N $X<X>X-X%X`.`.`.`.`.*X=X3X3X3X",
"J.J.D.D.D.A.A.A.A.A.b.d 2 o.u.0.e.e.i.a 8.3.3.e.e.e.e.e.e.e.e.e.e.e.e.e.e.e.e.w.w.e.r.w i.e.0.>.o.X N ,X6X4X;X;X;X;X;X;X3X3X3X3X",
"A.A.A.D.D.D.D.D.m.h w $.0.9.9.e.e.e.i.o.9.3.w.e.e.e.e.e.e.e.e.e.e.e.e.e.e.e.e.e.e.e.e.e u.9.e.9.e.u.o.X v.4X3X3X3X3X3X3X3X3X;X;X",
"A.A.D.F.K.P.P.n.$ o.7.9.9.9.e.e.e.e.i.o.9.3.e.e.e.e.e.e.e.e.e.e.e.e.e.e.e.e.e.e.e.e.e.Q t.9.8.9.e.e.e.y.i M {.3X3X3X3X;X*X*X`.`.",
"A.A.D.L.I._.H.% -.9.3.9.9.9.e.e.e.e.r.o.8.e.e.e.e.e.e.e.e.e.e.e.e.e.e.e.e.e.e.e.e.e.e. .:.e.9.e.e.e.e.9.i.a N 3X3X3X3X*X`./.I.I.",
"A.A.D.P._.].n  .e.w.3.9.9.9.e.e.e.e.e.o.e.e.e.e.e.e.e.e.e.e.e.e.e.e.e.e.e.e.e.e.e.e.e.@.%.e.9.9.e.9.9.e.e.6.t ^.3X3X;X*X/.K.D.D.",
"A.A.D.P._.H.$ :.e.e.e.9.9.9.9.9.e.e.e.o.i.e.e.9.e.e.e.e.e.e.e.e.e.e.e.e.e.e.e.e.e.e.e.$.-.e.e.e.e.9.9.e.e.e.r b ;X;X*X_.P.D.A.A.",
"A.A.D.K.I.x 1 >.e.e.9.9.9.9.9.e.e.e.w...>.e.e.e.e.e.e.e.e.e.e.e.e.e.e.e.e.e.e.e.e.e.e.+.t.e.e.e.9.9.9.e.e.e.Q   H.`._.I.K.D.A.A.",
"A.A.D.D.K.# 3 ;.w.9.9.3.9.9.9.e.e.e.e.u.o.8.e.e.e.e.e.e.e.e.e.e.e.e.e.e.e.e.e.e.e.e.r.o.0.e.e.9.9.9.9.e.e.e.r   c.I.L.K.D.D.A.A.",
"A.A.A.D.D.d Z ~ 8.9.9.9.9.9.9.9.e.e.e.e.o.6.e.e.e.e.9.9.e.e.e.e.e.e.e.e.e.e.e.e.e.e.;.-.e.9.9.9.9.9.9.e.e.0.w & m K.D.D.D.A.A.A.",
"A.A.A.A.A.h.> L 5.w.w.9.9.9.e.9.e.e.e.e.u.E i.e.e.e.e.e.e.e.e.e.e.e.e.e.e.e.e.e.e.y.O.8.9.9.9.9.9.e.e.e.e.2.1 7 l.D.A.A.A.A.A.A.",
"A.A.A.A.A.n.5 K @.9.e.9.9.9.e.9.9.9.e.e.e.-.+.0.9.e.e.e.9.9.9.e.e.e.e.e.e.e.e.e.6.O.y.9.9.9.9.9.9.e.e.e.e.X.> 6 B.F.A.A.A.A.A.A.",
"A.A.A.A.A.S.x Z D >.9.9.9.9.9.9.9.9.9.9.9.8.:.o.>.8.e.e.9.9.9.e.e.e.e.e.e.e.q.:.o.t.8.8.8.9.9.9.e.e.e.e.y.4 Z g }.U.A.A.A.A.A.A.",
"A.A.A.A.A.A.n.5 F R 6.9.9.9.9.9.9.9.9.9.9.e.e.5.+.O.:.5.9.9.9.e.e.e.8.r.6.:.o.+.6.8.8.8.8.9.9.9.e.e.e.0.E , 0 !. XU.A.A.A.A.A.A.",
"D.D.D.D.D.D.D.l.> F ~ 6.9.9.9.9.9.9.9.9.9.9.9.e.e.y.%.+.+.;.=.*.*.=.%.O.o.$.y.e.9.9.9.9.9.9.9.e.w.w.e.+.> 7 Q.7X+XR.Y.Y.Y.Y.Y.Y.",
"I.I.I.I.I.I.I.L.m , K ~ i.9.9.9.9.9.9.9.9.9.9.9.9.9.9.8.6.>.:.;.-.;.>.5.8.8.9.9.9.9.9.9.e.e.e.e.w.8.%.1 , V rXwX<X+XOXOXOXOXOXOX",
"`.`.`.`.`.`.`.`.(.n , K ~ a.9.9.9.9.9.9.9.9.9.9.9.9.9.9.9.9.9.9.9.9.9.9.9.9.9.9.9.9.9.e.e.e.e.w.8.&.1 , V rXpXtXwX8X1X1X1X1X1X1X",
";X;X;X;X;X;X;X;X;X[.M > K W t.8.9.9.9.9.9.9.9.9.9.9.9.9.9.e.9.9.9.9.9.9.9.9.9.9.9.9.9.e.w.w.e.5.E 1 7 V rXaXaXpXiXtXtXtXtXtXtXtX",
";X;X;X;X;X;X;X;X;X;X[.z.6 S T @.u.9.9.9.9.9.e.9.9.9.9.9.9.9.9.9.9.9.9.9.9.9.9.9.9.9.e.e.e.0...4 * 0 Z.rXpXtXtXtXtXtXtXtXtXtXtXtX",
"`.`.`.`.`.`.`.`.`.`.`._.B.% 3 H T @.6.3.e.9.e.e.e.e.9.9.e.9.9.9.9.9.9.9.9.9.9.9.e.e.e.7.%.e * , 8 ~.iXtXwX7X<X<X<X<X<X<X<X<X<X<X",
"P.P.P.P.P.P.P.P.P.P.P.P.P.G.x 5 9 H W @.5.q.8.e.e.e.9.9.e.9.9.9.9.9.9.9.9.9.9.e.0.2.X.e > , 8 Z.9XpXiXwX<X+XXXXXXXXXXXXXXXXXXXXX",
"J.J.J.J.J.J.J.J.J.J.J.J.J.J.K.c.h * H G T X.y.p.9.9.9.e.e.e.e.e.9.9.9.w.9.q.p.t.o.4 * G , v ~.iXpXpXiXeX#X}.T.T.T.T.T.T.T.T.T.T.",
"A.A.A.A.A.A.A.D.D.D.D.D.D.A.J.I._.H.n @ > H A J W | ..:.y.y.u.y.y.>.-.X.E T 3 , G 9 * B !.tXiXiXiXiXwX<X XU.A.A.A.A.A.A.A.A.A.A.",
"A.A.A.A.A.A.D.D.K.L.L.K.D.D.D.L.I._.%X[.N.g @ * 3 H H S Z A A A Z S H K K S > 8 n N.=X5X2X1X7X7X7X7X<X+X}.U.A.A.A.A.A.A.A.A.A.A.",
"A.A.A.A.A.A.D.K.I._._.I.K.D.D.J.K.P.I.`.*X3X3X^.n . & & = = * 3 3 = . . & & . C.3X3X4X:X-XoXOXOXOXOXXX}.T.D.A.A.A.A.A.A.A.A.A.A.",
"A.A.A.A.A.A.D.L._.*X*X_.P.D.A.D.D.D.K.I.`.;X3XC.. - ; ; C C / { { [ < = : : ; . C.3X3X&X|.R.T.T.T.T.U.U.D.D.A.A.A.A.A.A.A.A.A.A.",
"A.A.A.A.A.A.D.L._.*X*X_.P.D.A.A.A.A.D.I.`.;XW.. - ; ; C P U ) _ _ _ [ < - C : : . ^.;X%XI.D.A.A.A.A.A.D.D.D.D.D.D.A.A.A.A.A.A.A.",
"A.A.A.A.A.A.D.K.I._._.I.K.D.A.A.A.A.D.I.`.;X3X% = : ; P I ( _ ` ` ` _ U ; - C : & N.;X%XI.D.A.A.A.A.D.D.K.P.P.K.D.D.A.A.A.A.A.A.",
"A.A.A.A.A.A.D.D.K.P.P.K.D.D.A.A.A.A.D.I.`.;X:Xb m . F I Y { ` ` ` ` ` ) F - = @ n ).;X`.I.D.A.A.A.A.D.K.I._._.I.K.D.A.A.A.A.A.A.",
"A.A.A.A.A.A.A.D.D.D.D.D.D.A.A.A.A.A.D.I.`.;X).V.W.= I I ( ` ` ` ` ` ` ` ( U . l.(.C.;X`.I.D.A.A.A.A.D.P._.*X*X_.P.D.A.A.A.A.A.A.",
"A.A.A.A.A.A.A.A.A.A.A.A.A.A.A.D.D.D.L.I.'.3X^.[.V.P I Y { ` ` ` ` ` ` ` _ ) < n._.(.*X`.I.K.D.D.D.A.D.L._.*X*X_.L.D.A.A.A.A.A.A.",
"A.A.A.A.A.A.A.A.A.A.A.A.A.A.D.J.K.I./.`.*X3X3X=XC.F ( { _ ` ` ` ` ` ` ` ` ' ] M I._._._./.I.P.K.J.D.D.K.I._._.I.K.D.A.A.A.A.A.A.",
"A.A.A.A.A.A.A.A.A.A.A.A.A.A.D.K.P._.`.*X=X3X3X*XM / ) _ ' ` ` ` ` ` ` ` ` ' } M K.P.I._._._._.P.K.D.D.J.L.P.P.K.F.D.A.A.A.A.A.A.",
"A.A.A.A.A.A.A.A.A.A.A.A.A.A.D.P._.].;X;X3X3X;XC.$ 4 D R R ^ ] ] ] ^ ^ ^ R R D % c.D.K.I.`.*X]._.P.D.A.D.D.D.D.D.D.A.A.A.A.A.A.A.",
"A.A.A.D.D.D.D.D.D.A.A.D.U.U.T.|.%X;X3X3X3X;X(.8 p ! 9 9 G G Z Z Z Z Z G G , J 0 p b.D.P._.*X*X_.I.K.D.D.D.D.D.D.D.A.A.A.A.A.A.A.",
"A.A.D.J.K.L.P.K.D.D.D.Y.R. XoX-X=X3X3X;X*X'.B.! T <.2 @ 5 * > , , , > 5 @ . 1.p #.x D.K.I._.`._./.I.I.I.I.I.P.K.D.D.A.A.A.A.A.A.",
"A.A.D.K.I._._.I.K.D.U.}.OX,X2X2X5X4X3X*X`.I.c.W T a.u l k l j f f j l k l + <.p #.x D.J.K.P.I./._.`.`.`.`.`._.I.K.D.A.A.A.A.A.A.",
"A.A.D.P._.].*X_.P.D.U. X,XwXyX0X6X4X;X].I.K.M.2 W ,.% k k.k.j o O k k.k.k + ,.#.p l.A.D.D.D.K.I._.*X;X;X;X;X*X_.L.D.A.A.A.A.A.A.",
"A.A.D.P._.].*X%X|.T.}.#XeXiXiX0X6X4X*X_.P.D.D.c % 2 O g.k.k.s z z j j.j.k o X % x D.A.A.A.A.J.P._.].;X3X3X3X;X`.I.K.J.J.J.J.J.J.",
"A.A.D.K.I._.%X%XXXoX#X1XwXiXiX0X2X-X_.I.K.D.D.F.G.m s g.k.k.s x.h.j g.j.g.O N.G.K.D.A.A.A.A.D.L.I._.`.*X=X3X3X*X`.I.I.I.I.I.I.I.",
"A.A.D.F.K.L.R. X>X<XeXwXtXpXtX1X,X.XP.K.D.D.D.L.I.z.s k g.k O x.h.f k k l o n.K.D.D.A.A.A.A.D.J.K.L.I.`.*X3X3X;X*X'.`.`.`.`.`.`.",
"A.A.D.D.D.D.T.XX<XwXiXpXpXaXtX1X+XR.D.D.D.A.D.P._.z.O f f d + b.x.# d d d o b.D.D.A.A.A.A.A.A.D.D.D.K.I.`.;X3X3X3X;X;X;X;X;X;X;X",
"T.T.T.T.T.T.R.+X7XtXaXaXaXaXtX<X+XT.A.A.A.A.D.P._.^.m (.L.D.x.M.S.c S.A.S.x n.A.A.A.A.A.A.A.A.A.A.A.D.I.`.;X3X3X3X;X;X;X;X;X;X;X",
"XXXXXXXXXXXX+X<XwXiXaXaXaXaXtX<X+XT.A.A.A.A.D.L.I.z.  + # + x A.S.d $ $     x.A.A.A.A.A.A.A.A.A.A.A.D.I.`.;X3X;X*X*X%X%X%X%X%X%X",
"<X<X<X<X<X<X1XwXtXpXaXaXaXaXtX<X+XT.A.A.A.A.D.J.L.d s.f.f.s.x A.A.h f.d.d.! l.A.A.A.A.A.A.A.A.A.A.A.D.I.`.;X3X*X`.I.I.I.I.I.I.I.",
"tXtXtXtXtXtXtXiXpXaXaXaXaXaXtX<X+XT.A.A.A.A.A.D.D.x w i i t l.A.A.x y i i X n.A.A.A.A.A.A.A.A.A.A.A.D.I.`.;X;X`.I.K.J.J.J.J.J.J.",
"aXaXaXaXaXaXaXaXaXaXaXaXaXaXtX<X+XT.A.A.A.A.A.A.A.A.m.M.M.m.A.A.A.A.m.M.M.S.A.A.A.A.A.A.A.A.A.A.A.A.D.I.`.;X;X`.P.D.A.A.A.A.A.A.",
"aXaXaXaXaXaXaXaXaXaXaXaXaXaXtX<X+XT.A.A.A.A.A.A.A.A.A.A.A.A.A.A.A.A.A.A.A.A.A.A.A.A.A.A.A.A.A.A.A.A.D.I.`.;X;X`.P.D.A.A.A.A.A.A."
};
