/* XPM */
static char *_19263a214854f09df98ee2ed63962901zDKJFTsCw3YTblT[] = {
/* columns rows colors chars-per-pixel */
"64 64 243 2 ",
"   c #030303",
".  c #0C0B0A",
"X  c #0A0706",
"o  c #120C0B",
"O  c #17130D",
"+  c #181817",
"@  c #0E0E13",
"#  c #261E0A",
"$  c #311412",
"%  c #27230E",
"&  c #28251A",
"*  c #392F15",
"=  c #101B2D",
"-  c #1B2531",
";  c #282826",
":  c #38352A",
">  c #373737",
",  c #2C2E34",
"<  c #222021",
"1  c #4D1414",
"2  c #751C1D",
"3  c #661B19",
"4  c #433B15",
"5  c #582616",
"6  c #6A281C",
"7  c #4E1D30",
"8  c #761D22",
"9  c #43382D",
"0  c #50312E",
"q  c #6A2424",
"w  c #742323",
"e  c #713633",
"r  c #534918",
"t  c #6E501D",
"y  c #756A1C",
"u  c #47463A",
"i  c #564D2F",
"p  c #6C572D",
"a  c #776B2D",
"s  c #132C4F",
"d  c #303A4F",
"f  c #0F3A74",
"g  c #2F3D65",
"h  c #34414B",
"j  c #384756",
"k  c #314A56",
"l  c #3A5B7A",
"z  c #374B6D",
"x  c #366269",
"c  c #484847",
"v  c #585344",
"b  c #525054",
"n  c #6B5349",
"m  c #736A56",
"M  c #736D54",
"N  c #455477",
"B  c #484F6D",
"V  c #4B6176",
"C  c #71706B",
"Z  c #841A1C",
"A  c #891A1A",
"S  c #96181A",
"D  c #AE1A19",
"F  c #93271C",
"G  c #8B1D20",
"H  c #B61D23",
"J  c #892424",
"K  c #932724",
"L  c #8A3729",
"P  c #AF2C22",
"I  c #A0301D",
"U  c #C6191E",
"Y  c #D41A1B",
"T  c #D00F16",
"R  c #D42617",
"E  c #CB1A23",
"W  c #D41821",
"Q  c #C1292D",
"!  c #8D771E",
"~  c #8B4E2E",
"^  c #8A712D",
"/  c #A55F2C",
"(  c #8D7A49",
")  c #86786C",
"_  c #996952",
"`  c #9B871F",
"'  c #A9981E",
"]  c #BAA81E",
"[  c #988925",
"{  c #9A8638",
"}  c #A79626",
"|  c #AA9B38",
" . c #B29325",
".. c #BAA725",
"X. c #B8AA34",
"o. c #CCB51E",
"O. c #C5AA23",
"+. c #C9B524",
"@. c #D3BB25",
"#. c #C7B63A",
"$. c #C1962C",
"%. c #FADE0F",
"&. c #E2C91D",
"*. c #FBDE13",
"=. c #F5DC1B",
"-. c #F9DE1A",
";. c #F2D818",
":. c #EBD41B",
">. c #FAE10F",
",. c #FBE012",
"<. c #F8E11B",
"1. c #DAC428",
"2. c #E9D325",
"3. c #F4DC24",
"4. c #E6CF2D",
"5. c #F8E122",
"6. c #DFC71C",
"7. c #978B4F",
"8. c #A59A59",
"9. c #A69546",
"0. c #B8AC49",
"q. c #948B70",
"w. c #A59876",
"e. c #B09B6C",
"r. c #B4A572",
"t. c #C4B855",
"y. c #CBB773",
"u. c #D2C753",
"i. c #D0C371",
"p. c #F0DC71",
"a. c #E1D755",
"s. c #074895",
"d. c #0C478A",
"f. c #394F8D",
"g. c #3B6790",
"h. c #3C56A8",
"j. c #3D5CBB",
"k. c #3D70B7",
"l. c #0448A3",
"z. c #455489",
"x. c #455A99",
"c. c #404D87",
"v. c #4D7090",
"b. c #415DB1",
"n. c #4D6BB1",
"m. c #3B5DC9",
"M. c #3D5DC3",
"N. c #3C64CD",
"B. c #3D68CF",
"V. c #3C67D0",
"C. c #3D6CD2",
"Z. c #3D73D6",
"A. c #3D76D9",
"S. c #3E7ADB",
"D. c #3F74C7",
"F. c #416CCE",
"G. c #4465C7",
"H. c #4370CE",
"J. c #4977C4",
"K. c #4373D1",
"L. c #467DD5",
"P. c #4C70C8",
"I. c #807F80",
"U. c #538CB3",
"Y. c #5D9AB3",
"T. c #3E80DF",
"R. c #3F85C0",
"E. c #3E85E2",
"W. c #3F8BE6",
"Q. c #3F8FE8",
"!. c #3F93EA",
"~. c #478AC5",
"^. c #4888DA",
"/. c #4E92DB",
"(. c #4D99D9",
"). c #5095DB",
"_. c #539BDD",
"`. c #5198D1",
"'. c #518CCB",
"]. c #56A4DF",
"[. c #64ADD1",
"{. c #428DE5",
"}. c #408FE8",
"|. c #4095EB",
" X c #439CED",
".X c #4799E5",
"XX c #419DF1",
"oX c #48A1EC",
"OX c #56A8E3",
"+X c #5DB5E5",
"@X c #5EBAE7",
"#X c #59B6EA",
"$X c #41A4F5",
"%X c #48ACF3",
"&X c #52BAF4",
"*X c #60BDE7",
"=X c #60A6E0",
"-X c #5DC9F3",
";X c #5EC2EC",
":X c #66CDEC",
">X c #63C2E9",
",X c #6CDCF1",
"<X c #66D4F2",
"1X c #6AD4EC",
"2X c #6EE2F4",
"3X c #73EEF7",
"4X c #70E6F5",
"5X c #9B9586",
"6X c #92918F",
"7X c #A49C8E",
"8X c #ABA58A",
"9X c #B8AB89",
"0X c #BBB398",
"qX c #B4AC96",
"wX c #ACA9A6",
"eX c #B8B3A7",
"rX c #BAB6B4",
"tX c #B3AFAA",
"yX c #C7B997",
"uX c #C9B58C",
"iX c #C5BBAA",
"pX c #C4BABB",
"aX c #D1C69A",
"sX c #EED99F",
"dX c #FBE49E",
"fX c #D6C8A7",
"gX c #DDD3A9",
"hX c #D3CCB7",
"jX c #E7D6A8",
"kX c #EBD9B0",
"lX c #FEE6AC",
"zX c #FCE5A8",
"xX c #F9E6B5",
"cX c #EAE1AF",
"vX c #CBC7C6",
"bX c #D8D4D4",
"nX c #D2CECD",
"mX c #E1DDDC",
"MX c #F2E7C6",
"NX c #E8E7E6",
"BX c #FDFDFD",
"VX c #F8F8F5",
"CX c #F5F2EC",
/* pixels */
"m.m.m.m.m.m.m.m.m.m.H.).@X,X3X3X3X3X2X@X).H.m.m.m.m.m.m.m.m.m.m.m.m.m.m.m.m.F.).+X,X,X@X).F.V.S.W.XX$X$X$X$XXXW.A.N.m.m.m.m.m.m.",
"m.m.m.m.m.m.m.m.m.m.H.).@X,X3X3X3X3X2X@X).H.m.m.m.m.m.m.m.m.m.m.m.m.m.m.m.m.F.).+X,X,X@X).F.V.S.W.XX$X$X$X$XXXW.A.N.m.m.m.m.m.m.",
"m.m.m.m.m.m.m.m.m.m.F./.OX:X,X,X2X2X<X#X(.K.N.N.N.m.m.m.m.m.m.m.m.m.m.m.m.m.F./.+X<X<X#X(.K.Z.T.Q.XX$X$X$XXX|.E.Z.N.m.m.m.m.m.m.",
"m.m.m.m.m.m.m.m.m.m.F.L.).OX@X;X-X-X-X#X.X^.A.C.V.N.G.P.x.z.N B B N c.x.n.G.B.^.OX;X-X#X.X^.T.W.|.$X$XXX|.W.E.S.C.N.m.m.m.m.m.m.",
"m.m.m.m.m.m.m.m.m.m.N.H.L.^.(.OXOX&X&X%XoX|.E.S.C.n., 4 ! ' ] +.+...' ! r : B '..X&X&X%XoX|.|.|.XX$X$X|.W.S.Z.C.N.N.m.m.m.m.m.m.",
"m.m.m.m.m.m.m.m.m.m.N.N.F.F.L.^..X%X%X%X$XXX|.E.J.& [ 2.*.*.*.*.*.%.,.-.=.2.y ; U.%X%X%X$XXXXX$X$X$XXXQ.S.C.N.N.N.m.m.m.m.m.m.m.",
"m.m.m.N.N.N.N.N.N.N.N.N.N.N.Z.T.{.XX$X$X$X$XXX{.d ! =.*.*.*.*.,.,.,.,.,.*.%.;...: ~.%X%X$X$XXXXXXXXX|.E.A.N.m.m.m.m.m.m.m.m.m.m.",
"m.m.N.B.C.Z.A.A.A.A.A.A.A.S.S.W.|.XX$X$X$X$X$Xv.r :.,.*.*.*.,.,.,.,.,.,.,.*.%.-..., ].%XoX|.W.W.W.W.E.S.C.N.m.m.m.m.m.m.m.m.m.m.",
"m.m.N.C.S.E.W.W.W.W.W.W.W.W.W.|.!.$X$X$X$X$X(.& @.*.*.*.*.*.,.,.,.*.*.*.*.*.%.*.=.t B #X.X^.S.S.S.S.A.C.V.N.m.m.m.m.m.m.m.m.m.m.",
"m.m.N.A.E.!.XXXXXXXXXXXXXXXXXX$X$X$X$X$X$X%Xk [ *.,.,.,.,.,.,.,.,.*.*.*.*.*.%.%.*.+.O [.(.K.B.V.V.V.N.N.N.m.m.m.m.m.m.m.m.m.m.m.",
"N.N.C.S.W.|.XXXXXXXXXXXXXXXXXXXXXXXXXXXX!.n.4 2.%.,.,.,.,.,.,.,.,.*.*.*.*.*.*.*.,.=.4 V _.L.F.F.N.N.m.m.m.m.m.m.m.m.m.N.N.N.N.N.",
"S.S.S.T.E.W.W.W.W.W.W.W.W.W.W.W.W.W.W.W.^., O.>.>.,.=.:.@.O.] ' ' ' ] o.&.:.-.*.*.,.} + [._./.L.K.N.m.m.m.m.m.m.m.m.N.N.C.A.S.S.",
"W.W.W.E.S.S.S.S.S.S.S.S.S.S.S.S.S.S.S.S.N y <.2...[ ( M q.7XwXtXrXtXwX5Xq.( ^ } +.:.4.# Y.>XOX).^.F.m.m.m.m.m.m.m.m.N.C.S.E.W.W.",
"XXXX|.E.S.C.N.N.N.N.N.N.N.N.N.N.N.N.N.P.; #.| 7.wXnXCXVXBXBXBXBXBXBXBXBXBXVXNXvX5XM | p j ,X:XOX/.K.m.m.m.m.m.m.m.m.N.A.E.|.XXXX",
"XXXX!.E.Z.N.m.m.m.m.m.m.m.m.m.N.N.N.V.N : q.vXVXBXBXBXBXBXBXBXBXBXBXBXBXBXBXBXBXBXNXwXv + ,X<X+XOX^.K.H.V.V.V.V.V.V.Z.S.W.XX$X$X",
"W.W.E.S.C.N.m.m.m.m.m.m.m.m.G.F.K.L.J.> 7XbXbXbXnXnXvXpXpXrXrXrXrXrXrXpXvXvXnXbXbXNXNXbXc Y.:X@X+XOX)./.^.L.S.S.S.S.T.W.|.$X$X$X",
"S.S.A.C.B.N.m.m.m.N.P.n.x.z.z.B B B b 0 _ n e e e e q w 8 8 2 2 2 2 2 q w w e e n n _ ) n b v.v.U.Y.[.=X.X{.W.W.W.W.W.|. X$X$X$X",
"V.V.N.N.N.N.n.z.c 0 q 2 J K K J J J J 2 2 2 2 8 2 2 8 Z Z Z Z Z Z Z Z Z Z Z Z Z A A A G K K K K J J w q e b z.U..XXXXXXX$X$X$X$X",
"m.m.m.G.z.> $ 3 3 1 5 t t ^ ! [ }  .....O.O.O.] X.a i i p a a p ^ X.+.+.O.O.O.O.$.$. . . . .` ! ! ^ t t 6 3 Z w 0 N `.$X$X$XXXXX",
"m.m.b., 1 3 5 t } 1.3.-.-.-.-.-.*.,.,.*.,.,.,.1.*                 % ! 1.=.-.-.-.-.-.-.*.*.-.-.*.-.*.,.3.3.1.} t 5 2 5 B /.|.W.W.",
"m.x.$ 3 6 } 2.-.*.*.*.*.*.*.*.*.*.*.*.*.,.,.@.#                       o r  .3.-.-.-.*.*.*.*.*.*.*.*.*.*.*.*.,.<.&.! 5 q , J.S.S.",
"b.7 w ` =.*.*.*.*.*.*.*.*.*.,.,.*.*.*.*.*.@.#     X m u       m v           * } =.*.*.*.*.*.*.*.*.*.*.*.*.*.*.,.>.,.4.y $ ; G.N.",
"f.5 ..-.*.*.*.*.*.*.*.*.*.,.,.,.*.,.,.,.1.#       q.jX9     9 jXuXO   o o       4 +.,.*.,.*.*.*.*.*.*.*.*.*.*.*.,.,.,.-.! X z m.",
"x.r =.%.%.%.*.*.*.*.*.*.*.,.,.*.*.>.,.3.4       m zXuX&   O uXzXzXn   ; m         o y 2.*.*.,.*.*.*.*.*.*.*.*.*.*.,.,.*.3.# d m.",
"G., @.%.*.*.*.*.*.*.*.*.*.,.,.*.-.2.[ *       ; sXdXw.O   M zXzXlX9Xo ; aXv           % } 3.*.*.*.*.*.*.*.*.*.*.*.*.,.>.3.% g m.",
"m.h.: @.*.*.*.*.*.,.*.*.*.,.,.;. .y a O     X uXzXzXw.O + aXzXzXlXjX: & gX0X            X r O.-.*.*.*.*.*.*.*.%.*.*.,.-.! @ b.m.",
"m.m.h., } =.*.%.*.*.,.,.*.*.*.,.5.#.*       9 zXzXzXw.O v zXzXzXzXlXM & gXxX& + c       X i @.-.-.*.*.*.*.*.*.*.*.*.2.y o f.m.m.",
"m.m.m.h.d y @.-.*.*.*.,.*.,.*.:.' *         M dXdXsX8X+ q.lXzXzXlXlXr.: kXxXv O 5X        % [ 2.-.-.*.*.*.*.*.*.=.+.r O g M.m.m.",
"m.m.m.m.j.f.u ! &.*.,.,.*.,.&.r O .         9XaXq.5X8X> 9XlXzXzXzXlX0Xb 0XgXw.O kX.         . r } =.,.,.,.,.-.@.y % - f.M.m.m.m.",
"m.m.m.m.m.m.j.z u ` &.,.*.,.6.} ..r       X gXyXNX6XrXwXw.lXlXlXlXjXeX) 6XhXhX: xX+         . 4 y &.,.,.=.@.y % - f.j.m.m.m.m.m.",
"N.N.N.N.N.N.N.N.j.l u [ &.-.-.,.5.* o u : . jXCX6X  ; rX8XlXlXlXlXkXtXo . b CX) xX+   ; ;   % 3.5.<.;.O.y % , v.'.L.H.H.H.H.H.H.",
"S.S.S.S.S.S.S.S.S.S.D.f.u ! 1.=.3.# 7XfXw.o jXVXC   @ tXhXlXlXlXzXMX6X  X b BXhXkX. n fXgXv r 3.&.[ r & h Y.1X:X+X_.).).).).).).",
"W.W.W.W.W.W.W.W.W.W.W.W.^.g.c a | % yXyXw.O aXVXnXc 6XmXgXlXlXlXlXkXnXC C bXVXMXfXX 9XyXuXq.: t * < x [.,X3X4X,X:X*X@X@X@X@X@X@X",
"XXXXXXXXXXXXXXXXXXXXXXXXXXXX.Xk.l ; r.kXw.O 8XMXNXCXNXiXjXzXlXzXlXcXhXNXCXCXrXxX9X; 9X8XuXm = k v.*X2X4X3X3X3X4X2X,X,X,X,X,X,X,X",
"XXXXXXXXXXXXXXXXXXXXXXXXXXXXXX$X$X~.u e.r.i ) yX0XiXyXjXzXzXxXjXxXxXcXfX0X8Xq.kXq.m uXuXw.> ~.].*X,X4X4X2X,X,X,X,X,X,X,X,X,X,X,X",
"W.W.W.W.W.W.W.W.W.W.W.W.W.W.W.|. X$XR.h v M m qX) qXfXjXkXxXlXxXxXxXjXfXqXeX7XjXm 5Xm v B U.].@X:X2X4X,X:X*X+X+X+X+X+X+X+X+X+X+X",
"A.A.A.A.A.A.A.A.A.A.A.A.A.S.T.W.|.XX$X.Xg.. & q.eXnXmXbXvXiXiXiXeXiXhXbXCXNXwX8X+ + . h OX+X>X1X,X4X2X:X+X_././././././././././.",
"V.V.V.V.V.V.V.V.V.V.V.V.V.V.Z.E.W.XX$X%Xv.z k . C rXvXNXBXBXBXBXBXBXBXVXvXwXeX; . g.l j >X<X,X2X4X4X2X>X].^.K.K.K.K.K.K.K.K.K.K.",
"m.m.m.m.m.m.m.N.N.N.N.N.N.m.V.S.E.!.XX$X$XoXj +   & q.7XtXrXvXbXnXrXwX7X5Xm .     v.%X&X-X,X2X2X2X2X1X+X/.F.m.m.m.m.m.m.m.m.m.m.",
"m.m.m.m.m.m.N.N.C.Z.Z.C.N.N.N.Z.A.E.Q.!.!.$X$X{.d X   . ; n e.y.e.9 + . X . s ~.(.oX%X%X#X@X*X*X*X*X+X_.^.F.m.m.m.m.m.m.m.m.m.m.",
"m.m.m.m.m.m.N.C.S.E.E.S.C.N.N.V.C.A.S.W.|.$X$XXX|.k X & n i i.p.y.i ^ $ X + .X$X$X$X$XoX.X_._._.).)./.^.K.N.m.m.m.m.m.m.m.m.m.m.",
"m.m.m.m.m.m.N.Z.E.|.|.E.A.N.m.N.N.N.C.S.W.XX$X$Xz.3 Z p 0.7.p.i.y.p a.~ D 1 j $X$X$X$X}.^.L.K.K.K.K.F.F.N.N.m.m.m.m.m.m.m.m.m.m.",
"m.m.m.m.m.m.N.Z.E.|.|.E.A.N.m.m.m.m.N.S.W.XX$Xv.1 Y E e u.t.u.a.a.u.a.I Y E 1 U.$X$XXXW.S.N.m.m.m.m.m.N.N.N.N.N.N.m.m.m.m.m.m.m.",
"m.m.m.m.m.m.N.C.S.E.E.S.C.N.m.m.m.m.N.S.W.XXv.1 E Y W q 8.a.u.u.t.u.| F Y Y H 1 n.$XXXW.S.N.m.m.m.m.N.N.C.A.A.C.N.N.m.m.m.m.m.m.",
"m.m.m.m.m.m.N.N.C.A.A.C.N.N.m.m.m.m.V.S.{.z.1 H U H U 2 _ 9.u.7.t.0.$.F U W E H 1 h '.W.S.N.m.m.m.m.N.C.S.E.E.S.C.N.m.m.m.m.m.m.",
"m.m.m.m.m.m.m.N.N.N.N.N.N.m.m.m.m.m.V.S.n.O H W A A D S H _ 7.7.7._ R D D D U Y Q $ l W.A.B.m.m.m.m.N.A.E.|.|.E.A.N.m.m.m.m.m.m.",
"m.m.m.m.m.m.m.m.m.m.m.m.m.m.m.N.N.B.C.S.^.+ 1 Z 2 Z S D T P 8.7.7.I Y D S D S D 1 d |.W.S.C.N.N.N.m.N.Z.E.|.|.E.Z.N.m.m.m.m.m.m.",
"m.m.m.m.m.m.m.m.m.m.m.m.m.m.N.V.C.A.T.W.!.~.+ n 1 Z S U T ~ 8.( 9./ R Y A Q $ m qXb E.E.T.S.A.C.V.N.N.C.S.E.E.S.C.N.m.m.m.m.m.m.",
"m.m.m.m.m.m.m.m.m.m.m.m.m.m.N.C.A.E.W.|. X$Xd 9X9 Z 3 S S ( 9.^ 7.9.F H A K $ gXMXc S.E.E.W.E.A.C.N.N.V.Z.A.A.C.B.N.m.m.m.m.m.m.",
"m.m.m.m.m.m.m.m.m.m.m.m.m.m.N.A.E.!.XXXX$X$Xh q.& L a ^ ^ q.8.7.( 9.{ / ~ w $ w.MXc C.S.{.|.!.E.A.N.m.N.N.N.N.N.N.m.m.m.m.m.m.m.",
"m.m.m.N.N.N.N.N.N.m.m.N.F.F.K.^.{.XX$X$X$XXXh w.O ^ 8.i.i.8XeXeXeX0Xt.u.| 0 * i cXc V.A.{.|.|.E.S.C.N.N.N.N.N.N.N.m.m.m.m.m.m.m.",
"m.m.N.V.C.Z.A.C.B.N.N.H.L./.(..X X$X$XXX|.Q.h aX* | 0.t./ K K K K F L { X.#.i a y.b N.C.S.E.W.E.T.S.S.S.S.S.A.C.N.N.m.m.m.m.m.m.",
"m.m.N.C.S.E.E.S.C.N.F.L.).OX#X#X%X%X$X!.W.S.j 9X{ 0.a 9.I R R R R R P ~ 1.4.w t u.C N.V.C.A.S.T.E.W.W.W.W.W.E.S.C.N.m.m.m.m.m.m.",
"m.m.N.A.E.!.|.E.A.B.F./.OX:X<X-X&X%XXXQ.S.J.; r ..4.u.i 7 7 7 7 7 7 7 , p / 3 F p v.m.N.N.N.C.S.E.|.XXXXXXXX|.E.Z.N.m.m.m.m.m.m.",
"m.m.N.A.E.!.|.{.^.K.^.].>X2X2X-X&X%X|.E.A.x.O ( | t.p s s.s.d.f f d.s.s.f 0 1 2 1 j m.m.m.m.V.A.E.!.XX$X$X$XXXW.S.C.V.V.V.V.V.V.",
"m.m.N.C.S.E.{.{./.(.].@X:X2X2X-X#X.XE.S.C.N.f.d & , f s.l.s.s s = s s.s.s.f @ < d h.m.m.m.m.N.Z.S.E.W.|. X$X$X|.W.S.S.S.S.S.S.S.",
"m.m.N.B.C.Z.L./.OX+X>X:X,X4X,X@XOX^.A.C.N.N.N.n.= f s.s.s.f s M.f.= d.s.s.s.= x.B.N.m.m.m.m.N.V.C.Z.S.W.|.$X$XXX|.Q.W.W.W.W.W.W.",
"m.m.N.N.N.N.K./.+X:X2X4X4X3X,X@X_.L.N.N.N.m.N.n.+ V N z k - g m.h.< k z z N , z.N.m.m.m.m.m.m.N.N.N.C.S.W.XX$X$X$XXXXXXXXXXXXXXX",
"K.K.K.K.K.K.L._.@X,X3X3X3X3X,X+X_.K.m.m.m.m.N.n.; nXNXNXbXb z m.h.> bXNXNXNXC z.m.m.m.m.m.m.m.m.m.m.N.S.W.XX$X$X$XXXXXXXXXXXXXXX",
"/./././././._.+X:X2X3X3X3X3X,X+X_.K.m.m.m.m.N.n.b + & : ; ; h.m.j., > > > > < b.m.m.m.m.m.m.m.m.m.m.N.S.W.XX$XXX|.|.{.{.{.{.{.{.",
"+X+X+X+X+X+X@X:X,X4X3X3X3X3X,X+X_.K.m.m.m.m.B + c m 9XaXB N.m.m.m.M.z.C 8Xv c ; z N.m.m.m.m.m.m.m.m.N.S.W.XX$X|.W.S.S.S.S.S.S.S.",
",X,X,X,X,X,X,X2X4X3X3X3X3X3X,X+X_.K.m.m.m.b.. I.rX6Xw.fXB G.m.m.m.m.c.q.gXm 7XC . n.m.m.m.m.m.m.m.m.N.S.W.XXXXW.S.C.V.V.V.V.V.V.",
"3X3X3X3X3X3X3X3X3X3X3X3X3X3X,X+X_.K.m.m.m.f.  c b c 9 n d G.m.m.m.m.z v ) 9 b 9 . n.m.m.m.m.m.m.m.m.N.S.W.XXXXW.A.N.m.m.m.m.m.m.",
"3X3X3X3X3X3X3X3X3X3X3X3X3X3X,X+X_.K.m.m.m.G.z.z.z.f.f.f.b.m.m.m.m.m.b.f.z.z.f.f.h.m.m.m.m.m.m.m.m.m.N.S.W.XXXXW.A.N.m.m.m.m.m.m."
};
