/* XPM */
static char *result[] = {
/* columns rows colors chars-per-pixel */
"64 64 35 1 ",
"  c #6499BA",
". c #699EBE",
"X c #6B9FC1",
"o c #6DA3C4",
"O c #72A5C6",
"+ c #78A6C6",
"@ c #77A8C7",
"# c #7BAAC7",
"$ c #76A8C9",
"% c #7CABCB",
"& c #7FB0CF",
"* c #7FADD0",
"= c #7FB0D1",
"- c #80A7C5",
"; c #84ABC6",
": c #83AECD",
"> c #88AFCE",
", c #85B1CF",
"< c #89B1CE",
"1 c #83AFD0",
"2 c #85B2D1",
"3 c #8CB5D3",
"4 c #8EB8D6",
"5 c #8BB7D8",
"6 c #8EB9D9",
"7 c #91B6D4",
"8 c #93B9D6",
"9 c #99BCD6",
"0 c #94BBD9",
"q c #99BEDA",
"w c #97C0DE",
"e c #9CC1DC",
"r c #A1C2DD",
"t c #9EC3E0",
"y c #A2C5E0",
/* pixels */
"90500484>44e98<:q420%032845700e835e32806499ew#ee<839474248338747",
"045q0683O383,7803:388083;5q0443:853300844777ere<,4838ww808288374",
"731033245qo:<45>7<8qe8833804:e43080340084<747w$w4083,344w4800720",
"q0881270q064q7;r8041838474530q78<<7<882,<e88244200,388w348835700",
"q978>3440q738q87,04347079q33857330rq883389880377043438830e4<>888",
"04q8373208338e:77860<4qq800e7:8:7897094847773077023728844w87<799",
"38q93984e03748+9930853077000:;<80448934330<4qw7<q3e944<320w99973",
":7887888806448<77:8488338055q87q830q088340<7,4<9e30473&24w4<9330",
"q>733084534580823346004722544ee8e8e80e870780%7<qq400q000084&<342",
"242440330300000:234007473280<0<300838e899<82578q3308$70q4,<,888<",
"302#70,383408q875300000434084<4428843009043230437702%406340e424<",
"073,853344432q320w00009434028qw840443<9334343332080345000w4<3,04",
"777604:8884227:3qw008wq34842078804q3004445703,42e3<260000617<88e",
"7079eq3873716878286488354423470<%2e30400e08,28830<7480043%349403",
"1300eq83480077>95400433888427.30&03,08ew4334400%q887014q01336583",
"19077002273>1999;1ewqe88<7ewq3q0#233588083,0w3e4r79e3$q023003338",
":72r83><:3008098<70847q08eqq87q943qtw80<,37840934378wee74330q7<<",
"8q79978870q000#4q98O084877943039-058&w68979e$88<073qw2o:380w0008",
"q9979>3773,308559q884O34408;<0w3qq%4394849q87;><8000434<084:80q7",
"e7833889q04804,89q334484%443464848%88488878072>e7q44844<4,2X3707",
"4803700q93442<84<<4830e7:,2330034<q9840400<4<8889q0e33<94,308w78",
"78740q073<8324438w4w7<8461234<4%e<7:4ee7070<379975q0437332400082",
"q360448843835w74w3,4034546077,220<3200<#54733377784%,83:,0084242",
"734022888484849qw32e433<>64734088,,744400848q88::042,q7:308444,4",
"90>612736930424e488484,,70447005$q38877<3066807:%00004,4004077,4",
"67794777344q8284#34w033786887q222w49q94%4e0040q3705238394249077<",
"7879008842488503,w0w8:40330q99%0q578988qw08r0009q525319000838073",
"4378q9778883935300w032800008840e3443338q83802%8q0%446200444304:4",
"6303487778370:29q45e380866688840:550445837<33303q43:00w66q97803>",
"0>8q43205330837q5300382%o:077045q779428qq7:461>qt734q00667%34380",
"7:0q3<436448703e4%7297,,4:57:392*r964404530#04306q765%3q90330079",
"64463333007q8q7q4q3<73:37424395,001:#%0q0:347767qq992:071611099q",
"88<3<7008804,9;4q3,7,ee97784<84Oeyq988q833O38988wqq7%87237<70728",
"038380032463o898q37,444<,8337ew89O49705:3088#320e989qq03:4q8q+36",
"070878356e00884#40e832338833e84w08qrq3%q430030q033w03253:28q009:",
"q709qq23w870q32,ewr04400e7<8e8066q:84qq03003400686843333400q000:",
"y34800e04,<984,#ere73383<38w0744018,34330646005q334533738e8<4622",
"q1:80803,384335owr0::<33,4443e78710823854034t0:y,85234440w878:26",
"3>40550004,8840000wO7348<43&3q397828422<47%402102033370440809,%w",
"<3082350w8%887384=854800874,wq<q873w0844q7:0062q4838730044494744",
"3q8477:404588#04422747737973r3<9q<933360q707t4>r8338444843773732",
"7e308734q037#%070840<<7139<884%,98013376067qq7009380,3884807:448",
"802032870088205343803306873430%397980702007qq0039888328343:,:338",
"$e25637798008#:084897400878400,q347q9863ee799766q77e8q42852<<835",
"700>66379:3871$0q38:3608047766w096,39<0q73667706<qqq0q640089792,",
"0360067<7:3323367146473336636q0078e>;9061366663570886658000879%0",
":376333700qyq320:7737374130647470*85q04457qe01q30:8t06004079q3we",
"O#36w06q060%064r00530q47376663690t05700376063:y37q:89706$3088830",
"030wwr72,533<<w7qe334ee<300.496308ee3,eee850e930:938%:7e<<083048",
"3106223<3445039000%54352448060769&<07878838q37q39750549030w6qe30",
"070:7840088e0e80:q70e4<24w800077328e8<848we737q77030077728e%88q5",
"4006q048e454,0<74882<0<,8ew4qqq78%w8848843493980<37qq0478q420849",
"38q0987355345;#873,q:33788380783348407w8438e77>:80084538378,ww8e",
"3980q97348#24,7w8030460004%301400008<,488373>733004<4,73700wr&&0",
"380q700073334584q97460040847337063w33,<0804799770323e898e98005%e",
"*800:98333356043067338524837748,28e3<97448=<90903@4809q099882888",
"2454,w62<8438737q073333333438073&8w<4w7875663389,:90099088833803",
"4348345,58:387>380887<1733346q4w<e3<488863370773000,e8<389844844",
"4we,O85387337333$0q999493<33844e32w,44w8336wqw630872774404230840",
"44w2,888834046q73q7878843326070w248,0<3<7800704700348eq04882034w",
"e88080843:7405qeq3797,44447304q64q3qw547>33743300242<w4884440<Oe",
"@w4 032406620000y00075004>3<83e3qq3q8e99q33:47ww06004w00w433ee<e",
"4822q3508q8;>,1w369437e89eq:2422q08,0989847300520205532<448883we",
"0w2543840qe<7%326w0073<489880q650503773423<8034qe42043253388432<"
};
