/* XPM */
static char *result[] = {
/* columns rows colors chars-per-pixel */
"64 64 192 2 ",
"   c #020202",
".  c #080908",
"X  c #0B0D0B",
"o  c #100F0E",
"O  c #0F110E",
"+  c #14140F",
"@  c #0F1215",
"#  c #131512",
"$  c #161914",
"%  c #191C16",
"&  c #14191C",
"*  c #1B1E1A",
"=  c #201904",
"-  c #231C14",
";  c #1E221B",
":  c #332909",
">  c #21261E",
",  c #2A2519",
"<  c #352A1D",
"1  c #171D22",
"2  c #1C2224",
"3  c #1E262C",
"4  c #1E2A32",
"5  c #232622",
"6  c #292621",
"7  c #252A23",
"8  c #292D26",
"9  c #222A2E",
"0  c #2B2D29",
"q  c #3A2F21",
"w  c #2D312B",
"e  c #3C3122",
"r  c #31342E",
"t  c #232D34",
"y  c #25323B",
"u  c #2E3638",
"i  c #2A343C",
"p  c #343632",
"a  c #363933",
"s  c #363A3A",
"d  c #3C3E3A",
"f  c #671803",
"g  c #493503",
"h  c #713108",
"j  c #473A2A",
"k  c #413B31",
"l  c #3D403A",
"z  c #5D4504",
"x  c #674A04",
"c  c #765708",
"v  c #53432F",
"b  c #494239",
"n  c #594B3A",
"m  c #624F38",
"M  c #6A563C",
"N  c #726235",
"B  c #2D3B45",
"V  c #2D3C45",
"C  c #323E46",
"Z  c #303E49",
"A  c #33414C",
"S  c #3B454D",
"D  c #374753",
"F  c #364956",
"G  c #3B4A55",
"H  c #3E4D59",
"J  c #3D5463",
"K  c #494A47",
"L  c #564F46",
"P  c #485154",
"I  c #45525A",
"U  c #565853",
"Y  c #5D5E5A",
"T  c #685E49",
"R  c #735E41",
"E  c #796348",
"W  c #62645E",
"Q  c #7F6850",
"!  c #445866",
"~  c #4B5A64",
"^  c #4B5E6D",
"/  c #475F70",
"(  c #54626C",
")  c #4E6576",
"_  c #576A78",
"`  c #666763",
"'  c #6D6D69",
"]  c #71716E",
"[  c #757672",
"{  c #7F7F7B",
"}  c #9B0105",
"|  c #AC0E10",
" . c #833702",
".. c #B92E05",
"X. c #CB0707",
"o. c #CF1A07",
"O. c #E60109",
"+. c #F60009",
"@. c #ED1F07",
"#. c #DB2A07",
"$. c #EF3B06",
"%. c #EE1C22",
"&. c #896406",
"*. c #99730E",
"=. c #AB7B01",
"-. c #846A4B",
";. c #897051",
":. c #8A7050",
">. c #937753",
",. c #C35254",
"<. c #B68403",
"1. c #DE8704",
"2. c #C99404",
"3. c #EF9B01",
"4. c #DEA101",
"5. c #E9A900",
"6. c #F3AC01",
"7. c #FAB500",
"8. c #FFB900",
"9. c #C69D33",
"0. c #E4B535",
"q. c #9E8059",
"w. c #A5865E",
"e. c #82827E",
"r. c #B59266",
"t. c #DFB74B",
"y. c #C09B6D",
"u. c #EEC557",
"i. c #556E82",
"p. c #5A7588",
"a. c #5A768B",
"s. c #647989",
"d. c #617D92",
"f. c #668499",
"g. c #6B8AA1",
"h. c #6D91AA",
"j. c #7493AB",
"k. c #7B98AE",
"l. c #6B94B0",
"z. c #7C9DB5",
"x. c #7B9EB9",
"c. c #7CA2BD",
"v. c #6B9FC1",
"b. c #6DA4C5",
"n. c #73A6C6",
"m. c #7BA5C2",
"M. c #77A8C8",
"N. c #7CABCB",
"B. c #7FB0D1",
"V. c #858682",
"C. c #8A8A86",
"Z. c #928F8B",
"A. c #9A9A95",
"S. c #9C9D99",
"D. c #A1A19C",
"F. c #84A4BD",
"G. c #AAAAA6",
"H. c #B3B3AD",
"J. c #B9BAB4",
"K. c #BABBB5",
"L. c #C2B7B1",
"P. c #C3C2BD",
"I. c #81A6C2",
"U. c #84AAC5",
"Y. c #83AECC",
"T. c #89AECC",
"R. c #85B1CE",
"E. c #8AB1CE",
"W. c #82AFD0",
"Q. c #85B2D1",
"!. c #8CB5D3",
"~. c #8EB8D6",
"^. c #8BB6D8",
"/. c #8EB9D8",
"(. c #91B6D4",
"). c #93B9D6",
"_. c #99BCD6",
"`. c #94BBD9",
"'. c #99BEDA",
"]. c #97C0DE",
"[. c #9CC1DC",
"{. c #A1C2DD",
"}. c #9EC4E1",
"|. c #A2C5E0",
" X c #C6C6C1",
".X c #CACAC5",
"XX c #CECEC8",
"oX c #D4D4CE",
"OX c #D6D6D0",
"+X c #DBDBD5",
"@X c #DEDED8",
"#X c #E2E2DC",
/* pixels */
"_.`.^.`.).~.`.!.!.~.~.'.'.).E.Y._.~.Q.).B.`.R.!.`.~.~.~.`.`.[.).!.!.'.!.Q.).`./.~._._.[.].N.[.[.R.(.~.(.~.~.).!.~.).!.!.).(.~.(.",
"`.~.^.'.`.`.).!.n.Q.).(.Y.).`.`.!.Y.^.).).`.`.(.N.!.'.`.~.).^.Y.).^.!.!.`.`.).~.~.(.(.!.[.{.[.E.R.).`.~.).`.].`.).).Q.~.`.!.).~.",
").!.Q.`.!.Q.Q.~.~.'.b.N.!.~.!.T.(.E.`.].[.`.).E.!.).`.).Y.'.~.!.`.~.`.!.~.`.`.`.(.R.E.~.(.].M.]./.`.(.~.R.~.~.~.`.~.).`.`.(.W.`.",
"'.).).).Y.Q.).`.'.`./.)._.(.T.'.`._.!.Q.).E.(.~.).~.!.^.`._.).`.!.E.(.E.).).R.R.(.[.`.).!.!.!.Q.`.).Q.E.(.).`.~./.`.).!.!.!.`.'.",
"'.`.).`.Y.!.~.^.`.'.).!.).'.`.(.R.`.~.Q.(.).).(.`.'.!.Q.).~.(.!.E.`.{.'.`.`.E.!.`.(._.`.`.^.~.~.].z.!.~.!.).(.~.`.].(.E.T.).`.).",
"_.!._._.E.).!.Q.`.).!.!.).'.Y.(.(.)./.`.E.!.].[.`.).`.[.).R.(.Y.(.`.`.).`.).).`.~.(.(.(.!.`.~.F.a.A !.).R.`.~.~.).].).(.E.).'.(.",
"~.)._.(.!.`.(.).'.`.!.~.!.).n._._.~.`.).!.^.`.(.(.`.`.`.Y.U.E.`.'.~.~.)._.!.~.!.!.`.!./.`.E.p.G O @ [.).~.~.R.!.Q.).].[._._.(.!.",
"Y.~.`.`.(._.`.(.).).).~.~.(.(.(.E.R.).~.(.`.~.E.).`.!.~.`.`.!.'.`.Q._.`.`.).).!.~._.Q.f._ I % O ; # ].!.).!.R.Q.~.[.(.E.).!.!.`.",
"'.Y.).!.~.`.).~.^.!.~.~.j.^ E.W.!.!.~.~.'.`.~.(.Q.R.Q.!.(.[.].].'.).[.).`.[.`.E.f.~ ~ C 5 $ > > > & i.`.'.)./.`.).).~.N.~.E.~.Q.",
"!.).W.~.~.`.!.!.`.!.`.`.D . k.E.Q.Q.~.`.`.~.~.`.!.R.].].!.).E.~.`.'.~.F._ I H H s 5 5 5 0 > > > > * 2 `.M.).`.[./.R.R.R.).).].Q.",
"!.`.Q.N.!.`.Y.!.`.!.~.'.t M s !.^.!.`.].`.`.`.~.!.~.].).!.(.T._ C A A V r 9 8 8 w w 8 5 > > > > > > 1 Q.N.~.`./.!.~.]._.~.R.(.E.",
").).E.Y.`.~.!.!.~.~.~.Q.a.k   N.).`.].`.`.).'.!.Q.~.T.) i y y 3 * > 5 7 8 w 8 8 8 ; [ D.l > > > > > & a.~.~.`.`.).].(.!.~.R.).~.",
").).!.`.`.~.Y.).).).!.W.Y.1 m B ].[.).).).[.].N.^ 3 3 ; ; ; ; ; 7 7 7 7 > > > > > b H.#Xe.l > > > > * i /.`.`.`.`.~.Q.).E.`.).[.",
"(.).(.`.'.'.!.`.~.(.).W.).1 :.  Q./././.).g.3 ; ; ; ; ; > > ; ; > > > > > > > 2 ; 7 A.@XOX.X> > > > * 9 )./.`.~.^.N.!.(.`.E.`.!.",
"W.!.`.(.{.'.).!.~.)._.`.).U.* - ) ^.].j.# $ ; ; ; 7 ; ; > > ; ; > % : =.<.g $ ; 2 $ A.#X#X#X8 > > > ; 2 i.Q.~.'.).R.^.R.).^.).!.",
"W.).`.`.).).).Q.W.).!.W.T.'.# y.. m.t X ; 8 > > ; ; 7 2 > > ; ; =.7.7.8.8.5.5.&.; C.+XoXK 8 > > > > > 7 4 M.[.`.R.^.`.).^.!.!.`.",
"T.(.W.{.).!.T.E.Y.!.`.`.).).I R X   # r 8 > > * e.#XW > > > $ 6.7.8.8.8.5.2.=.=.&.Z.@XP ; > > > > > 5 > i ].].(.!.!.Q.`.].!.E.E.",
"(.'.(._._.).).).(.`.'.`.U.G y   . 6 a > > > > ' OX#XW ; > , 5.g &.8.7.6.6.4. .f X.,.W r > 8 > > > > > 8 w / n.Y.E.`.`.[.`.'.`.`.",
"'._._.(.).T.!.(.(.!.E.W.9 # *   p r 7 5 > > > { #X#X] l > z 4.5.3.3.1.f } +.+.+.O.o.h e = c , > > > > 8 w A ~.E.'.).~.Y.~.`._.(.",
"'.).).(.!.).)._.'.`.~.`.! 3 1   . r r r > > U P.P.P.OX#XW 1.1. .} O.+.+.O.X.@.#.h x <.2.x = > > > > > 7 r u h.E.~.Q.R.v.!.)._.(.",
"!.).`.!.).`._.'.'.!.!.).Q.E.A X   ,   % 0 > % U ` a e.P.L.%.+.+.O.X.#.$...g *.0.9.T 6 * > > > > > > > 8 d 5 D (.!.R.!.).).`.).).",
").).`.!.`.'.`.).E.!.).!.Q.~.& $ . -., @ % > > > > > ; P m | o.$.#.h c 0.t.N 5 ` G.oXU & > > > > > > > 7 l 0 u j.!.Q.~.`.`.`./.^.",
"_.E./.`.~.~.).).!.!.).!.^.`.I . I % ;.& X % > > ; ; , x c h g 9.u.z & C.XX`     5 G.Y > > > > > > > > 7 d p # J !.~.`.).~.Q.~.R.",
").~.~.`.Q.W.).).`./.).~.`.~.F.~ (.+ w.& D . % > ; # : c *.q.[ H.[     p S.0       [ U > > > > > > > > 8 d r % t g.'.).~.~.~.R.~.",
"'.`.T.).W.W.).!.)._.!.`.~.Q.).].(.^ m k ! . X > > * $ * > b OX#X      # ' `     a Y a > > > > > > > ; 5 a w ; + / ).~.`.(.).Y.(.",
").!.!.`.!.).).(.E.^.~.'.).R.).~.m.x., ;.B F   & > > > > > ; U @X$     ; { ` { V.' a ; > > > > > > > > 8 p 7 > O 3 f.~.)._.~.!.!.",
"(.`.(.).`.`.)._.!.Y.~.`.).^.'.!.Y.T.6 >.y i.  X ; > > > > > $ U S.Y d D.S.K +XG.e.A.K ; > ; > > > > > 8 p ; > #   ) E.(.).`.(.!.",
"^.(.(.).'._.(.(.`.`.`.!.`.!.^.!.`.).s.e L ) V   + > > > > > > ; U p D.@XP.W {  X{ K C.G.w ; 8 O > > ; 8 a > > #   & f.!.`.).Y.!.",
"`.!.`.!.`.~.`.(.(.).!.~.`.Y.Q.`._.~.h.- ;.D _   + > > > > > > > 2 C.oXoX@X XD.[ e.Y D.#XK.H.K.H.> > > > 7 > > O     Z x.).`.!.T.",
").T./.'.!.!.Q.`./.Q.!.`._.!.(.'.!.!.F., R Z i.. O ; > > > > > > V.H..X] ] A.A. X{ A.` D.#X#X#XXX> > > > > > > #     . g.~.!.`.`.",
").W.`._.!.!.!.Q.`.!.~.).!.`.E.{.^.M.!.d.- L / Z   $ > > > > > O +X.XH.oXoXG.K Z.+X+XW w K.#X@Xa > > > 7 > > $       . d.`._.(.).",
"/.!.)./.!.!.E.~.`.`.).'.).'.(.'./.{.!.g.q -.G /   $ > > > > > oX#X X.X+XoX+X+X@X#X#XW ; J.#XP.8 > > > > > > #       i.W.`._._.'.",
"(.`.E.E.E.~.`.`.~.)./.~.R._.U.!.[.!.E.F.K m I ^   $ > > @ P.#X#XOX# 0 @X#X#X#X#X@XW % > % 6 > > > > > > > $     y h.!.).`.).T.`.",
"`.!.).!.`.'.`.Q.Q.~./.~.n._.).`.`.!.E.Y.f.< m .   # > > X K.@X#X{ ; 2 d XXXXXXXX` % > > > > > > > > > ; #   X J N.~._.`.`.n.!./.",
"`.(.`.`.(.`.~.!.`.[.`._.~.).~.N.).].[.`.f.j R 2 2 # > > ; e.A.@X+XX 5 - * X # ; > > > > > > > > > ; $ . 1 B f.Q.Y.W.`._.`.`._.Y.",
"'.).`._.'.`.Q.!.]./.(._.].E.Q.R.].`.{.`.F.I j d 2 # > > > > + H.H.$ 5 > > > > > > > > * * % * % 5 1 3 A x.Q.).!.~.`._._.`.`.`.W.",
"|.Q.).`.`.`.[.'.!.E.E.).).~.R.M.[.{.[.(.E.a.v M   $ > > > > > ; ; > > > ; * $ % % % t y B i y C J j.!.!.!.!.).!.`.'.).!.~.`.Q.B.",
"'.Y.W.~.].`.).Q.R.(.).~.!.!.~.b.].{.`.R.Y.d.n m O ; 5 8 8 > > ; $ $ $ * 9 i V V C D a.I.`.`.Y.|.Y.`.!.^.!.~.~.~.`.`.).).).Y.Q.).",
"!.Y.~.`.~.^.`./.`./.R.).).~.`.`.`.`.[.b.(.c.( , $ 8 w w 0 $ $ ; D G F ! d.c.Q.Q.).).N.^.`.Q.W.`.Q.`.!.^.!.).`./.~./.`.)._.Y.N.`.",
"T.(.`.`.Q.Q.~.`.[.).N.).).(.!.(.~.B.).E.j.) C   ; w 5 $ 2 I ! _ E.(.!.].`.).^.`.`.(.T.).'.~.W._.~.`.!.~.).!.).).~.`.)._.).!.~.~.",
"(.'.`.!.(.!.Y.(.`.).^.).).M.`.~.~.Q.Q.!.p.  . X % # C ^ s.T.E._.'.(.`.!.!.E.).`.'.).`.).'.).Q.|.`.!.R.`.!.~.!.`.^.!.).(.!.).!.E.",
"(.'.!.`.`.).!.!.`.`.!.(.M.N.`.~.`.).!.`.z.A   . j < i.!.`.~.N.R._.(.`.Y.!.!.`.^.`./.(._.'.~.)._._.!.).`.Q.!.`.).!.`.`.!.Y.!.~.~.",
")./.Q.`.Q.Q.).(._.`.).`.R.`.~.E.~.!.).`.j.t X   M v s.!.!.`.N.!._.(._.).).).`.^.).`.(._.'.'.`.Q._._.)._.!.Q.`.E.(.~.Y.R.R.!.!.`.",
"M.[.^.^./.!.).).`.).`.`.`.N.E.`.).~.)._.d.. + & T m _ T.`.`.R.'.!.(.(.'._.`.~.Q.[.'.`.`.`.~.).)._.~.)._.).].).W.).^.Q.E.E.`.R.^.",
").`.`.W.)./.!.(._.Y.!.).~.Y.M.`.'.!.(.Y.i.. D z.I R b g.`.^.[.`.`.).R.!._.E.`.'.(.!.`.^.!.).`./.E.`._.'./.[./.~.`.`.)._.)._.R.R.",
"`.R.).`.`.).(.T.!.Y.!.!.Q.!.!.^.).W.!.~.T.z.c.!.! E j f./.`.`.`.).).].E.U.).`./.Q.Q.).^.)./.).^.).`.).`.)./.^.`.`.`.`._.(._.N.`.",
"T.Q.~././.W.Q.).`.`.'.[.'.^.Q.`.Y.!.(.!.).!.~.~.) n n ~ m.).Q._.`.N.).^.'.).~.).^.`.`.'.`.W.'.Q.`.Y.).[.`.~.`.`.~.`.(.)._.!.].[.",
"n.N.^.).[.`.`.'.`.`.`.Y.~.`.).{.`.`.~.!.`.`.~.).T.G -.q h.!.)._./.|.`.~.`.`.`.!.).(.`.).^.Y.}.!.).'.Y.).`.).`.!.M.!.`.`.`.).!.`.",
"`.Q.`.[.`.[.`.Q.R.!.^.!.E.Q.`.`.'.].!.~.).[.`.E.!.H :.q F.(.(.!.`.(.[.[.Q.R.[.`.'.).^.`.'.).!.).Y._.!.`.N.Y.`.'.!.E.).).!.`./.).",
"!.W.`./.Q.!.!.E.~.~.~.~.`.~.).`.`.`.N.!.!.!.!.^.).) E E ( T.).(.[.B.E._.).).)._.`.!.`.'.!.)._.!._.(.Q.`.Q.~._.`.Q.`.[./.`.{.!./.",
"`.~.`.Y.(.).~.`.`.).).`.`.'._.).Y.'.(._.[.~.Q.Q.~.(.A >., z.).(.!.R.).].).!.(.~.).'.'.).(.).'.).(._.~.`.).).(.(.Q.`.'.W.`.).'.~.",
"~.`.`.`.`.`.).).`.`.~.~.R.'.E.(.~.`.~.Q.E.`.E.R.).].A >.< j._.).(.N.`.~._.~.).).~.^.~._.!._.).`.!.!.(.'._.`.).).).'.).W.`.).~.'.",
"!.)._.`._.`.).!.^.!.~.^.^.Y.n._.).!.Y.'.W.Q.!.).).)./ Q M I E.!.!.~.~.~.`.~.].~.!.!.).].(.`.T.W.~.`.`.).~.!.~.(.(.).`.Q.'.`.`.].",
"!._.`.`.'._.(.E.!.).N.Q.!.E.).'.).).!.`.).).`.`.`.(.m.s w.% F.`.].`.).(.!.R.(._.).!.(.(.T.(.E.!.`.`.).R.~.R.!.!.(.`.`.`.[.B.R._.",
"!.).`._.(.`.`.`.).!.E.~./.!.`.^.'.`.).!./.`.`.~.).).~.i >.< F.(.).~.].!.E.E.E.`.`.).~.(._._.).).`.!.Q.!.[.)._.`._._.).`.`./.M.[.",
"N.`.`.`.Y.`.`.!.E.!.!.^./.`.).Q.`.(.).!.!.`.~.Q.~.`.!.! -.-.P N.Q.).[.!.R._.(.~./.).B.E._._.).).!.n.).).`.'._.`._._.~.`.Q.).~.`.",
"Q./.!.~.R.`./.Q.!.).~.!.).).W.).'.`.~.!.T.!.!.Q.~.Q.!.x.d r.o U.N.).).E./.].(.(.).Q.).!.!.!.)._.R.Y.`.`.`._.).`.).).).!.!.).`.E.",
"!.!.~.`.Q.~.~.R.~.~.Y.!.).).T.(.).`.).).).!.W.).!.!.~.!.9 w.- F.R.[.!.!./.).(.].`.Q.^.`.).`._.Q._.`.`.E.[._.E.!.).'.(.~.~.).)./.",
").].].R.n.).^.!.).).!.!.).!.!.!.M.`.'._._.`.(._.!.!.E.^.C :.>.S /.Q.].R.~.).].(.~.!./.'.`.'./.W.`.~.).Q.(.(.~.).`./.R.!.).)./.].",
"~.~.].^.R.`.).).).!.~.).~.~.`.).^.'.(._.(.).).!.!.!.E.).z.r y.X Q.).).R.].Q.!.E.!.).`.`.).`./.).).`.!.).(.].`.`./.).).Q.].E.~.].",
"].`.)._.`.`.).~.Q.Y.).~.).!.[.[.'.!.!.`.(.Y.~.~.).~.).!.'.1 r.. Y.'.!._._.!.~.(.E.!.!.).~.^.!.`.`.Q.~.Q.Q.`.~.).]./.~.~.).E.n.].",
"M.].^.l.`.!.Q.~._.~./.T.`.`.`.`.|.`.`._.).^.`.`.!.T.!.T.).t w.E ( '.~.`.~.[._.[.].E.!.T.~.!.[.].`./.`.`.`.`.].`.)./.E.!.[.].E.[.",
"/./.Q.Q.'.!.~.`.).`.`.Y.Y.W.B.}.Q.)._.!.!.).[.)._.'.'.Y.Q.c.% X i ).`.R.[.).(._.`.!.(.E.`.).^.Q.`.Q.].^.~.!.Q.R.~.~.).).(.!.[.[.",
"].].Q.^.~.~././.`.'.{.T.(.Y.Q.W.^.[.]._.!.!.E.~.`._.`.).'._.!.W.).^.`.(.!.(.E.~.Q.!.!.`.`.!.~.'.[.~.Q.).~.~.Q.!.!.~.).).~.!.!.R."
};
