/* XPM */
static char *result[] = {
/* columns rows colors chars-per-pixel */
"64 64 237 2 ",
"   c #0E080D",
".  c #140A0F",
"X  c #0E0912",
"o  c #140C12",
"O  c #170A15",
"+  c #1C0B1B",
"@  c #1B1215",
"#  c #1C141A",
"$  c #1C171A",
"%  c #23160E",
"&  c #210D19",
"*  c #22141C",
"=  c #251A1C",
"-  c #342419",
";  c #1E0B23",
":  c #1F1420",
">  c #250C2A",
",  c #280A29",
"<  c #300A2C",
"1  c #231423",
"2  c #251B24",
"3  c #261827",
"4  c #2B132C",
"5  c #2C1C2B",
"6  c #311D26",
"7  c #2B0D32",
"8  c #370A38",
"9  c #2E1634",
"0  c #321333",
"q  c #331B34",
"w  c #38163A",
"e  c #3B1B3C",
"r  c #262227",
"t  c #2B2125",
"y  c #2B232B",
"u  c #352629",
"i  c #2C2834",
"p  c #342334",
"a  c #372A37",
"s  c #342D35",
"d  c #3B243D",
"f  c #3B2B3B",
"g  c #39353B",
"h  c #4B180F",
"j  c #7D1D0D",
"k  c #532918",
"l  c #4C2B2D",
"z  c #572126",
"x  c #453224",
"c  c #44323A",
"v  c #673A29",
"b  c #72392A",
"n  c #3C4134",
"m  c #694F26",
"M  c #6D4C2A",
"N  c #6C4131",
"B  c #3D0841",
"V  c #3C1443",
"C  c #3B1C42",
"Z  c #3D2641",
"A  c #333747",
"S  c #373B47",
"D  c #3A3B44",
"F  c #45084A",
"G  c #441647",
"H  c #441B4B",
"J  c #55164A",
"K  c #4A0954",
"L  c #540959",
"P  c #4C1854",
"I  c #54175A",
"U  c #61165D",
"Y  c #422442",
"T  c #432B43",
"R  c #49284A",
"E  c #473647",
"W  c #4D2353",
"Q  c #4E2C52",
"!  c #522C54",
"~  c #55265A",
"^  c #5A2C5D",
"/  c #4B3251",
"(  c #533455",
")  c #533C55",
"_  c #5A3B5B",
"`  c #632D5B",
"'  c #581C65",
"]  c #661666",
"[  c #67176F",
"{  c #641C6D",
"}  c #5A2364",
"|  c #5C2866",
" . c #5B3963",
".. c #5A2470",
"X. c #65296B",
"o. c #722A6E",
"O. c #663869",
"+. c #642474",
"@. c #6D2976",
"#. c #762B7A",
"$. c #693675",
"%. c #773779",
"&. c #3C424D",
"*. c #3C4452",
"=. c #48454A",
"-. c #4C4B55",
";. c #484B58",
":. c #574458",
">. c #4F545C",
",. c #705744",
"<. c #5A4866",
"1. c #4C5766",
"2. c #565B65",
"3. c #664768",
"4. c #69546B",
"5. c #6C4872",
"6. c #6E4C70",
"7. c #754779",
"8. c #75537B",
"9. c #765779",
"0. c #55606F",
"q. c #586778",
"w. c #646B79",
"e. c #79607B",
"r. c #96320F",
"t. c #A43A08",
"y. c #AC7118",
"u. c #89522D",
"i. c #905E27",
"p. c #B8532A",
"a. c #B36531",
"s. c #C47117",
"d. c #CD6939",
"f. c #D66036",
"g. c #82387E",
"h. c #A66F40",
"j. c #BA6A47",
"k. c #D3724B",
"l. c #CE8D19",
"z. c #D9AB15",
"x. c #E7AA19",
"c. c #D1942A",
"v. c #D8A72A",
"b. c #F3B72F",
"n. c #F9C42D",
"m. c #A5885B",
"M. c #D89649",
"N. c #EBAC4C",
"B. c #EFC34F",
"V. c #6F2D85",
"C. c #792982",
"Z. c #7B3A86",
"A. c #7D4689",
"S. c #7C5A82",
"D. c #5E7488",
"F. c #776F86",
"G. c #67798A",
"H. c #82348B",
"J. c #853A89",
"K. c #893490",
"L. c #844987",
"P. c #86598A",
"I. c #90508E",
"U. c #894695",
"Y. c #934999",
"T. c #8B5A96",
"R. c #955898",
"E. c #A14C9F",
"W. c #86638A",
"Q. c #8C6793",
"!. c #96689B",
"~. c #96719C",
"^. c #9D46A2",
"/. c #8F58A1",
"(. c #9859A4",
"). c #A95DAD",
"_. c #9B66A5",
"`. c #9C73A5",
"'. c #A469AB",
"]. c #A776AB",
"[. c #AA6AB7",
"{. c #B36BBA",
"}. c #AA76B5",
"|. c #B679BB",
" X c #B56FC2",
".X c #B97AC5",
"XX c #CA6FC1",
"oX c #C278C8",
"OX c #6C8399",
"+X c #748699",
"@X c #748DA2",
"#X c #6991AC",
"$X c #7693AB",
"%X c #789AB4",
"&X c #6B9FC1",
"*X c #73A6C6",
"=X c #77A8C7",
"-X c #78ABCD",
";X c #7CABCC",
":X c #829DB3",
">X c #B786BC",
",X c #B591BF",
"<X c #83A4BC",
"1X c #BA85C6",
"2X c #BF88D9",
"3X c #85A9C4",
"4X c #83AECD",
"5X c #89AECB",
"6X c #91AEC8",
"7X c #85B1CF",
"8X c #8AB1CE",
"9X c #91B3CD",
"0X c #82AFD0",
"qX c #86B2D1",
"wX c #8CB5D3",
"eX c #8EB8D6",
"rX c #8BB6D8",
"tX c #8EB9D8",
"yX c #91B6D4",
"uX c #93B9D6",
"iX c #99BCD6",
"pX c #94BBD9",
"aX c #99BEDA",
"sX c #C487C9",
"dX c #CD8ED3",
"fX c #CA8CD5",
"gX c #C98AD8",
"hX c #C493D5",
"jX c #CD92D5",
"kX c #D293DA",
"lX c #CF89E1",
"zX c #DA96E5",
"xX c #E098EA",
"cX c #97C0DE",
"vX c #9CC1DC",
"bX c #A1C2DD",
"nX c #9DC3E0",
/* pixels */
"iXpXrXpXuXeXpXwXwXwXeXvXiXuX8X4XaXuXqXuX;XvX7XqXpXuXeXeXpXpXvXpXwXwXbX7XwXtXpXeXwXvXuXbXvX;XcXvX7XyXwXuXwXeXeXqXeXwX8XqXpXyXeXyX",
"pXeXrXaXpXeXuXwX*XwXuXyX7XeXpXuXwX4XqXuXuXpXpXwX4XqXaXpXeXuXqX4XpXeXwXwXpXpXuXeXeXyXuXwXvXbXvX8X7XuXuXyXeXvXvXvXuXuX8XwXvX8XeXeX",
"yXwXqXpXqXrXqXrXeXaX&X;XwXwXqX8XyX7XuXvXvXpXyXyXwXpXpXuX7XaXyXwXpXuXpXwXeXpXpXpXuX8XwXwX8XcX=XcXtXuXuXwX7XwXeXtXcXwXpXcXpXwXqXpX",
"aXpXyXuX4XwXeXaXaXaXtXeXaXyX5XbXuXaXwXqXuXqXuXeXyXyXrXqXpXpXpXpXqX8XyX8XeXuXqX7XwXiXiXeXwXwXwXwXpXcXqX8XeXuXcXeXeXuXuXwXwXyXpXcX",
"vXpXyXpX4XwXuXrXaXaXyXeXyXaXpX9X8XpXrXqXuXuXuXyXpXaX8XqXpXeXyXqXwXpXbXiXpXiXqXuXpXyXiXvXuXrXyXeXcXwXwXuX8XcXuXwXuXcXwX8X8XyXiXpX",
"iXwXiXiXwXyXqXqXpXyXeXqXuXvX4XyXyXpXeXpX8XqXvXvXiXpXpXvXyX7XyX4XyXpXpXuXyXyXuXpXwXyXyXwXwXpXuXyXpX7XwXuX7XuXuXeXuXcXuXuX8XyXvXyX",
"eXyXaXyX8XiXuXpXcXpXwXyXeXpX*XiXiXwXpXuXqXeXpXyXwXpXaXcX4X3X8XpXiXeXeXuXiXyXeXqX8XvX7XwXpXvX8X9XvX8XvXuX8XeX7X8X7XcXcXiXuXiXyX8X",
"4XeXpXpXyXiXuXeXuXpXyXeXeXyX8XpXwX4XuXeXuXpXeX8XpXpXqXrXaXpX8XvXpXqXaXpXuXuXuXeXwXvXqXuX7XeX8XiXvXwXcXwXcX8X;XeXwXvXuXwXiXwX8XcX",
"aX4XuXeXwXpXpXeXrXqXeXeXpXpXpX4XyXwXuXeXpXpXyXuXqXqXrXtXuXiXiXcXaXuXvXpXpXvXpXyXiXyXuXpX=XyXyXaXpXuXtXaXaXeXuXpXuXuXeX;X9X8XeXqX",
"wXeXqXyXeXpXwXwXaXwXpXpXpXtXpX0XqXqXeXpXpXuXwXpXwXqXuXpXqXpXyXqXpXaXuXwXuXvXyXiXyXyXeXqXwXpXiXiXyXwXpXuX=XuXpXvXeX7X7X7XuXuXcXqX",
"wXpXqX=XyXpX7XwXuXwXeXaXuXaXuXyXqXrXpXvXpXpXpXeXwXrXpXuXeXyXyXtXqXuXuXeXqXaXiXiXpXuXrX7XwXpXuXqXuXwXpXqX;XeXpXtXwX8XcXvXwX7XwX8X",
"yXyXwX4XuXrXqXwXeXeXeXqXqXaXwXqXpXvXpXiXpXpXpXwXqXeXpX7XpXpXpXyXeXuXeXeXwXwXuX8XwXuXqXuXqXrXeXqXaXuXuXrXeXeXpXtXcXcXwXwXwX7XcXeX",
"yXyXwXyXpXeX7XpXyXuXtXqXqXyX8X8XE A =.-.n g n =.=.-.-.$XiXpXeXpXpXeXcXqXcXcXpXrXeXrX9XiX8X7XpXqXvXqX8XqXtXpXaXpXpXpX7XuX8XuXuXvX",
"pXpXyXiXaXaXqXiXyXwXyX0XtX:.s s % y.y.l.v.v.z.v.v.z.m y a a 5X8X;XqXcXqXcXwXpXuXvXpX+X-.=.=.g 5XpX8XyXeXuXpXpXrXrX;XqXyXiXwXcXwX",
"0X8XpXpXbXvXpXqXtXpXaXpX;.t k d.j j % - u x - x u y.l.y.s.- t c g D -.1.q.OX6XpXeX$X=.c j.x.- =XaXyXiXyXpX7XuXvXuX7XqXqXuXrXyXwX",
"0XpXpXpXyXuXpXqXqXyXqX0X=.m.b.d.. - vXcXcXvX9XOXc % j r.t.l.x.n.B.B.M.v.i.,.G.0.>.g a a.k.x = qXbXwXbXaXqX=XvXpXqXqXcXuXrXeX8XuX",
"5XyX7XbXyX8X5XwX7XqXpXpX=.k M.l $X;.% =.eXwXaXaX+Xg 1 O o r.f.b.z k k m j i.h.j.k.k.N.B.,.s :X8XrXwX9XpXcXvXvXwXwXwXqXcXvX9X8X8X",
"yXaXyXiXaXiXpXwXyXvXaXpXw.- c.M.6 x j.&.pXuXeXuXpX<X+X-.= = k.n.u -.=.= m u.v b a.c.h.m w.+XyX8XpXyXwXvXcXqX*X4XwXuXuXvXtXpXpXpX",
"aXpXiXyXyX8X8XyXyX7X8XqX+X= ,.l.k.d.a.D wX*XqXuXrX8X3X%Xg $ d.b.- aX%X;.n -.s - M M =.OX9X3X8X8XuXpXtXpXeXwXwXwXcXpXyX7XeXpXaXiX",
"aXpXpXwXwXpXyXaXvXpXeXuX<X=.s i.v v k D yXuX8X3X%Xq.D A r $ d.n.= OXOX$X%XeX@X-.;.1.+X9XeXqX5XaXyXvXeXeXwXcXwX8XwX7X7X&XqXeXpX9X",
"eXuXpXwXuXpXaXiXvX7XwXuX7X8X+Xw.q.F.4.G.8X3X+X0.*.t 1 = 3 # p.z.& o o . i OXOX%XpXpX8X8XwXpXiXiXiXaXpXvX7XwX9XuXwX7X8XcXuXpXuXuX",
"yXuXuXeXpXaXpXyX8XwXpXwX7XeXuXeXuXuX4X6X+X1.y * * = J ` W 2 s.x.6 < < , o o o &.%X6X9XwX8XuXuXiXyXqXvXpXeXwXwXyXwXwXwXuXcXpXuXqX",
"iXwXtXpXwXeXuXpXwXwXpXwXwXcXyXeXvX=X1.2.Y & 4 ^ 6.4.E.).O.6 k.x.6 c U ] J G V 0 *.q.OX3XqX8XyX8XpXuXeX;X7XpXwX4XqXuXcXyXeXqXeXqX",
"yXwXeXpXqXqXuXuXuXuXuXwXuXeXiXvXuX>.& < G 4 Q {.jX`.'.W.a = k.n.* N J ^ g.o.] H 5 r D q.6XpXuX4X7XuXeXqX8XpXyX4XwXcXuXeXeXwX7XtX",
"iXyXwXeX;XqXyXwXyXpXwXuXtXqXwXvX8X= w ~ X.w 3.dX!.6.L.d @ h p.M.u.k.t a g.g.) u R O.c u w.<XyX4X;XaXpXpXyXeXqXyXuXpX8XvXeXeX7XwX",
"pXeXyXyXeXyXpXeXwXeXuXaXpXqXpXwX2.u 8.o.R J U.oX6.` %.X.+ h k b b b u 9.Q.!.3.3.I.E.I.g.c 0.iX9XeXpXqXwXrXpXwXpXrXwXcXuXvX8XwX9X",
"yXyXyXiXuXaXyXpXwX7XeXuXuXrXaX;.= ^ ^ q ! '. X{._ 8 o.L.$.& . @ 1 s W.R.9.g.4.:.'.{.6.L.c g 2.yXaXrXqXrXwXqXaXpXtXcXuXwXuXpXwX8X",
"rXeXyXpXpXiXiXyXpXpXpXwXpXrXqX@ ` H.I.7.].kXoX(.$.0 K ] L X.P O.7.L.R.` g.>X>Xe.W.sX_ X.p | u yXpX;XwXeXeXqXyXpXtXuX8XwXuXuX7XeX",
"yXwXpXwXuXuXyXyXyXyXwXyXpX4XA   g.XX(.!.E E a 5 G } 0 & I { 5 a a c 3.>XhXkXjXg.:.) y X.6 X.q >.aXeXwX0XyXcXcXtXeXpXiXpXuXpXqXwX",
"yXwXeXaXeXqXwXpXtXqXwXpXpXS o 8 |.c p p ) ].T.Y O H ' ' +.o.%._.'.|.>X:.n E W.jX}._.U.%.< F o.a nXyXwXwXaXpXpXtXeXpX;XqXeXwXpXpX",
"pX4XpXaXwXwXyXqXpXrXeXuXeX2   Z.Y >X).sXfXoXY.@.< w [ { #.J.(.XXsX.XE `.~.4.g W.{.U.J.{ + I ] y E aXyXpXeX;XqXaXiXiXeXqXpXpX9XiX",
"rXeXeXtXwXqXwXeXpXpXyXaXS o o @ sX>X|..XfX.XY.@.w . P { o.g.Y.gXlXc ].|.|.sXe.- | /.L.4   } @.H.E aXiXpXqXqXpXyX0XtX0X5XpXiXaXaX",
"yXpX8X8X8XyXpXaXeXeXcXwXA X 5.; sXR.`.g.= * c @.] < 8 ] o.L.XXxXxXa ~.].3.7.sX3.^ Z.X.: P +.L ).d -.vXyX0XyXuX0XeXyXwXyXpXyX8XpX",
"pXwXuXwXpXpXuXrX7XeXwX;Xs ; 3 1X}.L.( R >XP.R %.#.w 8 J I.|.sXdXzXp q 6.<.5.sX6.O.I.e o I +.K ^.9.=.eXaXvXaXpXwX4XeXiXpXiX*XeXtX",
"pXyXpXpXyXpXwXqXcXvXcX;.$ R Q.Q.L.%.w Y oXsXW.O.J.%.e 5 y f g #.).!.( 6 f S.kX9.^ %.q ~ ' > K ^.S.-.%X6XqXqXrX8X4XqXuXaXpXpXiX;X",
"aXuXpXiXaXpXqXeXvXeXrX*.@ 7 q > a Y 8 c |.dXsX[.Y.c 5.'.1XjXjXq 6.L.7.I.].sXsXS.X.e 2 ~ ; ~ 3 Z.^.C D D.qXwXyXwXeXpXpXiXpXpXpX0X",
"nXqXuXpXpXpXvXpX8X7X8X&.0 R ( Z p * 7 q L._.`._.3.a Q.'.'.}.|.Z 5 @ q L.{.}.8.$.(.( 5.A.q } #.5 Y.C s ;.wXwXeXwXtXvXuX8XeXpXqX;X",
"vX4X7XuXaXuXpXqX7XwXuX*.Q !..X X$.d + 8 q f Z p u P.!.( ) y 6.7.X., 1 G 7.O.O.!._.) _ T./ %.(.s o.w s 1.eXqXeXtXaXpXuXuXuX4XqXpX",
"wX5XeXpXeXrXtXtXpXuX7X&.O e <.2X X .4 O.O.5.8./ 3.}.( 3.T.p + w } ~ W e q Q 7.) A -.s !.S.Y.L.2 I , s D.wXyXpXtXeXtXpXuXpX7X;XpX",
"7XwXpXuXqXrXeXpXaXuX=XS , 8 @ 4.1X$./  .|.oXoX7.9.sXO.( U...7   7 { X.| C W Q c 8.].:.9.,X XZ 4 P & s %XyXwXpXpXeXpXuXiXuXwXeXuX",
"yXaXpXeXeXyX4XyXpXeXwXD 8 ' R # 1X/.<.R gXgXsX7.9.1X!.Q Z.V.} X , [ @.' 4 q  .T.|.gX4.g Q.Q.2 G B : G.pXeXeXwXpXrXwXyXyXqXuXqXqX",
"yXaXwXpXyXyXqXeXaXpXwXOXq ' C S.hX_.8.R 2X1X[._ a ~.sX'.T.U.X.. < [ ' c 3 ) }.fXjXzX8.g <.R q K > 2 wXpX7X8XpXuXeXuXpXyX5XeXuXuX",
"eXtXqXpXqXrXpXyXpXpXuXiXa P  ..X2XS.<.S.) R d 1   p ].sX].}.Z   w Y.} 5 ( }.jX~.!.gX}.>.Q./.#.o.> r uXpXqXqXpXwXyXwX7X7X7XwXwXpX",
";XvXqXeXyXqXyXyXpXuXpXpXA F U.2X2X<.: A : P V H G 1 a E T ) 1 G @.[.P./ 1XgX!.S.6.!.[.<.|.gX^.Y.> A +XvXpXvXeX7XuXrXqX7X8XpXqXrX",
"uXpXpX0XpXtXwXyXiX4XwXuXD 4 Z./ Z 3 o 3 X...' +.+.7 G X.%.J.#.Z. XgX`./ .X[.O.! Z./.U.Z ].jX(.U.7 G.5XaXtXvXtXwXpXpXuXaXyXiX7X7X",
"pXqXyXpXpXpXwX8XwX7XwXqX#Xy 4 $ F.Q.S.d _.~ + C ..0 + #.oXgX{..X.XlX1X:.[./.C w +.V.$.> i 4.4.D A 0.yXpXpXrXrXpXpXpXpXiXyXiX-XaX",
"5XqXeXpXtX0XwXyXpXpXvXbXiXg = Q Z.$.| Z /.Z.| C C ..0 P.dXkXgXdXlXkX}.y C +.8   B 7 X V +._.'.Z.A.0.pXnXpXeXpXpXeXpXyXyXvXwXcXvX",
"*X;XrXyXnXpXpXpXpXtXpX7XpX1.2 , V L H # T 5.# 9 $.Z.e W.1XY 3 5 R lX|.P.w ] L 0 X X C ' C.3.s r =.2.4XpXiXeXpXtX=XwXpXiXyXpXqXuX",
"pXqXpXvXaXvXpXqX7XwXwXwX8X7X*.@ 8 F F ' X.# Z A.Z.Z O S.s i W.[.~.Z .XS.o > L I B , F { c T.Y.W.S iXqXiX;X4XuXvX8X7XpXyXwXpXeXeX",
"qXqXpXtXqXqXqXqXeXuXwXrXpXeXpXt + , K +./.`.}. X<.: <.C 2 W._.T.<.) lXJ.} w { L 7 P C.3.U.Z.C <.0.pXeXpXrXeXiXpXwXpXnXtXaXvXwXpX",
"pXeXpX4XyXuXeXpXaXpXuXvXpXaXiX&.3 > > 0 H 4 i i i 8.U.C } (.(.7 : ( .XY.X.Z Z.K.7.%.Y.R H > S 3XyXiXqXpXuXeX9XyXwXuXaX;XuXpXaXrX",
"wXpXpXpXaXpXyXuXpXuXrXeX4XpXwXyXS a @ 1 3 3 W | U.^.Z.9 V @.@.7 7 Z.^.J.O.R H.^.U.R 8 ; o i <XpXqXwXyXvXvXpXuXuXyXaXtXqXuXpXwXaX",
"qXiXiXpXiXpXyXeXqXrXwXrXeX3X=XpXwX>.5 $ $ Z Z.C.Z.Z.@.0 + 8 K ..K L L P 5 R H.K.#.Y 3 3 s %X3X4XuXpXpXpXuXwXwXyXyXuXuX7XvXcXuXvX",
"eXiXpXpXaXiXyXqXuXuX;XwXeX7XyXaXyXyX1.y 2 p ~ +.#.V.V.~ > < B K K K V : p  .Z.H.O.E s 1.@X$X4XwXpXpXuXqXeX7XwXwXyXuXuXcXvX;X;XcX",
"wXuXpXpXyXpXpXpXuXwXwXqXtXrXpXrXaXiX5Xq.1.g : w V P X.@.~ q 7 4 7 w q 3 R _ Q ! T ;.0.%XiXiXyXyXpXqXqX8XvXuXaXpXvXvXcXuXpXeX;XvX",
";XpXaXpX4XpXpX8XwXwXwXrXtXpXpXqXpXuXpXqX3X@XA   X X 9 H W 5 r 2 $ : r : q o X o &.%X0XeXiXpXiXpXwX*XpXpXpXiXiXpXyXiXyXtXqXuXyXpX",
"7XtXwXtX7XcXtXqX8XuXeXwXpXpX4XpXaXpXyX8XyXwX$Xq.q.i o @ $ $ r = $ r r @ . i q.q.$XqXyXeXwXwXyXaX8X;XcXpXyXvXuXuXuXyXuXwX8XeXpX8X",
"eXwXeXuX7XtXeX7XrXuX4XwXyXyX5XwXpXpXyXyXyXwX7XyXqX@XG.D.G.G.D.OXD.+XD.D.D.+XeXcXpXqXrXpXpXyXyXwXuXiXuX7XvXiXyXwXuXvXuXeXuXcXuXeX",
"cXcXvX7X*XuXrXwXuXuXqXwXuXwXwXwX;XpXaXaXaXpXwXvXqXqXwXwXwXwXtXvXeXwXcX7XtXtXcXwXwXwXrXvXpXaXtXqXcXuXuXqXyXyXwXuXcXeX7X8XuXcXtXcX",
"eX8XcXwX;XcXuXuXuXqXuXaXeXeXaXyXqXaXwXiX9XuXpXwXwXrX7XuXpXpXpXcXqXtXeX7XcX7XqXwXeXuXpXpXpXpXrXpXeXcX8XuXwXvXiXpXeXeXuX7XcX8XwXcX",
"vXuXuXcXpXpXuXeXqX4XyXeXpXrXaXvXvXwXwXpXyX7XeXeXtXeXyXwXvXwXcXtXqXvXwXiXuXwXuXwX8XwXqXuXeXwX8XcXuX7XtXqX7XcXeXwXcXeXyXwXuX8X*XcX",
"*XvXrX#XiXwXqXtXaXtXyXqXpXpXpXpXnXpXpXiXyXrXpXuXeX7XwX8XuXwXvX8XvXvXwXpXuXvXiXvXvX8XwX8XeXwXvXcXpXtXcXuXtXcXcXcXuXeXwX7XvXvX8XvX",
"rXcX;XrXvX7XrXpXpXaXpX3XqX7X;XnXqXtXaXeXwXuXvXuXiXvXvX;X7XwXqXrXvXuXpX7XvXyXuXuXvXwXyX8XpXpXrX7XuXqXcXqXrXwXqX7XwXuXuXcXuXeXvXvX",
"cXcXwXrXeXrXuXeXtXaXvX5XyX4XqXqXtXaXaXiXwXwX8XuXyXiXpXpXpXcXtXqXaXrXpXyXyXwXyXyXqXqX8XyXcXrXeXvXvXwXrXuXuXwXqXeXwXwXuXpXwX8X7X7X"
};
