/* XPM */
static char *result[] = {
/* columns rows colors chars-per-pixel */
"64 64 248 2 ",
"   c #040404",
".  c #080606",
"X  c #0A0A05",
"o  c #0A0A0B",
"O  c #140A08",
"+  c #1B160A",
"@  c #0E1114",
"#  c #191816",
"$  c #251707",
"%  c #2C130E",
"&  c #2D260A",
"*  c #352E0B",
"=  c #282517",
"-  c #373011",
";  c #393417",
":  c #101B2C",
">  c #192B30",
",  c #292928",
"<  c #342C2C",
"1  c #252B36",
"2  c #2A343A",
"3  c #363638",
"4  c #46170E",
"5  c #551B15",
"6  c #731413",
"7  c #49310C",
"8  c #702F15",
"9  c #53382F",
"0  c #463C3A",
"q  c #712E25",
"w  c #51450A",
"e  c #4B4317",
"r  c #564818",
"t  c #5A5119",
"y  c #67570B",
"u  c #6F5011",
"i  c #655816",
"p  c #786816",
"a  c #46433B",
"s  c #544F32",
"d  c #695629",
"f  c #665734",
"g  c #726C30",
"h  c #061E4E",
"j  c #122A4E",
"k  c #343B44",
"l  c #112C63",
"z  c #633F40",
"x  c #37444B",
"c  c #274758",
"v  c #3C4957",
"b  c #3E5470",
"n  c #474B48",
"m  c #564F45",
"M  c #585945",
"N  c #434E59",
"B  c #47545A",
"V  c #515051",
"C  c #565857",
"Z  c #6B5C48",
"A  c #5C6449",
"S  c #6D6C50",
"D  c #756956",
"F  c #4A5A67",
"G  c #5A5B67",
"H  c #725F65",
"J  c #4B656D",
"K  c #4E6474",
"L  c #5A6C71",
"P  c #556979",
"I  c #686868",
"U  c #6E6F72",
"Y  c #787677",
"T  c #8E1111",
"R  c #B1191C",
"E  c #8B2C0F",
"W  c #B4271D",
"Q  c #B01F27",
"!  c #9C2226",
"~  c #8A3128",
"^  c #AB3327",
"/  c #C51C1A",
"(  c #D5191C",
")  c #CF2918",
"_  c #C93318",
"`  c #D83519",
"'  c #E4320E",
"]  c #E62E13",
"[  c #E43312",
"{  c #E53416",
"}  c #D91B20",
"|  c #CD2926",
" . c #A84E1E",
".. c #B94319",
"X. c #8D7A1E",
"o. c #A2681E",
"O. c #8E4D29",
"+. c #B04C2A",
"@. c #8E782A",
"#. c #AD6831",
"$. c #C14C29",
"%. c #C56C31",
"&. c #8A7254",
"*. c #85775B",
"=. c #B3724A",
"-. c #B16758",
";. c #897B6B",
":. c #C67466",
">. c #798264",
",. c #958519",
"<. c #A89519",
"1. c #B09313",
"2. c #B8A516",
"3. c #98862C",
"4. c #908231",
"5. c #A38929",
"6. c #A79428",
"7. c #A78833",
"8. c #A39738",
"9. c #B59C30",
"0. c #B7A425",
"q. c #BAA835",
"w. c #C8A515",
"e. c #C7B31B",
"r. c #D4BA17",
"t. c #E9B41E",
"y. c #D28C2C",
"u. c #CBB827",
"i. c #C6B233",
"p. c #D2BC36",
"a. c #DBC216",
"s. c #EFD20F",
"d. c #F6DF0E",
"f. c #FBDD0E",
"g. c #E2C719",
"h. c #EDD319",
"j. c #F6DB14",
"k. c #FBDE12",
"l. c #F2D519",
"z. c #F5DC1B",
"x. c #FADD1A",
"c. c #F7E10D",
"v. c #FBE012",
"b. c #FAE11B",
"n. c #DAC624",
"m. c #D8C633",
"M. c #EBD326",
"N. c #F5DB26",
"B. c #E6CD31",
"V. c #EAD43B",
"C. c #F3D935",
"Z. c #938D4E",
"A. c #A79847",
"S. c #B4AA55",
"D. c #908A70",
"F. c #AC8F75",
"G. c #BAB06F",
"H. c #B7A477",
"J. c #D19F51",
"K. c #D2B349",
"L. c #E4A942",
"P. c #C2B377",
"I. c #D9C854",
"U. c #E1C54A",
"Y. c #EBD747",
"T. c #CBC46D",
"R. c #E1C36C",
"E. c #ECE662",
"W. c #566D81",
"Q. c #5A7385",
"!. c #647C8C",
"~. c #647E93",
"^. c #698497",
"/. c #708D9F",
"(. c #6B8CA5",
"). c #6E91A9",
"_. c #7593A9",
"`. c #7A9BB5",
"'. c #7DA1BB",
"]. c #6B9FC1",
"[. c #73A6C6",
"{. c #7AA6C5",
"}. c #73A8C9",
"|. c #7CABCB",
" X c #8A8A88",
".X c #829399",
"XX c #979594",
"oX c #A89486",
"OX c #B1A991",
"+X c #8797AF",
"@X c #8AA6B0",
"#X c #83A4BD",
"$X c #95B1BB",
"%X c #A5A5A4",
"&X c #B5B2AC",
"*X c #B9B8B8",
"=X c #C88A80",
"-X c #C9B78F",
";X c #CABA8B",
":X c #C8BBB2",
">X c #E3BDB6",
",X c #BEC0BC",
"<X c #D4C894",
"1X c #EAD391",
"2X c #F7DA99",
"3X c #FDE39E",
"4X c #D3CAAF",
"5X c #E8D8AE",
"6X c #F5DDA5",
"7X c #FCE3A4",
"8X c #F9E5AB",
"9X c #F6F4A6",
"0X c #F7E5B7",
"qX c #87AAC5",
"wX c #83AECD",
"eX c #85B1CF",
"rX c #8AB1CE",
"tX c #92B2CD",
"yX c #83AFD0",
"uX c #85B2D1",
"iX c #8CB5D3",
"pX c #8EB8D6",
"aX c #8BB6D8",
"sX c #8EB9D8",
"dX c #91B6D3",
"fX c #93B9D6",
"gX c #99BBD6",
"hX c #94BBD9",
"jX c #99BEDA",
"kX c #97C0DE",
"lX c #9CC1DC",
"zX c #BFC1C9",
"xX c #A1C3DD",
"cX c #9FC5E0",
"vX c #C3C3C3",
"bX c #C9C9C7",
"nX c #D6D1C9",
"mX c #D9D9D7",
"MX c #EAD3CA",
"NX c #E9DBD7",
"BX c #F2E9D2",
"VX c #E5E5E4",
"CX c #E8E7E6",
"ZX c #EAE9E6",
"AX c #EDEDEC",
"SX c #F6F0E8",
"DX c #F7F7F4",
"FX c #FDFDFC",
/* pixels */
"gXhXaXhXhXpXfXpXrXpXpXlXgXfXrX|.jXfXuXfX|.jXuXiXfXpXiXpXhXhXlXfXiXiXjXuXiXhXhXpXkXdXkXlXkX|.kXlXeXtXdXdXuXkXrXeXkXrXrXuXkXtXpXdX",
"hXpXaXjXhXsXfXiX[.iXfXiXeXfXfXhXiXwXiXfXfXhXfXdX|.pXgXhXpXfXaXwXfXaXiXpXhXhXpXpXdXdXtXiXlXxXlXrXeXkXkXpXtXkXkXkXdXkXrXiXkXrXpXpX",
"fXiXuXhXuXiXyXpXiXhX].yXiXiXpXrXfXyXfXjXlXfXfXiXiXhXhXfXeXjXfXpXgXpXhXiXiXhXhXhXrXrXiXtXrXkX}.kXiXkXiXiX|.kXiXkXkXrXkXkXkXiXeXkX",
"jXfXfXfXwXiXfXhXjXjXsXsXgXfXqXxXfXgXpXyXfXiXpXpXdXsXiXaXfX$X@X_.)././.(.qXfXuXeXtXkXkXdXkXeXrXiXfXkXeXrXtXkXkXiXrXkXdXrXrXdXfXkX",
"jXhXfXfXwXiXpXpXhXjXfXuXfXjXhXtXuXhXsXuXfXpXfXdXfXjXiXiX/.Z.,.y w w e t Y .X^.^.'.kXgXkXfXuXiXiXkXiXiXkXrXdXrXiXkXkXkXqXeXfXgXfX",
"hXdXgXfXiXfXaXuXhXfXiXiXhXjXwXdXdXfXpXhXeXpXjXjXgXfXhX_.g g.k.z.b.z.b.C.m.,.y t A ^.^.'.iXkXfXiXfXeXrXkXeXkXkXiXiXkXiXtXrXdXlXdX",
"iXfXfXgXrXhXfXpXlXhXiXfXiXfX[.gXgXiXhXfXiXiXhXgXfXhXqXM u.j.f.k.d.j.f.v.v.x.c.M.0.p t G Q.tXtXdXlXrXlXdXrXrXuXeXrXkXkXkXkXgXdXrX",
"wXfXjXfXtXjXfXfXfXfXfXiXpXfXiXfXdXwXfXpXhXfXiXeXfXhXP 6.s.f.c.k.c.f.k.k.k.k.v.v.v.b.a.,.t L !.gXlXiXkXdXkXeX|.kXrXkXkXdXtXiXrXkX",
"gXyXfXiXiXhXhXiXpXiXsXaXhXhXfXyXiXiXfXsXhXhXfXfX|.^.g a.k.k.v.v.v.k.k.k.k.k.k.k.k.k.k.k.n.,.e J hXpXsXjXjXfXsXhXkXdXkX'.kXeXrXkX",
"iXpXyXsXiXhXiXiXhXiXfXhXhXsXgXyXuXuXpXhXhXfXpXfX).M q.k.f.v.v.k.k.k.k.k.k.k.k.k.k.f.k.k.k.z.<.g B rXhXfX}.fXhXlXkX|.rXeXkXeXkX|.",
"iXhXrX|.fXhXyXiXhXiXaXjXhXjXhXfXiXaXhXhXhXhXhXiXJ ,.l.k.k.k.v.v.v.k.k.k.k.k.f.k.k.f.k.k.k.k.j.M.6.N #XuX|.fXhXsXrXrXkXkXeXeXtXeX",
"fXfXrXyXfXsXiXiXpXpXfXuXuXjXiXwXhXkXhXhXhXhXhX~.g n.v.f.v.v.v.c.k.k.k.k.k.k.k.k.k.k.k.k.k.k.f.k.b.<.n iXpXpXhXhXkXkXtXuXrX|.kXkX",
"fXfXiXaXjXiXyXfXfXfXaXuXuXdXrXiXlXlXhXfXfXkX`.M 0.N.b.b.b.v.k.c.v.k.v.c.v.v.k.k.k.k.k.j.f.k.k.k.v.a., uXsXhXhXhXkXpXeXfXdXkXdXlX",
"fXfXdXgXjXjXiXgXaXiXdX|.sXfXdXdXuXfXsXpXfXsXW.+ * & & - 7 * 7 6.Y.N.v.v.c.v.k.x.f.k.k.k.k.k.k.v.v.V.F pXfXpXhXpXiX|.iXiXkXrXkXrX",
"yXrXgXfXjXqXW.k 1 1 v !.qXdXrXfXiXiXjXfXpX^.2 %XVXVXZXZXCXCXCXSXDX4Xr p V.N.k.j.j.k.k.f.k.k.v.x.k.A.tXdXgXeXpXkXfXeXeXeXkXiXdXrX",
"yXgXqX1 o % q +.%.=.#.O.4 $ O # {.wXlXkX'.v >.AXmXzX,XmXDXFXFXFXFXFXDXDXmXS X.M.k.k.k.k.v.k.k.c.j.; gXjXiX}.lXhXeXiXkXkXeXiXeXkX",
"wXqXO 5 %.#.q 4 4 4 7 8 o.J.L.i.u $ 1 tX^., %XDXFXFXFXFXFXFXFXFXFXFXFXFXFXFXDX&XZ.n.z.d.k.k.k.k.N., tXgXkXlXlXdXiXiXuXkXkXrXrXrX",
"tX_.4 q r p.N.x.x.x.f.f.z.V.3.7 @.I.q.7 + 0 XXoX;.oX:XMXSXZXZXFXFXFXFXFXFXFXFXFXFXmXD.p.M.x.v.v.I._.iXjXkXuX[.wXrXkXkXkXfXkXgXgX",
"gX2 % 5.x.k.f.f.f.v.k.k.f.c.c.j.V.i.7 5.K.d q ~ _ ` ` ` | ^ 8 >XNXCXFXFXFXFXAXDXFXFXFXZXD I.g.x.d hXsXhXiXuXiXdXkXfXpX|.pXfXhXgX",
"gX#X& M.x.k.k.k.v.k.v.k.s.h.h.j.l.k.z.B.X.@.K.3.O...) ] ] ] ] ] W ~ MXMXAXVX&XzXCXmXAXFXFXSXS T.X lXfXsXiXkXiXrXiXeX|.'.iXpXfXdX",
"dXrXn 3.M.k.k.f.k.k.k.N.u.e.p.Y.u.2.M.j.j.M.5.4.K.3.o.+.` ' ' ' { { ` +.=XMXNXFXbXY *XbXmXDXFXzX2 lXgXkXrXiXdXdXiXeXeXkXfXfXfXfX",
"dXpX|.n X.g.v.v.k.k.k.k.x.k.x.C.<.u q.<.r.z.j.M.5.9.q.7.#..._ ` ' ' ' ] ` +.:.>XNXFXCX X%X&XbXbX_.rXkXkXiXiXdXdXiXiXdXfXkXkXpXuX",
"lXeXsX#XV g e.k.k.f.k.f.k.k.f.f.k.x.u.p X.5.a.z.x.N.5.i.0.8.%...` ' [ ] { { ` | =X>XZXFXFX X&Xn gXfXpX|.eXgXiX|.eXhXkXpXpXuXpXeX",
"gXiXsXsX'.L S 0.l.k.k.k.k.k.k.k.k.k.v.h.5.- t <.a.k.j.M.<.m.5.7.y..._ ` { { { ] ` $.F.nXDXFXFX@ eXpXpXuXrXkXdXwXiXkXfXpXpXpXeXpX",
"gXfXrXpX|.uX_.M p e.x.k.k.k.f.f.f.v.h.<.t + . $ t <.l.b.j.N.1.U.5.7.%...` { { { { { _ :.;.SXNXJ |.kXsXkXpXiXeXtXfXfXiXkXpXdXeXdX",
"fXiXdXfXpXfXfX`.Q.A p u.j.k.k.k.z.0.y =           * i u.z.d.d.N.1.B.B.w.y.y.%. .E T E 6 6 ;.V qXpXsXaXuXiXkXiXgXpXuXpXgXkXdXrXrX",
"pXfXgXfXfXgXdXgXiX).!.f y u.N.C.y @.g +         + # X ; y n.c.d.k.k.l.k.j.h.s.r.w.1.1.1.1.9.8.;X>.n x v Q.eXlXkXhXkXfXiXpXgXdXiX",
"pXdXiXfXkXhXdXdXfXfXdX(.^.s e e - 8.S.X         Z *.=   V 5X9.b.x.f.f.f.f.f.f.d.k.k.k.x.N.x.N.N.r.e.2.0.8.A x P qXpXiXiXhXfXeXiX",
"fXiXhXiXfXfXdXdXiXfXiXpXgX(.(.F # ; =       < D H.4Xa   XXDXNXf i.z.f.f.f.f.f.f.k.k.k.k.k.k.k.k.f.v.c.z.h.r.e.8.f 2 _.dXfXhXiXrX",
"hXyXpXjXiXaXiXfXsXiXiXgXhXiXdXdX`.(.        Z 4X2X6Xs   ,XFXFXmXOX7 V.j.f.f.f.f.f.f.k.f.k.k.f.k.f.c.k.k.k.k.j.l.a.u.g !.eXiXfXhX",
"fXwXhXjXiXrXpXaXpXaXiXdXpXhXrXlXuXb     . O D 0X7X3Xs   vXFXFXFXZXn $ r V.x.f.f.f.f.f.k.f.k.f.k.f.k.k.k.k.v.k.v.v.v.M.8.$XgXdXfX",
"pXiXfXpXiXiXiXiXhXhXfXkXpXkXtXlXrX@ K K n OXD 0X7X3X&.+ vXbXI DXFXnX    . & 5.M.k.f.f.f.f.f.f.c.j.k.k.f.j.k.v.v.v.j.N.e _.gXgXjX",
"fXfXrXiXrXiXhXhXfXpXpXsXeXgXqXiXgX2 uX_.3 %XD.0X7X3X6XM # zXDX4X# nXD.          * 7.B.l.k.k.k.f.v.j.d.k.k.j.v.v.f.x.y , '.pXeXfX",
"hXrXpXpXfXjXhXuXuXpXpXiX[.fXgXfXjXpXrXQ.3  XY &X6X7X7XD.mXFX< !.SX;X4X  o @   o # # O X 7 3.U.C.h.s.j.j.k.k.v.k.v.6.; /.kX'.pXpX",
"hXiXhXgXdXfXiXsXsXlXkXgXiXfXfX|.sXhX#X2 ^.# , C 4X7X7XBXFXDX#   FX0X<X; a %XO m -X0X*.+ A.Y.V.V.X.y q.V.a.h.c.c.B.f /.lXgXkXkX|.",
"jXhXhXgXjXjXuXiXlXfXdXgXkXiXeXeXkXkXtXF _.V XX%XBX7X3XBXDXFXn 2 DX9X8XOXM F.a :X;X<X0X0 & 2.j.j.f.c.N.6.i 9.n.a.p P dXkXpXfXfXeX",
"xXaXiXfXhXhXlXhXiXeXrXfXfXpXyX|.lXxXlXdX#XN C *X5X6X7X8XSXFXFXVX*X1X3X5XOXH.Z 4X;X6X-X< e 2.l.k.f.f.d.b.C.q.r ; C `.fXrXpXpXuX|.",
"jXyXuXfXjXhXhXuXeXpXpXfXiXiXaX].kXxXgXwXyX~.3 Z H.3X7X7XMX*XAX4XU D.<X8X8X<XD.<X1X<XM .   & ,.2.2.1.1.6.A.Z.C P #XkXkXdXfXeXeXkX",
"pXqXiXhXaXiXhXsXhXfXuXgXfXpXfXfXhXfXkX[.fX).B H.8X-X;X0X4X X%XCXVXD.F.8X7X8X1X<XG.*.,       X * a N N v K `.hXsXpXkXfXfXkXeX|.kX",
"iXiXjXfXuXaXpXhXkXpX|.fXfXpXpXfXaXuXpXaXsX'.F H 4X X>.%XVXCX%XVXAX*XH Z.*.D.*.S <           . . N fXiXfXsXaXsXhXdXpXdXlXdXdXiXpX",
"iXgXgXpXpXiXwXdXhXsXaXfXfX|.hXpXpXiXuXfXpXiX_.B C XX*X*XVXAX XmXXX9 ~ 6 4 O     . . . o . . o @ @ K uXgXsXpXiXfXiXpXdXdXrXfXiXrX",
"fXjXiXfXfXfXiXpXjXhXiXdX{.|.hXfXpXfXiXhXiXrXsX).W.+X XU U G = *.-.T | / 6 O . . . .     N P P v o @ Q.gXuXuXgXfXiXfXkXiXeXiXpXpX",
"pXsXuXhXiXuXfXiXgXhXfXhXeXfXpXiXpXiXfXhXiXdXhXpXgXwX).~.> e 7.O.8 6 T ! 4 o o O   o o   1 {.fX`.!.~._.gXiXuXgXiXpXiXeXeXeXiXiXgX",
"|.jXaXaXsXrXfXfXfXfXhXfXfX|.eXfXfXfXfXgXdXiXhXfXfXdXfX_.< -.J.K.8 ! ! T % o O k k . J x o k wXdXgXfXdXkXdXkXpXuXfXpXeXeXrXfXuXsX",
"fXhXhXyXfXsXuXdXgXwXiXfXfXyX|.hXjXiXdXyXiXfXhXfXhXpXdXN % -X1Xu W } } ! 4 @ v qX{.k ~.#X^.: wXfXrXlXgXjXpXlXsXpXhXsXsXgXfXgXeX|.",
"hXuXfXhXhXfXtXiXdXyXiXiXyXuXiXsXfXyXiXfXpXfXiXiXpXsXfXY H 1XP.Q } } Q q 5 k yXaXyX{.wXsXfXk qXaXfXhXfXfXpXsXaXfXhXjXhXgXdXgX|.kX",
"wXiXfXfXaXyXaXaXhXhXjXcXjXiXuXhXwXiXfXiXfXiXsXiXyXuXN # OX9Xq / } ( Q ! ! z W.aXaXfXhXkXjXqXhXuXhX|.hXlXhXpXhXhXaXhXiXgXkXiXkXxX",
"[.|.aXfXlXhXhXgXhXsXhXwXhXsXfXxXfXhXaXiXfXhXsXfXiXiXN X -X9X~ } } ( / T 6 4 v aXfXiXhXfXsXyXlXiXfXlXwXfXjXpXhXfX}.iXgXfXgXfXiXfX",
"fXiXfXkXhXlXfXuXeXiXaXiXrXiXhXdXjXlXaXaXdXlXkXrXrXqXH % ;XI.7 } ( ( T T 5 6 V dXjXsXiXhXxXfXiXhXwXgXiXfX|.|.fXlXrXiXhXfXiXhXpXsX",
"iXyXhXsXuXiXiXiXaXpXpXaXhXiXfXgXfXhX|.iXiXiXiXaXfXG % . T.q.4.W ( ( R % # $ # G fXiXhXjXiXdXjXrXgXdXpXhXaXpXgXfXiXhXkXsXhXxXiXhX",
"hXiXhXwXdXfXpXhXhXfXfXjXhXjXgXgXyXjXfXgXlXsXuXuX{.C O # G.Y.Y.~ / R ~ F.0X5XD.J fXjXxXfXiXdXlXdXdXfXiXhXhXfXtXiXiXfXjXwXfXfXjXaX",
"pXhXhXhXjXfXpXfXjXpXpXpXeXfXiXpXpXfXpXuXrXgXeXeXW.# o D.T.G.K.H.q ^ &.7X6X6XH./.iXpXpXgXiXgXfXfXrXaXdXjXjXhXfXfXfXgXsXyXhXfXpXgX",
"iXfXgXhXgXhXpXiXpXiXiXaXaXwX{.fXfXiXyXgXwXuXiXpXhXF = A.E.E.E.E.4.2X7X3X7XG.G '.pXiXfXjXdXgXwXyXfXhXgXfXpXaXpXpXiXfXfXeXlXkXhXkX",
"iXgXhXhXjXhXpXiXpXfX|.uXpXeXfXjXfXhXiXhXfXsXhXjXfXK # M Z.G.S.G.&.2X2X3X1XD B kXfXiXpXpXwXdXtXiXhXhXpXuXpXeXiXpXdXgXfXkXlX|.|.lX",
"iXfXhXgXdXgXfXgXdXiXiXiXsXiXhXaXhXgXfXiXsXhXfXaXfXF @ h j v j B P.2X2XR.G.@ J fXfXhXiXdXfXjXfXfXhXiXuXiXlXfXjXfXkXgXfXhXhXsX|.lX",
"|.hXjXhXwXhXhXiXiXiXiXaXsXhXfXuXhXfXfXiXiXfXiXiXfXJ F b l h j : s P.2XR.S.@ J iXfXhX|.iXgXfXgXfXiX[.fXfXgXhXgXgXgXgXfXpXuXfXpXgX",
"uXpXiXpXeXhXsXuXrXfXpXiXfXhXyXfXjXhXdXiXiXiXyXsXdXK &XzX+X+X_.j j B D.*.S : B kXhXaXfXdXiXiXfXjXuX|.hXgXfXgXgXfXfXfXgXiXiXpXhXiX",
"pXiXpXgXiXpXsXeXpXpXwXiXfXdXrXiXfXhXfXfXdXiXyXfXdX(.!.U U U U 1 > j c 1 2 x /.kXfXuXuXhXhXfXgXyXgXhXgXeXkXgXrXsXfXjXfXiXpXfXpXpX",
"pXkXkXeX[.fXiXiXfXfXrXiXfXiXiXrX|.hXjXjXgXgXdXgXdXrX(.< % 4 % O 0 3 Y , k `.kXkXaXiXsXjXhXkXaXiXhXsXfXuXdXdXiXfXhXpXuXiXhXfXfXhX",
"pXiXkXiX|.kXfXpXfXaXpXhXpXpXjXfXuXjXdXfXdXdXfXpXuX).`.0 5  .O.0 *XOX4Xf a |.eX|.iXfXhXfXfXhXdXfXhXhXiXfXfXkXgXfXfXpXfXuXkXiXiXkX",
"lXhXfXfXhXhXfXaXyXwXdXpXhXiXjXkXlXiXdXgXfXyXpXpXW.e f o.y.%.+.# 5X>X-X&.x kXuXiXrXiXiXpXpXiXiXhXhXuXpXuXeXkXpXfXkXpXfXiXfXrX[.kX",
"}.lXaX`.gXiXuXsXgXsXpXrXhXhXhXjXxXhXhXhXfXiXhXhXF O.w.t.t.+.^ , s f d s B lXkXkXjXuXiXrXpXiXlXkXhXsXjXhXhXkXhXkXhXpXiXuXlXkXrXlX",
"sXsX|.uXjXiXaXhXhXjXfXrXyXyX|.cXuXfXgXpXiXdXjXhXqXV $ $ % O 3 ).O *.s < tXfXdXtXfXfXiXiXjXpXiXuXsXuXhXiXsXuXuXeXiXpXhXfXdXiXlXlX",
"kXkXaXaXpXpXpXpXhXjXjXrXdXwXuXuXaXkXkXfXdXiXrXfXfXdXdXiXtXgXaXaXdXiXdXrXpXiXtXkXuXiXrXfXgXsXpXkXlXsXaXsXfXiXuXiXsXiXfXgXiXiXiXeX"
};
