/* XPM */
static char *result[] = {
/* columns rows colors chars-per-pixel */
"64 64 244 2 ",
"   c #030302",
".  c #0A0703",
"X  c #0D0C0B",
"o  c #180806",
"O  c #1B170A",
"+  c #0A0F10",
"@  c #1B1A14",
"#  c #181819",
"$  c #240909",
"%  c #360807",
"&  c #29190A",
"*  c #341E0B",
"=  c #291A17",
"-  c #371817",
";  c #2D280C",
":  c #35260A",
">  c #27231A",
",  c #352B19",
"<  c #393512",
"1  c #0A1D3B",
"2  c #272826",
"3  c #392A26",
"4  c #3A342B",
"5  c #2C3234",
"6  c #3B3B38",
"7  c #520E0A",
"8  c #441817",
"9  c #571815",
"0  c #681111",
"q  c #771A18",
"w  c #482804",
"e  c #532906",
"r  c #44380B",
"t  c #57370A",
"y  c #4B3017",
"u  c #6B2F17",
"i  c #512D2F",
"p  c #43392B",
"a  c #493937",
"s  c #702A29",
"d  c #4B4417",
"f  c #574C12",
"g  c #68590D",
"h  c #6E5816",
"j  c #756713",
"k  c #584826",
"l  c #5C572B",
"z  c #4A4738",
"x  c #554A37",
"c  c #534F35",
"v  c #67552B",
"b  c #676229",
"n  c #776D2F",
"m  c #122E51",
"M  c #313C48",
"N  c #153A6B",
"B  c #223D60",
"V  c #573E48",
"C  c #39464E",
"Z  c #0D427F",
"A  c #314D70",
"S  c #484B48",
"D  c #56544B",
"F  c #505354",
"G  c #645A47",
"H  c #645B56",
"J  c #58625D",
"K  c #6B6347",
"L  c #76674A",
"P  c #686859",
"I  c #756C53",
"U  c #7A7456",
"Y  c #495B6B",
"T  c #576870",
"R  c #556876",
"E  c #696767",
"W  c #706D6E",
"Q  c #757775",
"!  c #861716",
"~  c #97191C",
"^  c #A71617",
"/  c #B41314",
"(  c #8A291B",
")  c #AC2B1B",
"_  c #971A24",
"`  c #AF1B22",
"'  c #93312B",
"]  c #A92729",
"[  c #B52226",
"{  c #A03F26",
"}  c #C81A1D",
"|  c #D21616",
" . c #D7271C",
".. c #E22012",
"X. c #D31920",
"o. c #C62C29",
"O. c #84501B",
"+. c #8A7719",
"@. c #8D7419",
"#. c #924E2B",
"$. c #AB442F",
"%. c #846E26",
"&. c #8B3746",
"*. c #887950",
"=. c #897C64",
"-. c #948417",
";. c #AB9219",
":. c #BEA91E",
">. c #998B29",
",. c #9E8833",
"<. c #AA9727",
"1. c #BAA628",
"2. c #B0A43A",
"3. c #CBB31B",
"4. c #CAB522",
"5. c #CBB52F",
"6. c #DCC318",
"7. c #F7DE0D",
"8. c #FADE0F",
"9. c #E6CE18",
"0. c #F5DE14",
"q. c #FBDE12",
"w. c #F5DC1B",
"e. c #F9DE1B",
"r. c #FAE00F",
"t. c #FBE012",
"y. c #F9E11A",
"u. c #D8C427",
"i. c #DBCB36",
"p. c #EED728",
"a. c #F6DD25",
"s. c #E8D232",
"d. c #F6E129",
"f. c #968E53",
"g. c #A8904E",
"h. c #B4A953",
"j. c #978C66",
"k. c #8A8779",
"l. c #918871",
"z. c #978A72",
"x. c #BA9767",
"c. c #A59675",
"v. c #B3AD6F",
"b. c #CBBA4C",
"n. c #CEB86D",
"m. c #D6CB4F",
"M. c #EAD342",
"N. c #EFE65E",
"B. c #D5CB6C",
"V. c #ECD871",
"C. c #F1E771",
"Z. c #F5E777",
"A. c #093F89",
"S. c #0B458C",
"D. c #14488B",
"F. c #064A98",
"G. c #0348A3",
"H. c #5D7588",
"J. c #5A7E97",
"K. c #677A87",
"L. c #717C85",
"P. c #657E91",
"I. c #5F8097",
"U. c #72848D",
"Y. c #698497",
"T. c #748A98",
"R. c #6D91AA",
"E. c #7693A7",
"W. c #789AB4",
"Q. c #7EA3BD",
"!. c #73A6C6",
"~. c #77A8C7",
"^. c #76A9CB",
"/. c #7CABCB",
"(. c #939390",
"). c #A4988C",
"_. c #ABA68A",
"`. c #B8AA89",
"'. c #B3AE97",
"]. c #8398AA",
"[. c #88A4BA",
"{. c #96A8B1",
"}. c #AAAAAA",
"|. c #ACB1AF",
" X c #B9B3AA",
".X c #B5B5B4",
"XX c #C4B388",
"oX c #C6B996",
"OX c #C8BCA7",
"+X c #D9C88F",
"@X c #CEC49C",
"#X c #EAD58F",
"$X c #F5E591",
"%X c #D8C9A6",
"&X c #C5C1BC",
"*X c #DCD4B8",
"=X c #E8D5A7",
"-X c #F2DDA9",
";X c #E6DBB8",
":X c #FAE4A8",
">X c #FDE6AC",
",X c #EDE3BA",
"<X c #FAE7B5",
"1X c #85A9C4",
"2X c #8BACC6",
"3X c #83AECD",
"4X c #8AAECB",
"5X c #96ACC2",
"6X c #85B1CF",
"7X c #8AB1CE",
"8X c #92B3CD",
"9X c #98B5CC",
"0X c #83AFD0",
"qX c #85B2D1",
"wX c #8CB5D3",
"eX c #8EB8D6",
"rX c #8BB6D8",
"tX c #8EB9D9",
"yX c #91B6D3",
"uX c #93B9D6",
"iX c #99BCD6",
"pX c #94BBD9",
"aX c #99BEDA",
"sX c #A3BCD1",
"dX c #97C0DE",
"fX c #9CC1DC",
"gX c #B4C6CA",
"hX c #A1C2DD",
"jX c #9DC4E0",
"kX c #A2C5E0",
"lX c #C7C5C4",
"zX c #D3C9C3",
"xX c #D5D2CA",
"cX c #DBDAD7",
"vX c #E2DBCC",
"bX c #F6E9CB",
"nX c #E7E4D8",
"mX c #F7EDD0",
"MX c #DFE0E0",
"NX c #EAE8E7",
"BX c #EEF1EF",
"VX c #F5F2E8",
"CX c #F6F5F5",
"ZX c #FDFDFD",
/* pixels */
"iXpXrXpXpXeXuXuXqXuXwXaXaXuX7X3XdXyX7XdX/.dX3X6XdXyXwXeXpXpXfXuXwXwXhX6XwXpXpXeXeXiXiXfXpX6XfXfX6XuXeXuXwXwXuXqXeXuXwXwXuXyXuXuX",
"pXeXrXaXpXuXuXqX~.qXuXwX6XyXiXpXyX/.qXdXyXyXdXyX~.wXdXdXeXuXwX3XpXeXwXwXpXpXeXeXwXuXuXwXfXhXfX7X6XuXuXeXuXdXdXdXpXuX6XwXpX7XeXeX",
"uXwXqXpXqXwXqXrXeXaX!.3XwXeXwX4XyX6XuXfXfXfXeXwXyXuXuXuX7XfXtXeXuXpXpXqXwXpXpXpXwX7XwXwXwXpX^.dXuXpXeXwX6XwXeXeXdXwXpXfXpXwXqXpX",
"aXuXuXuX0XqXuXpXaXpXrXeXaXyX3XfXyXfXeX/.yX7XeXyXwXuXwXwXiX[.W.W.E.R.[.1XpXuXqX6XuXiXpXpXwXwXwXwXpXpXqXqXuXuXdXwXwXuXuXwXwXyXpXpX",
"aXpXuXuX3XqXeXeXpXaXuXwXyXaXaX8X6XdXwX6X8XeXdXwXiXfXR.]._.*.b f k b f._.{.Y.R.uXuXuXiXiXuXwXwXeXaXeXwXeXwXuXuXwXpXdXwX7X7XiXpXuX",
"aXwXpXiXwXuXwXqXpXuXwXqXuXaX3XwX8XdXeXdX6X7XdXdX9XU.l j u.p.e.w.y.w.p.i.@.g P T.Q.wX8XwXeXpXuXwXpX3XwXuXqXpXuXwXuXdXuXuX7XyXaXyX",
"wXuXiXuXyXpXuXeXfXpXwXuXrXpX~.iXfX7XeXdXeXeXdX7XU.b :.w.r.0.8.q.r.r.t.t.q.w.:.g J [.qXeXaXpXyXyXaXwXfXiXwXwXwXwX6XpXpXfXuXiXuX7X",
"3XuXiXuX8XpXuXuXuXuXuXrXeXuX4XuX8X/.eXeX8XdXdXR.K :.y.y.r.y.t.r.r.r.t.8.8.0.t.6.h T Q.uX6XuX7XiXfXwXpXwXuXwX/.wXwXfXuXwXiXwXwXpX",
"aX0XuXwXeXpXuXuXeXwXeXrXiXpXpXqXwXwXeXeXdXuX[.F j w.t.t.t.q.t.t.t.t.t.r.q.8.t.0.3.l T.pX3XuX7XiXpXuXtXaXaXuXeXpXuXuXuX/.yX7XwXwX",
"qXyXqXwXeXaXqXwXpXwXrXpXpXtXpX3XqX7XeXdXuXeXU.b 3.q.t.t.t.t.t.t.t.t.t.r.8.t.8.t.w.j M W.qXpXuXiXuXwXpXuX^.uXpXfXeX6X6X6XuXeXdXqX",
"wXpXqX3XwXpXqXqXuXwXeXaXuXaXuXuX7XwXdXdXdXE.z <.t.t.t.t.t.t.t.t.t.r.7.t.8.8.r.r.t.4.r I.eXuXuXqXyXwXaXqX/.eXpXtXwXwXpXdXyX6XyX6X",
"uXuXqX3XuXeXqXrXeXeXeXwXqXaXeX3XyXdXeXeXiXL.g 9.r.t.t.t.t.e.y.d.a.a.y.q.q.8.t.t.t.a.f F Q.wXeXqXaXuXpXqXeXeXpXpXdXdXwXyXwX6XdXwX",
"uXuXyXuXaXuX3XuXuXuXwXqXqXwX4XwXfXfXdXdXR.b u.t.t.p.1.g r d n U f.U l d f +.u.p.y.y.<., R.6XuXqXfXqXqXqXrXpXpXpXpXeX6XuX7XuXuXfX",
"uXuXyXuXaXaXwXiXuXwXuX3XrXiXwXuX/.dXeX2XQ j d.>.d _.cXMXcXcXMXMXNXNXnXcXcXnX*XI f 1.M.r E.pXpXqXpX7XuXyXiXpXpXeXqX/.wXuXpXyXuXwX",
"0XwXuXuXaXaXuXwXeXuXaXuXuXuX4XiXeXeXdXW.z f.I cXNXBXZXZXZXZXZXZXCXZXZXZXZXZXCXBXNX Xx > 5 1XeX/.aXuXiXyXpX3XeXaXpXqXqXqXuXrXuXwX",
"0XpXaXuXuXuXpXqX0XyXwX0X0XiXuXaX/./.fX(.S BXCXZXZXZXZXZXZXZXZXZXZXZXZXZXZXZXZXZXZXZXCXQ @ R.fXeXaXuXiXaXqX^.fXpXqXwXdXpXrXwXwXuX",
"4XyX0XaXiX7XqX4XqXrXyXrXyXyX8XyX8X9X].a zX).E H S i $ $ o $ $ o $ o o o $ , a E ).OXcXnXE 1XiX8XwX1X4XuXuXaXaXtXrXrXqXpXaXyX7X7X",
"yXaXyXaXaXiX8X1X5X(.V % % 9 s _ ' ] ' ] ] ' ] ` ] ] ] ] [ [ [ [ ` [ ` [ [ [ [ [ ] ] [ ] ] ] _ q 9 7 - a (.2XW.W.4XuXpXfXpXaXuXuX",
"aXuXaX9X[.E.H $ 9 ( { ' u u e w w w w w w w : w w * * : - * * * * t t t t e e e e e 7 e w w w e t ' #.$.$.( 9 - L.[.4X7XuXpXaXyX",
"aXuX8XP.a % u ' t f 2.s.d.d.a.e.w.0.0.0.t.q.q.9.-.;       .   . . j 3.6.w.0.q.e.e.e.w.q.q.w.e.e.a.a.s.M.1.g u { ( 8 E J.3XrXaXyX",
"yXyXL.% u O.%.i.a.q.q.q.q.q.t.q.t.t.t.t.t.y.9.g .                   X f <.3.y.t.e.q.q.q.q.q.q.q.q.t.q.e.q.q.a.u.@.h u y H.wXrXyX",
"yXP.9 O.@.p.q.8.q.q.q.q.q.t.q.q.t.t.t.t.y.6.h .     4 @       z 2 .       r <.4.w.q.q.q.q.e.q.q.q.q.q.q.q.q.q.q.q.s.%.s - K.wXwX",
"yX$ #.:.q.q.8.8.q.q.q.q.q.t.t.t.t.t.t.t.6.g .     p oXz     = =X).      X   . d ;.3.q.e.t.q.y.t.q.q.q.q.q.q.q.q.8.q.e.-., = 1X0X",
"yX- 5.7.q.8.8.8.q.q.q.q.e.t.t.q.t.t.r.9.-..     6 XX-Xa     =.:X:Xz   = G       o f 3.w.q.q.t.t.q.q.q.q.q.q.q.q.8.8.q.e.@.o ~.uX",
"iXz 1.7.t.t.t.q.q.q.q.q.q.t.t.t.t.y.u.j ;     > c.:XoX4   D -X:X:X`.  4  X5         < j u.y.t.t.q.q.q.q.q.q.q.q.q.q.t.8.i.= Q.wX",
"eXE.k 3.r.t.t.8.q.q.q.q.q.t.t.t.;.j %.>       G +X:Xc.>   XX:X:X:X=XO 4 ;X=.          . f -.a.t.q.q.q.q.q.q.8.r.8.8.t.a.n O 1X7X",
"wXyXK.l -.y.0.t.q.q.q.q.q.t.t.t.3.;.b O     4 XX:X:Xj.> D #X>X>X:X:Xj.4 bXv.X 6 6         n s.y.0.q.8.q.0.8.t.r.q.t.a.@.O R 7XwX",
"wXuX2XE.Q j 9.t.t.t.q.t.q.t.t.t.i.d O       K :X$X:X`., `.:X>X>X>X>X`.4 ,X%Xc P E         , h.y.0.q.0.q.q.q.t.t.q.4.j @ R 7X3XeX",
"uXwXpXwX2XU.k -.a.q.q.q.q.q.e.+.<           G +X*.x _.6 XX>X>X>X:X:X@X2 _.,Xj.P k.@         ; d p.t.t.t.r.t.t.p.-.; a P.yXpXwX7X",
"pXqXeXiXwX3XQ.T r ;.w.q.q.t.y.,.b.n       O f.,XnXlXNXE @X<X>X>X>X-XI lX|.VXk.U oX6           . r y.t.t.t.p.>.; @ R W.7XpXwXiXpX",
"uX6XpXfX7XwXwX3X4XJ < 4.e.e.0.0.p.;       , z.vX(.# = .X;X:X<X>X>X=XlX# # E  Xc.'.6         O u.9.t.t.p.>.O O Y 2XwXwXqXuXaXyXuX",
"eXwXeXeXwXwXwXeXpXiX7XC & 5.w.y.w.o z mX_.2 _.VXQ     .X;X:X>X<X>XOXlX+   F cX@Xc.= Q ;XbX> O w.y.s.f X + F yXwX6XwX0X0XuXaXpXaX",
"uXiX7XqX7XuXpXaXuXeXpXeXqX5 O m.p.= ;Xk z d k.VX(.# 2 &XbX>X>X>X>XoXcXX 5 }.NX,X=.o c.XX=XG l m.O X # P.0XuXyXqXeXuXwXyXpXuX4XpX",
"rXwXuXeXiXpXpXqXqXeXtX7X!.pXpXQ @ 3 +X`.)., I mXCXCXBXOX=X>X>X:X>XbXcXBXZXBXnX<XI x a XX>Xx # # 5 9XuXaXaXaXpX0X3XuXpXiXpX!.eXrX",
"pXyXpXpXwXiXwXeXtXjXfXpXtXpXeX/.pX[.z v.XXx K `.'.VX X%X>X>X<Xc.>X<X=Xl.vX}.I <X=.).z.L `.3 [.pXuXqXaXpXwXqXwXqX3XqXuXiXpXpXiX3X",
"aXuXpXiXpXpXqXwXfXuXwXaXpXwX6X6XaXiXL.S v.f.l.z.).,X%X=X>X>X>X<X<X<X<X%X;XOX=.%X_._.oX'.V ].uXtXuXrXpXrXwXqXuXwXrXpXiXaXtXpXpX3X",
"kXqXuXpXpXpXfXaXwX3X7XuXuXuX3X~.fXkXaX[.M o S ).OXlX(.OXbXmXbXbXbXmX;X(..XBXnX_.4 + . S 1XaXrXaXqXeXrXwXwXwXeXwXuXfXuX7XeXpXqX/.",
"aX0X3XuXdXuXuXqX6XeXeXuXwXqXrX!.fXhXpX/.R.M 2 2 W OXMXNXCXZXCXCXCXZXZXNXxXxX(.D . 5 M T 4XpX3XkX3XuXrXrXqXeXeXuXaXpXuXuXuX3XqXpX",
"wX4XeXpXrXrXtXpXpXuXqXpXpXrXuXpXpXpXaX!.yX2XK.2 . F W (.vXzX X.XOX&XcX XD Q >   X H./.uXaXwX0XaXqXpXwXwXwXuXpXeXeXtXuXpXpX6X/.dX",
"7XwXpXuXqXwXeXuXdXuX/.uXuXuXwXuXrXqXtXrXrX4X[.R.F # . 4 E D L g.j.a H S o # C Y Y E.3XuXpXeXqXaXuXuXwXuXuXwXuXpXrXpXuXiXuXwXeXeX",
"eXaXiXeXeXyX3XwXpXeXrXiXuX^.pXeXeXqX6XuXeXuXuXqX4XC . a G K n.V.#X% n o o 5 [.iXaXuXiXuXfXrXqXaXiXwXqXuXeXeXrXiXwXeXuXyXqXuXqXqX",
"uXaXqXpXuXuXwXwXaXpXqXyX~./.pXuXrXiXrXpX4XqXuX3XY.s q g.n.+X$XB.#X* m.e ~ i H.8XtXrXrXaXaXuXuXaXpXwXuXiXqXqXuXiXeXuXpXyX4XeXeXuX",
"eXpX0XpXqXwXuXyXaXuXeXpX6XiXeXqXrXwXuXiXqXwXpXP.i ` o.#.m.#XZ.N.N.h.M.7 X.` a Y.uXiXyXiXaXpXpXwXiXiXuXpXwXqXpXqXwXeX3X3X3XrXwXiX",
"^.aXrXeXrXqXuXuXpXuXpXiXpX/.3XiXiXeXuXaXuXrXY.i ^ X. .9 h.Z.C.m.V.h.m.q  .X._ i E.fXiXyXiXyXuXrXiXrXyXfXuXaXeX6XuXeXqXqX7XiXqXrX",
"uXpXpX0XuXrXwXyXiX3XwXiXwX0X~.aXaXyXuX7XqXT.3 _ } } } ! x.g.N.f C.B.m.) } X.} ! 8 K.8XuXrXuXdXrX7XaXaXaXpXfXtXeXpXpXeXiXuXiX6XqX",
"pXqXuXpXaXuXyX7XyXqXwXqXqXwXwXrXyX0XrXrXR.3 _ X.^ ~ ^ [ [ n.f.v.V.n.) / ^ / } } ] i P.rXuXrXrXrXeXpXeXiXuXrXrXuXpXaXpXaXyXuX^.aX",
"3XwXuXuXrX0XwXrXpXpXaXkXaXwX0XdX4XrXuXwXE.= 0 ~ 0 ! q / | $.+Xf.v.{ ../ 0 ) ^ / 0 E yXfXaX7XaX7XpX3XeXfXpXeXpXuXrXpXeXyXaXwXaXfX",
"!./.rXuXfXpXpXiXrXpXpX3XrXpXrXhXuXuXrXrXpXP.. o 7 ~ ! / | 0 l * r k ..| ~ ^ % - 4 P.pXtXrX3XfXrXuXaX3XuXpXuXpXeX/.qXpXuXiXuXwXpX",
"pXwXpXaXpXhXuX6XqXqXwXwXwX6XdXuXaXfXrXwXeXfXT.K =.' q ~ ] +Xm.v n.V.! [ ] q G ,XoX{.eXaXaXuXwXpX3XiXqXpX/./.uXaXqXqXpXpXwXpXuXpX",
"qX0XpXrXqXqXwXwXeXeXeXrXpXrXuXuXiXpX/.qXwXeXU., - s u u r U B.n.n.L b.$.' 7 8 z.@X{.iXaXyXyXaXqXiXyXrXaXrXeXiXiXwXaXfXrXpXaXwXuX",
"pXeXaX3XuXuXwXpXpXuXuXfXpXfXiXpX3XaXyXpXfXeXU.3 > ; v.$XB.xX*XxX*X*XM.i.1.* $ L @X.XsXuXyXuXaXeXyXiXqXpXpXuX8XyXqXuXaX3XuXuXaXrX",
"eXpXpXpXiXpXuXuXaXpXwXwX6XpX7XyXeXpXuXqX7XpXU.I K j b.m.u q 0 0 7 7 9 y %.%.; < j.gXyXaXqXiXuXuXqXeXyXaXaXpXeXeXiXaXrX0XpXuXeXaX",
"qXuXaXpXpXiXwXwXwXrXwXrXwX3X!.iXeXqX4XaX3X7XY.I B.>.f.h.$. . . . . .o.#.4.@.9 %.h.|.dXdXwXuXqX4XuXuXpXuXuXrXwXuX7XuXpX6XfXdXpXfX",
"wXiXiXpXaXiXuXwXeXiX/.qXeX7XuXaXuXaXwXpXuX~.C d 2.i.m.d i ' &.&.&.&.&.H v #.0 $.l K.wXwX4XyX7XyXpXpXuXqXeX6XwXeXuXpXuXdXfX/./.dX",
"wXeXpXaXwXuXiXpXwXwXwXwXtXwXuXrXaXuXuXwXuXY.o k 2.m.f.A D.D.Z N N D.D.S.A i 8 s 8 H.wXeXiXaXyXiXpXqXqXqXfXiXiXuXfXiXuXpXpXeX/.fX",
"3XpXpXpX3XiXtXrXwXwXwXrXtXpXuXqXpXuXuXwXwXW.Y F c P B S.G.G.m A C m F.G.A.m # a E E./.7XiXuXuXuXeX~.uXiXpXpXpXiXiXiXuXuXqXuXwXpX",
"qXpXwXeX6XdXtXqX7XuXrXqXiXpX6XuXaXpXyX7XwXwXwXT.M N A.A.F.A.5 Q.J.+ S.F.F.Z 1 T yXwXuXrXwXwXuXaX7X/.pXpXuXiXiXpXuXuXuXwXwXuXdX7X",
"eXwXwXuXqXeXwX6XwXuXqX7XuXyX4XwXuXpXuXuXyXwXqXE.Y Y A B m 1 K.aX/.+ m N B A C R uXwX0XpXuXpXiXqXpXpXiX6XfXuXyXwXpXpXuXwXwXuXeXeX",
"eXdXfX6X!.uXrXwXpXeXwXrXiXqXqXwX^.pXaXaXiXiXwX].F Q |.|.}.# [.fXrX# |.|..X|.E R eXqXeXfXaXaXrXqXpXuXuXqXwXuXwXuXpXeX6XwXpXpXeXdX",
"eXwXdXqX6XdXuXuXuXwXeXiXeXeXaXpXwXaXyXiXyXuXpXT.V 2 D H S 2 2XdX/.5 S F F F E E.wXuXpXpXuXpXeXuXeXdXwXuXwXfXiXpXuXeXuXwXpXwXwXdX",
"fXuXuXpXpXpXuXeXqX3XuXrXpXwXaXfXaXwXwXuXuX0XP.2 J (.'.'.(.R.pXtXqX[.K.p _.Q (.C K.wXrXuXwXwXwXdXpXqXeXwXqXdXeXeXdXeXuXwXiX7X!.fX",
"~.dXtXR.iXwXqXtXaXrXuX4XpXpXtXaXkXpXpXaXuXP.# # k.lX*X;X|.7XfXrXaXaXW.x %Xk.(.# 2 H.qXqXeXuXpXdXpXtXpXeXtXdXdXpXpXeXwX7XdXdX7XfX",
"wXdX/.tXpXwXeXpXuXaXiX3X0XqX/.jXwXyXaXwX7XH.+ X a D 4 3 Q 2X0XrXaXuX[., I z S X > P.wX7XpXpXwXqXpXqXaXrXwXwXqXqXwXeXeXuXuXwXfXdX",
"tXdXrXrXeXeXeXeXtXfXaX7XyX3XqXqXrXdXaXaXrXwX9XgXsX9XyXuXiXaXrXrXpXwXpX9XsX9X8X8X3XwX7XuXdXwXwXfXfXwXrXtXeXwXwXwXwXwXiXpXeXwX7X6X"
};
