/* XPM */
static char *result[] = {
/* columns rows colors chars-per-pixel */
"64 64 223 2 ",
"   c #0E0C10",
".  c #3A0B08",
"X  c #2C100A",
"o  c #3A290A",
"O  c #2F2711",
"+  c #071736",
"@  c #0C1534",
"#  c #2D1B30",
"$  c #1D2C3E",
"%  c #232827",
"&  c #2F332E",
"*  c #3F2033",
"=  c #2C363B",
"-  c #383737",
";  c #490B0D",
":  c #59070B",
">  c #56160D",
",  c #4E1113",
"<  c #571716",
"1  c #5E1413",
"2  c #660A0A",
"3  c #7A050C",
"4  c #62180F",
"5  c #690A12",
"6  c #790612",
"7  c #631614",
"8  c #6B1514",
"9  c #661A16",
"0  c #761714",
"q  c #473808",
"w  c #57310C",
"e  c #682818",
"r  c #7C2B1B",
"t  c #561A20",
"y  c #542C32",
"u  c #6B292A",
"i  c #752B2D",
"p  c #38413C",
"a  c #594607",
"s  c #594A13",
"d  c #5B5415",
"f  c #675417",
"g  c #6F5211",
"h  c #786715",
"j  c #766B12",
"k  c #564C28",
"l  c #4F4F33",
"z  c #6B5126",
"x  c #736F30",
"c  c #091C43",
"v  c #112848",
"b  c #052756",
"n  c #22344A",
"m  c #353C44",
"M  c #08306A",
"N  c #05377A",
"B  c #4E3B43",
"V  c #7B3543",
"C  c #3A444B",
"Z  c #3B4C58",
"A  c #28456A",
"S  c #56544A",
"D  c #4F4E53",
"F  c #49555C",
"G  c #6E4F55",
"H  c #5C6147",
"J  c #767953",
"K  c #465865",
"L  c #4B5D6A",
"P  c #575A68",
"I  c #775562",
"U  c #685F71",
"Y  c #4C606E",
"T  c #4D6374",
"R  c #556770",
"E  c #576776",
"W  c #6F6C75",
"Q  c #626879",
"!  c #88070A",
"~  c #8C0E10",
"^  c #B01114",
"/  c #812A1A",
"(  c #952618",
")  c #821D24",
"_  c #852628",
"`  c #982827",
"'  c #8E322C",
"]  c #A22724",
"[  c #A33923",
"{  c #B33029",
"}  c #D41618",
"|  c #D02C19",
" . c #E93E1F",
".. c #D41B21",
"X. c #8C5B1C",
"o. c #A74419",
"O. c #8A7117",
"+. c #AF7C17",
"@. c #914C28",
"#. c #AE4827",
"$. c #B04B27",
"%. c #BD5637",
"&. c #886B24",
"*. c #917726",
"=. c #B17829",
"-. c #D14F17",
";. c #DB5A16",
":. c #EB501C",
">. c #EA571E",
",. c #E9651C",
"<. c #F46515",
"1. c #F4641A",
"2. c #F46819",
"3. c #E74621",
"4. c #EF5721",
"5. c #C67B28",
"6. c #C87232",
"7. c #F26020",
"8. c #874455",
"9. c #B86640",
"0. c #99890E",
"q. c #97871A",
"w. c #A68A15",
"e. c #B88916",
"r. c #B39713",
"t. c #BBA519",
"y. c #8B822C",
"u. c #93882D",
"i. c #A68927",
"p. c #A89424",
"a. c #B2972E",
"s. c #B9A529",
"d. c #C29C14",
"f. c #C9AC18",
"g. c #CBB417",
"h. c #D6BD15",
"j. c #C7832D",
"k. c #CB9236",
"l. c #CEB02F",
"z. c #D3B825",
"x. c #E1AD32",
"c. c #DCC517",
"v. c #F5DF0A",
"b. c #FADE0E",
"n. c #E4CA19",
"m. c #ECD315",
"M. c #ECD41C",
"N. c #F6DD14",
"B. c #FBDE12",
"V. c #F1D718",
"C. c #F4DA1B",
"Z. c #FADE1B",
"A. c #F6E00B",
"S. c #FCE00F",
"D. c #FCE011",
"F. c #FAE11D",
"G. c #DAC525",
"H. c #DBD336",
"J. c #E7CC2C",
"K. c #EED727",
"L. c #F4DA21",
"P. c #F5DA25",
"I. c #ECD733",
"U. c #F3E228",
"Y. c #B99A5F",
"T. c #838464",
"R. c #A09160",
"E. c #D1A947",
"W. c #EBBB46",
"Q. c #ECCD45",
"!. c #CCC66F",
"~. c #F2E673",
"^. c #023E89",
"/. c #024292",
"(. c #5D7283",
"). c #5A768A",
"_. c #5C768B",
"`. c #657686",
"'. c #62798B",
"]. c #7A798C",
"[. c #647E92",
"{. c #698699",
"}. c #718A98",
"|. c #6688A7",
" X c #6C8DA6",
".X c #728EA1",
"XX c #7391A6",
"oX c #7393AB",
"OX c #6994B6",
"+X c #789BB5",
"@X c #7B9CB4",
"#X c #7DA2BD",
"$X c #6B9FC1",
"%X c #73A6C7",
"&X c #79A7C6",
"*X c #75AACB",
"=X c #7CABCB",
"-X c #918F8F",
";X c #BDBE97",
":X c #849CAD",
">X c #85A4BC",
",X c #CBCA91",
"<X c #85AAC5",
"1X c #83AECD",
"2X c #89AECB",
"3X c #85B1CF",
"4X c #89B1CF",
"5X c #92B3CF",
"6X c #83AFD0",
"7X c #86B2D1",
"8X c #8CB5D3",
"9X c #8EB8D6",
"0X c #8BB6D8",
"qX c #8EB9D8",
"wX c #91B6D3",
"eX c #93B9D6",
"rX c #99BCD6",
"tX c #94BBD9",
"yX c #99BEDA",
"uX c #97C0DE",
"iX c #9CC1DC",
"pX c #A1C2DD",
"aX c #9DC4E0",
/* pixels */
"rXtX0XtXeX9XtX8X8X8X9XiXrXeX4X1XyXeX7XeX=XuX7X7XrX9X8X9XtXtXiXeX8X9XpX3X8XqXtXqX9XeXiXiXuX=XuXiX3XrX8XeX8X9X9X8X9XeX4X9XeX8XeXwX",
"tX9X0XyXtX9XeX8X%X8XeXwX3X9XtXeX8X1X8XeXeXrXrX8X=X0XyXtX9XeX0X1XeX0X8X8XtXtXeX9X9XeX5X5XiXpXiX3X3XeXeX8XeXuXiXeXeXeX4X8XeX8X9X9X",
"wX8X7XtX8X0X7X0X9XyX$X=X4X8X8X4XwX3XeXyXiXeXwX8X8XtXtXeX1XtX9X0XeX9XrX8X9XtXtXtX9X4X8X5X9XuX&XuX9XuXeX8X1X9X9X9XuX8XeXuXrX8X7XtX",
"yXtXwXeX1X7X9XyXyXyXqX9XyXwX2XiXtXtX8X7XeX8X9X9XwXeX0X7XrXyX9XwX8X4XwX3X9XeX3X3X5XeXuXeX8X8X8X8XeXeX3X8X9XeXuX9X9XeXeX8X8X8XrXuX",
"iXtXwXtX1X8XeX0XtXyXwX9XeXyXtX5X7XtX0X8X9X9XeXeXtXyX4X8XeX0XwX8X8XtXpXyXrXrX7X8XeXeXeXuXeX0X9X9XuX8X9X9X8XeXeX8XrXuX8X3X3XtXtXwX",
"rX8XrXrX8XwX7X7XtXeX9X7XeXiX1XwXwXeX9XtX4X8XiXiXrXeXeXiXwX3XeX3XeXeXrXwXtXwXeXeX8XeX5X9X8XtXwXwXrX3X5XeX7XeXeX9X9XuXrXeX4XwXiXwX",
"9XwXyXwX4XrXeXtXiXtX8XwX9XtX%XrXrX8XtX9X8X9XtXwX9XtXtXuX3X<X4XeXrX0X8XeXrXwXqX0X8XrX4X8XiXuX4X5XuX4XiXeX8X9X3X8X4X9XiXiXrXrXwX8X",
"1X9XtXtXwXrXeX9XeXtXwX9X9XwX4XtX5X1XeX9XeXtX8X4XeXtX0X0XrXtX4XiXeX7XiXtXeXwX9X9X8XuX8X9X4X8X4XrXiX8XuX8XeX8X=X8X9XiX5X8XeX8X4XuX",
"rX4XeX8X8XtXeX9X0X8X0X9XeXtXrX7X8X8X9XqXtXtXwXeX7X7XqXqXqX_.L R Y K +X9XuXuXeXeXrXeXeXuX=X8XwXiXtX9XqXyXyX9XqXtXeX9X9X=XeX4X8X8X",
"7X8X7X9X9XtX8X8XtX8XtXtXtXqXeX6X7X8X9XtXtXeX8XtX8X7X9X(.F y.0.0.0.q.J K XXiXeXeXeX5X8X3X8XrXwXrXwX8XtXeX%XeXtXiX9X3X3X1XeX9XuX7X",
"8XtX7X=XwXtX3X8XeX8X9XyX9XyXeXeX7X0XuXtXtXtXtX9X7X1XE x r.K.N.B.A.V.c.q.S (.rXuXuX9X8X3X8XeX9X8XeX8XyX7X=XeXtXtX0X8XuXuX8X3X5X3X",
"tXeX4X3XtX0X8X8X9X9X9X7X7XyX8X7XtXyXtXtXtXeXtX9X{.C y.c.F.A.B.N.D.D.D.M.f.y.l (.4XeX8X8X7X0X8X7XyXeXqX9X9X9XqXtXuXuX5X8X8X2XuX9X",
"wXwXwXwXtX9X1XwXtXwXwX6X7XwX1X8XiXiXqXtX9XuXuX).& 0.n.A.b.B.b.v.D.D.D.D.D.n.t.H (.9X8XuX4X3X9X7XiX7X8X7XqXtXtXtXuXqX4XwX8XeX9XiX",
"wXtXwXtXiXyX8XtX9X9XwX1X9XtXwXwX7XeXqX9XeX9X).k t.v.N.v.B.b.b.B.D.D.D.D.D.D.Z.n.x E 4X3X3XeXrX8XtX4XwX8XeXeXtX9X7X=X8X8XrX8XuX8X",
"6X8XtXtXpXyXtX7X9XwXtXtXtXwX2XrX8X8XuXeX9X{.z H.N.N.b.B.B.D.D.S.D.D.D.D.D.D.D.D.N.j {.7X9XuXeX=XyXwXrXwXtX3X9XiXeX3X7X8XeX9X8X8X",
"1XtXtXtXwXtXtX7X7XwX8X6X1XrXrXyX=X3XiXuX{.d K.A.N.B.B.B.B.D.D.B.D.D.D.D.D.D.D.S.A.F.d  XiX7XuX9XpXwXrXyX8X%XiXtX3X0XuXeX0X8X3XrX",
"2XwX3XpXtX8X2X4X3X4XuXeXeXrXuX5X<X<X).  s U.A.N.B.B.B.B.B.D.D.D.D.D.D.D.D.D.D.S.D.D.d = oX3X8X7X9X8XwXrXuXiXiXuX7X7X7XuXuX5X4X3X",
"wXyXwXrXrXwXeXeX9XiXuXeX4X<X+X-   a u.u.s.v.A.D.D.D.B.D.D.D.D.D.D.D.D.D.D.D.D.S.D.D.0.z q O - #X2X4X8XyXuX7X#X=X3XuXuXiXuXeXrXeX",
"yXtXrXwXwX2X8XwX9X3X#X+XF O d H.F.F.c.a F.N.A.F.D.B.D.D.D.D.D.D.S.D.D.D.D.D.S.S.S.S.K.h h.L.l.a O {.#XtX8X7X9X3XuXuX4X7X9XuXuX5X",
"yXeXtX8X9XtXwXrX5X#XD q p.V.A.D.A.D.c.q N.S.A.D.S.D.D.D.S.D.D.D.D.D.S.D.D.D.D.S.S.S.F.a g.D.D.N.I.j l .X@XuX8X3X9X3X3XOX4X9XuX5X",
"5X5XuX8XeXtXtX<XQ l p.K.D.B.D.B.b.b.c.q b.B.b.D.D.B.D.D.D.D.D.D.D.D.D.D.D.D.D.D.D.A.F.a g.B.N.B.S.D.J.d l oX8XuX9X3X3XuXeXeXeXeX",
"uXuX9X8XtXyX>XF d g.A.A.B.B.D.D.S.v.c.a B.v.D.D.D.D.D.S.D.D.D.D.D.D.D.D.D.D.S.D.D.D.A.g g.D.B.B.D.D.D.C.s.S  XuX8X4X8XeXuXuXuX3X",
"uX<XuX8X3XuXQ f c.v.b.B.S.b.D.D.S.S.n.j N.b.D.D.S.D.D.D.D.B.D.D.D.D.S.D.D.D.D.D.D.S.S.j z.N.D.B.D.D.B.B.F.l.H  X4XeX9XeX9X4X3X3X",
"eX7X8XuX3XOXS p.B.b.b.b.b.B.B.D.D.D.m.a.F.B.D.D.D.D.D.D.D.D.D.D.D.D.D.D.D.D.D.D.S.D.D.0.G.D.B.B.D.B.B.D.D.L.y.K 8XuXuX9X9X9X=XuX",
"uXeX4XeX6X_.y z.D.D.D.D.B.B.B.D.D.D.B.J.I.B.B.D.D.D.S.D.D.D.D.B.D.D.S.D.D.D.D.D.D.D.D.q.h.N.D.D.B.D.D.D.S.F.q.m #XeX9XuXeX8X3XwX",
"eX8X5XeX4X].@.g.D.D.D.D.B.B.D.D.B.D.B.J.p.N.D.D.D.D.D.B.D.D.D.D.S.D.D.D.D.D.D.D.D.D.D.O.h.D.D.D.F.B.B.D.D.F.q.  E 4X9XeXrX8X5X8X",
"8XeXeXuXtX-Xr w.B.D.D.N.B.b.B.B.B.D.D.c.q.Z.N.D.D.D.D.D.D.D.D.D.D.D.D.D.D.D.D.D.D.D.K.l.n.F.D.D.B.B.D.D.D.Z.q.  E uXwXwXeXrX8X8X",
"8X9X5XeXyX].5 5.Z.B.S.b.D.B.B.B.B.D.B.N.t.0.D.D.D.S.B.D.D.D.D.D.D.D.D.D.D.D.D.S.D.F.r.G.D.D.D.N.B.B.D.D.D.n.&.. R eX8X8XqXeX3X8X",
"eX8XuX4X9X{.7 [ r.b.b.B.b.b.B.B.D.B.B.B.V.s.f.Z.D.D.B.B.B.D.B.D.D.D.D.D.D.D.D.D.F.0.r.m.N.B.B.D.D.D.D.D.D.t.< 2 E tXrXtXeXtX8X4X",
"rX3X8XrX4X@XG ` j.L.B.b.b.B.B.B.B.B.B.B.B.K.p.w.N.B.B.v.B.B.B.D.D.D.D.D.D.D.D.F.w.w.M.B.B.B.D.B.B.D.D.D.L.*.8 I @XtX=X7XqX8XtXtX",
"9X3XuXiX4X4XQ 8 ( e.B.b.B.b.B.B.B.B.B.B.B.B.C.r.*.G.D.N.D.D.B.D.D.D.D.D.D.D.z.y.f.V.B.B.D.F.D.B.B.D.D.F.f.> 0 P rXrX8X8XtXrXwXtX",
"9X8X9X9X8X8X4XW ~ ( d.B.b.B.b.B.B.B.B.B.B.B.B.B.L.p.f l.P.D.D.D.D.D.D.K.l.d q.C.N.B.N.B.B.B.B.B.S.S.S.c.w 6 G wX6X8X6X1XtXrXrXyX",
"wXwX4X8X2X9XtX}.y ] [ f.B.B.b.B.B.B.B.B.B.B.B.B.B.B.B.I.q.w a &.&.a q g I.P.B.B.B.B.D.D.D.D.D.D.S.b.m.&.8 8.+X8X0XwX4XwXtXwX8XtX",
"tX8X9X9XtXtXtX0XT t { @.f.B.b.B.B.B.B.B.B.B.B.B.B.B.B.B.B.Z.B.Z.Z.C.B.B.B.B.B.B.D.B.B.Z.D.D.D.S.S.M.*.: _ E tX6X1X9XrXtXyX%X8X9X",
"tXwXtXtXwXwX9X0XuXT < ] / d.V.B.B.B.B.B.B.B.B.B.B.B.B.B.B.b.B.B.B.B.B.B.Z.B.B.B.B.B.B.B.D.S.S.S.h.&., i K 8X9X7X1X7XwXyXtXtXrX<X",
"uXwXtXrXyXyX7X7XyXtXL t ] 8 l.M.B.b.B.B.B.B.B.B.B.B.B.B.B.B.B.B.B.B.B.B.B.B.B.B.B.B.D.b.D.D.C.f.w , V Y 7X8X0X8X9XtXtXyXqXtXtX6X",
"pX7XwXrXtXtXiXrX8X1X4X'.B _ 0 =.d.P.B.B.b.D.D.B.B.B.B.B.D.B.B.B.B.B.B.B.B.B.B.B.B.B.D.b.C.f.i.; 9 G  XwX8X8XwX9XeXiX9X8X9XtX7X7X",
"iX6X7XqXyXtXtX8X7X9XeXeX8XF u ` 5 k.d.C.b.b.B.D.B.B.B.B.D.B.B.B.B.B.B.B.B.B.B.B.D.B.M.t.p.e , i B qX8X0X4XwX0XwXtXtXeXeXtX=X7XqX",
"8X2X9XtX0X0XtXqXtX9X7XeXtX0XE D i i r j.d.g.P.B.B.B.B.B.B.B.B.b.B.B.B.b.b.B.Z.P.f.w.=.e , e I E 0XtX0X0X0XtXtXqX9XtXtXeXrX3X=XtX",
"8X9XtXwX7X7X0XtXyXtX=XeXeXeX9XeXK K i 9 4 @.j.+.e.g.K.P.Z.Z.B.B.Z.Z.K.n.d.w.+.=.@.< , i I P <XyXqXqX8XeXwX8XwXtX0XtX9XrXeX8X9XeX",
"8XrXrX9X9XwX1X9XtXeX0XeXeX&XtX9XeX1X_.U G < < 1 r o.=.j.5.5.5.+.5.5.6.6.[ r 7 < u I ].`.5XwX8XpXtX8X7XeX0XeX8XtX8X9XwXwX8XwX8X7X",
"wXyX3XtXtXwX8X8XtXtX8XwX&X=XtX8XtXwX8XtX&XE `.].G , 7 4 1 4 8 8 5 7 7 7 5 1 y P '.@XwXrXyX9X9XtXyX8X9XtX3X4XtXtX8XeXtXwX1X9X9XeX",
"0XtX6XtX7X0XeXwXtXtX9XrX7XeX0X8X0X8XtXrX4XwXtX#XD . 2 2 2 2 [ #.{ ' ; ; : 2 t P >XtXwXrXiXtXtX8XrXtXeXrX8X7XtX4XeX9X1X1X1X8X8XeX",
"=XiX0X0XwX7XwXwXtXeXrXtXrX=X3XrXtXwXwXyXwXwXXXm , 3 3 ! ! ^ >.1.2.>.{ 2 6 3 6 t U 5XeXwXrX8XqXqXrXwX5XiXeXiX9X7X9X9X7X7X8XeX8X0X",
"9XtXtX6XtX0X8XwXrX1X8X9X9X1X=XtXyX8XwX6X8XtXoXB 6 6 3 ! ^ 3.1.1.2.<.>.^ 2 ! 6 6 t [.tX9X9X9XyX0X4XiXrXiXqXiXqX8XtXtX9XrXwXrX8X3X",
"tX7XeXtXtXtX8X8XwX3X8X8X7X8X8X0XwX6X9XtXwXtX+Xm   : ~ ^ } :.1.<.2.2.1.:.~ : ~ : # [.0XqXwX9XwX0XwXtX9XeXeX9X0XtXtXtXyXyXwXwX*XtX",
"4X7XwXtX9X6X8XwXtXtXyXiXtX0X7XyX1XwXwX0XtX7X[.T L . ^ }  .4.2.2.2.2.2.1.3.~ X D K '.tXiXtX7XyX7XeX1XeXiXtX9XtXeX0XtX9XwXiX8XiXiX",
"%X=X0XwXiXtXtXtXtXqXtX3X9XtX0XpXtXtXwX7XtXyX_.T T r ..} >.<.2.2.2.2.2.2.1.| ; K wX8XtXwX0X1XaX8XeXiX1XeXtX9XtX9X=X8XeXrXwXeX8XtX",
"eX8XtXyXtXiXtX3X3X8X0X8X4X3XuXwXyXyX8X8XwXyX>X X_.' ..:.1.,.2.2.2.2.2.2.1.4.@.'.yX9X0XtXpXtX9XtX1XrX8XeX=X=XtXiX4X4XtXtX8XtX9X9X",
"7X7XtXqX7X8X8X8X9X0X8X0XtX9XwXrXrXtX=X0XwX0X8X8XP ( 4.7.<.2.2.2.2.2.2.2.<.1.o.Q tX8XeXyX8XwXyX7XrXwX0XtX0X9XrXtX8XtXuXqXtXpX8XtX",
"tX9XtX1X8XeX9XtXtXtXeXiXeXiXrXrX4XyXeXtXyX9X8X&XW o.-.:.;.,.,.,.,.,.,.,.>.;.9.-X2XiXpXeX8XwXiXwX8XrX8XtXeXeX5XwX8XeXyX=XeXtXyX8X",
"9XtXtXtXrXtXeXeXyX9X8X9X3XeX8XeX0XqXeX7X8XtX#XP q X . 2 r [ %.%.%.%.$.[ r > ; O F >X8XrX8XrXwXrX4X8X8XiXyXtXeX9XeXtXtX3XrXtX9XtX",
"8XwXrXtXrXtX9X8X0X8X8X0X0X1X&XtXwX0X4XyX2X8X(.z k.=./ ) ` ` ` ] ] ` ] ` _ _ @.@.o `.tXyX8XrX4X6XeXtXeXeX9X9X9XeX8XeXrX3XuXiXeXiX",
"9XrXtXtXrXtX9X8X8XeX=X7X9X3X8XyXwXtX4XtX0X0X(.g k.E.k @ c # # * y # # @ @ l W.a.s `.9XwX2XwX4X7XtXtX9X4X9X4X8X8XwXeXtXuXiX=X=XuX",
"8XeXtXyXwXrXeXeXeX8X8X8X9X0XtX9XyXtXwX0XwXyX`.z k.x.l N /./.M b b ^.^.^.N S W.x.f `.8XwXrXrXwXwXrX8X7X8XiXeXrXeXrXiXeXtXtX9X=XiX",
"=XtXyXqX1XrXtX8X4X8X8X0XtXtXwX7XyXwXwX0X0XwXoXS z X.- N /./.c n n ^.^.^.N y &.&.H XX=X8XrXtXrXtX0X%X9XeXuXeXtXrXtXrXeXqX7XeX9XeX",
"7X9X0X9X3X9XuX7X8XeX9X8XeXtX6XtXyXtX9X8XwX8X7X XY - v ^././.+ |.|.N ^.^.^.n P E XX4XwXwX8X8XwXyX3X=XrXtXeXrXeXrXwXeXwX8X9X9XtX8X",
"9X9X9XrX9X9X9X=X9XeX1X8XeXwX2X8XeXtXwXwXwX8X7XwX8XK v ^./.^.+ tX2XM ^.^.^.A @XtXtX7X0XqXwXtXwX4XrXrXtX3XiXrX8X9XeXrXeX8X8XrX9X9X",
"9XuXuX3X%X9X0X9XeX9X4X9XtX8X8X4X=XyXyXyXrXrX9XtX8XZ @ b b b   tX4X+ b c c $ {.wX9X8X0XyXtXuX0X8XtXqXeX7X8XwX8X9XuX9X4X7XeXeXeXtX",
"9X8XiX7X3XeXeXeXeX8X9XtX9X9XyXeX7XyXwXwXwXwXeX9X7XL T OXOX|.).tX4XK |.|.|.).[.8X8XtXtXtXtXtX9XtXtXtX8X9XeXiXrXeX9X9X9X9XuX9X8XuX",
"iX9XeXeXeXtXeX0X8X1XwX0XtX8XyXiXyX8XwXtXwX7XwXwXwX(.= Z Y K L 0X7X% Z C m m  X9X4X8X8XeX9X0X9XtXtX7XqX7X4XuX9X9XeX9X9X8XeX4X%XiX",
"&XuXqXOXrX9X7X9XtX0XtX2XtXqXtXyXpXtXtXyXwX0XtXqX0XK T.;X,X-X:X8XeX& ,X!.!.T.Y tXiX3X8X1X9X8XyXuXtXqXyXqXeXtXuXtXuX9X9X8XiXuX4XiX",
"0XuX7X7XuX4X9XtXeXtXtX1X1X7X=XaX0X0XrX0X8XwXyXtXtXF i.Q.I.Y.<X7XuXp ~.Q.W.R.(.rXrX9X8X4XrXqX8X7XqX7XyX7X0X9X7X4X8X9XeXeXwX9XiXuX",
"9XuX7XqXwX0X9X9XtXiXiX2XwX1X7X7XwXuXuXtXwX8X8XwXwX<XK % % = 2X7XuX&X= % % K 8X9X7X8X8XeXrX0X9XiXiX0X0XtX9X0X7X7X9X9XeXrX8X7X8X4X"
};
