/* XPM */
static char *result[] = {
/* columns rows colors chars-per-pixel */
"64 64 249 2 ",
"   c #040404",
".  c #080707",
"X  c #0D0A05",
"o  c #0A0A0A",
"O  c #180A07",
"+  c #19140B",
"@  c #0F1213",
"#  c #141414",
"$  c #1A1818",
"%  c #2D110B",
"&  c #251A15",
"*  c #351A19",
"=  c #1A221F",
"-  c #29230D",
";  c #352C0D",
":  c #262217",
">  c #393419",
",  c #181D22",
"<  c #111D38",
"1  c #1B2529",
"2  c #19303A",
"3  c #282929",
"4  c #342829",
"5  c #383629",
"6  c #2C323A",
"7  c #383737",
"8  c #52110E",
"9  c #6D1813",
"0  c #7A1A16",
"q  c #49330D",
"w  c #742C16",
"e  c #44372C",
"r  c #6B3127",
"t  c #4B4315",
"y  c #574D11",
"u  c #564A18",
"i  c #6E5712",
"p  c #776A12",
"a  c #766718",
"s  c #514A2E",
"d  c #5A5526",
"f  c #484436",
"g  c #585134",
"h  c #6C5A2B",
"j  c #73682C",
"k  c #676639",
"l  c #7B7536",
"z  c #0C1F44",
"x  c #11274D",
"c  c #293A4B",
"v  c #0D2967",
"b  c #394449",
"n  c #3B4A57",
"m  c #3F515B",
"M  c #464845",
"N  c #4B4B49",
"B  c #4D504C",
"V  c #47555B",
"C  c #575756",
"Z  c #64554E",
"A  c #65684A",
"S  c #6A685C",
"D  c #776D50",
"F  c #4B5D6B",
"G  c #585561",
"H  c #665862",
"J  c #506671",
"K  c #566A78",
"L  c #6A6969",
"P  c #6E726E",
"I  c #797979",
"U  c #851416",
"Y  c #991013",
"T  c #AA1B1B",
"R  c #B23418",
"E  c #931B20",
"W  c #933220",
"Q  c #B23426",
"!  c #C91719",
"~  c #D71A1C",
"^  c #D42B19",
"/  c #CD3519",
"(  c #D83718",
")  c #E5320F",
"_  c #E32E15",
"`  c #E43312",
"'  c #E2381C",
"]  c #CF1C22",
"[  c #C62F26",
"{  c #93421A",
"}  c #BA4817",
"|  c #87720E",
" . c #957B1A",
".. c #945233",
"X. c #AE4D2D",
"o. c #8E742E",
"O. c #947B2A",
"+. c #B37130",
"@. c #DE621A",
"#. c #C7462E",
"$. c #D27A36",
"%. c #A3524B",
"&. c #847B5A",
"*. c #947B52",
"=. c #877A6C",
"-. c #B47468",
";. c #C56748",
":. c #C67D6E",
">. c #978519",
",. c #AB910F",
"<. c #A9961A",
"1. c #B69818",
"2. c #B9A418",
"3. c #97862D",
"4. c #998728",
"5. c #A38829",
"6. c #AD9232",
"7. c #ABA72C",
"8. c #B6A628",
"9. c #BAA836",
"0. c #C9AC13",
"q. c #CAB31A",
"w. c #D4BD18",
"e. c #D78D2F",
"r. c #E29825",
"t. c #CAB62C",
"y. c #CCB534",
"u. c #DAC41A",
"i. c #E1C50F",
"p. c #F5DD0F",
"a. c #FBDD0E",
"s. c #E3C919",
"d. c #ECD41A",
"f. c #F5DB14",
"g. c #FBDE12",
"h. c #F2D518",
"j. c #F5DB1B",
"k. c #FADE19",
"l. c #F8E00D",
"z. c #FCE012",
"x. c #F8E11B",
"c. c #D9C425",
"v. c #DBC634",
"b. c #E8CD26",
"n. c #E9D22F",
"m. c #F4DA27",
"M. c #ECD638",
"N. c #F3DA36",
"B. c #F6E02B",
"V. c #968A4F",
"C. c #B2954A",
"Z. c #B3A84A",
"A. c #8E866D",
"S. c #AA936D",
"D. c #B3A771",
"F. c #C98C5A",
"G. c #CAB74E",
"H. c #E4B74D",
"J. c #C8B57E",
"K. c #DAC54C",
"L. c #E2CB47",
"P. c #E6D347",
"I. c #E0C950",
"U. c #DED87C",
"Y. c #EEDB69",
"T. c #5A7587",
"R. c #59738A",
"E. c #647987",
"W. c #657F94",
"Q. c #5B8199",
"!. c #6A869A",
"~. c #778895",
"^. c #6D8EA6",
"/. c #6B92AC",
"(. c #7292AA",
"). c #7794A9",
"_. c #7A9BB3",
"`. c #799CB6",
"'. c #7CA1B9",
"]. c #73A6C7",
"[. c #79A7C7",
"{. c #78ABCD",
"}. c #7CABCC",
"|. c #898A87",
" X c #999285",
".X c #959595",
"XX c #A39985",
"oX c #B6AB90",
"OX c #B9B39C",
"+X c #859BB2",
"@X c #94A4AA",
"#X c #82A3BB",
"$X c #A6A5A5",
"%X c #B0ACAC",
"&X c #B7B2A7",
"*X c #B6B6B6",
"=X c #CAB887",
"-X c #C9BC96",
";X c #CABAB2",
":X c #E0B2AB",
">X c #D6C387",
",X c #D5D08B",
"<X c #D5C897",
"1X c #E2CB98",
"2X c #ECD395",
"3X c #F7DA96",
"4X c #FBE49D",
"5X c #D2CEB6",
"6X c #EDDDAF",
"7X c #FCE3A3",
"8X c #F9E4A9",
"9X c #F4F5AA",
"0X c #F7E5B6",
"qX c #84A8C2",
"wX c #83AECD",
"eX c #89AECB",
"rX c #85B1CF",
"tX c #8AB1CE",
"yX c #92B5CE",
"uX c #82AED0",
"iX c #86B2D1",
"pX c #8CB5D3",
"aX c #8EB8D6",
"sX c #8BB6D8",
"dX c #8EB9D8",
"fX c #91B6D3",
"gX c #93B9D6",
"hX c #99BCD6",
"jX c #94BBD9",
"kX c #99BEDA",
"lX c #97C0DE",
"zX c #9CC1DC",
"xX c #A1C2DD",
"cX c #A0C5E0",
"vX c #C8C8C7",
"bX c #D4CECA",
"nX c #DADAD9",
"mX c #E6D4CA",
"MX c #E8DBD9",
"NX c #E8E4CA",
"BX c #F0E9CF",
"VX c #E5E5E4",
"CX c #EBE8E5",
"ZX c #EDECEC",
"AX c #F2EBE9",
"SX c #FCF8E9",
"DX c #F5F4F3",
"FX c #F9F9F6",
"GX c #FDFDFD",
/* pixels */
"hXjXsXjXjXaXjXgXtXgXaXkXkXgXrXwXhXgXiXgX}.zXrXiXjXaXaXaXjXlXzXgXiXaXxXrXpXdXlXaXaXhXhXzXjXrXjXzXrXgXaXfXaXyXdXiXdXaXpXtXgXfXaXgX",
"jXaXsXkXjXsXgXiX].iXgXfXeXaXjXjXpX}.iXgXfXlXgXaX}.aXkXgXaXdXiXwXgXaXiXaXlXgXaXaXaXfXfXaXzXxXzXpXtXgXgXaXfXlXlXzXgXgXrXaXjXpXaXaX",
"gXpXiXjXiXpXiXsXaXkX].}.pXpXiXtXhXrXhXzXzXlXfXyXiXgXjXgX[.yXqX`.#X'.yXpXpXlXgXlXaXrXtXaXtXlX{.gXgXjXaXaXrXaXdXdXlXaXgXzXgXfXiXjX",
"kXgXgXgXwXpXgXjXkXjXsXaXkXfXeXxXjXjXtXrXfXiXfXtX_.(.(.).@X|.A d ; q K yXfXgXrXrXyXzXjXdXsXpXpXpXjXjXrXiXfXfXlXpXaXgXgXiXaXfXjXjX",
"kXjXfXgXeXiXaXaXjXkXgXpXfXkXhXfXrXlXpXtXeX/.!.P g t y i 4.y.N.N.m.d.j ).gXgXpXyXjXfXhXlXgXsXaXaXjXaXaXaXpXgXgXpXjXlXaXtXeXgXjXgX",
"hXpXkXgXpXgXpXiXjXgXpXiXgXzXwXyXyXgXrXQ.J s u p t.m.x.k.l.l.a.g.g.x.c.s ).fXdXgXaXfXfXyXpXjXgXpXjXiXpXgXrXjXdXpXgXlXgXfXtXgXkXfX",
"aXgXhXhXpXjXgXdXkXjXpXgXsXjX].gXzXE.K t p 2.m.x.f.z.g.a.l.g.g.a.g.l.f.8.B #XdXpXpXjXrXaXkXjXaXyXkXpXzXfXaXaXrXpXiXjXlXhXhXhXfXpX",
"wXaXjXgXyXhXgXgXgXjXgXaXaXgXeXyXK > p u.x.l.g.a.g.a.g.g.z.g.g.z.z.g.l.i.3.Q.dXpXfXhXiXgXrXgXtXhXzXpXhXaXfXpXrXpXaXzXaXtXhXpXpXjX",
"kXeXgXaXaXjXjXgXaXiXgXsXjXjX!.V l 2.m.g.g.g.g.g.g.g.g.g.g.g.f.g.g.z.a.g.t.k Q.yXzXfXgXlXwXfXyXhXkXgXfXlXkXdXdXjXgXgXaX}.fXiXaXiX",
"iXfXrXaXaXkXiXpXjXaXsXjXjXK 5 >.m.g.z.g.z.g.g.z.g.g.a.g.g.a.z.z.z.z.a.g.j.<.b #XyXaXaXrXiXjXgXhXgXpXdXfX[.fXkXxXaXrXrXrXgXgXjXiX",
"iXjXiX}.pXjXtXiXjXpXgXkXF d ,.x.g.g.z.l.g.g.g.g.g.g.g.g.g.g.z.k.z.z.g.z.z.u.l K jXfXiXrXpXgXgXiXfXpXjXpXuXsXjXdXiXaXgXlXaXrXfXtX",
"gXjXiXrXgXaXiXpXaXpXgXiX7 2.g.z.g.g.g.f.g.g.g.a.g.z.g.g.g.g.l.z.z.z.z.z.l.z.t.B Q.aXaXgXaXiXsXiXkXgXjXsXfXpXjXdXlXlXaXyXpXrXjXgX",
"gXgXfXgXjXaXrXgXgXgXiXiX7 c.x.l.g.g.g.g.f.g.g.g.g.z.g.g.l.a.g.l.x.B.N.M.M.M.P.>.N '.aXjXiXrXgXiXzXpXpXuXdXkXjXkXjXfXpXgXtXgXjXzX",
"gXgXfXgXzXjXtXjXaXfXgXrXK K.z.z.g.z.g.g.a.a.g.f.z.g.z.k.m.P.a q D OX5XNX5XOXA : @ E.jXrXiXgXjXiXdXtXfXpXjXjXdXsXsX}.pXgXhXaXjXiX",
"uXpXgXgXzXzXgXiXaXgXhXjXtXl h.z.z.g.z.l.z.g.g.a.k.N.3.g OXCXCXCXZXFXGXGXGXDXZXVX$X7 !.dXgXlXgX}.hXqXV $ * , # # # # , W.gXsXgXpX",
"rXkXjXgXhXgXjXiXrXgXiXrXrX3 b.g.g.g.z.f.g.g.j.t.h OXFXFXGXGXGXGXGXGXDXvX|.P M M .XB K gXzXiXE.# # > +.;.$.$.$.$.$.;...% @ _.iXgX",
"wXfXrXxXfXtXtXtXrXpXgXgXfX6 v.z.z.z.l.x.m.9.A.ZXGXGXGXGXGXGXGXGXGXFXGXFXDXFXFXFXDXP o J 4 +  .y.H.+.q q i  .5.O.u 8 q X.%.% `.pX",
"fXkXfXhXhXgXgXgXfXzXlXlXzX_.Z.x.z.m.b.G.P SXGXGXGXGXGXGXGXGXGXFXAXAXmX=.r 9 8 8 % & + q 9.H.a q y.n.k.k.a.g.g.g.g.f.N.| q * 6 fX",
"kXgXhXgXgXtXpXfXtXrXrXrXlXlX; n.b.K.I FXFXGXFXVXVXFXGXGXFXMXMX-.0 [ ^ ^ ( ( / R w j y.3.y y.m.j.a.a.g.g.a.g.g.g.p.g.z.x.I.& 3 yX",
"zXgXgXfXpXgXgXhXzXlXfXlXfXyX= ,XP FXFXFXnXnXnX|..XVXVXmX:XW ( _ ` _ _ _ / #...O.G.o.| w.h.h.k.m.i.w.w.i.f.g.g.g.z.l.g.g.w.> #XfX",
"aXgXjXpXgXjXjXhXlXrXfXfXrX}.b nXGXDXvX*X.XI ZXGXMXmX-.Q / ` ) ` ) ) / } X.3.G.5.O.c.g.h.d.q.t.P.,.| | ,.i.a.g.g.z.g.g.w.u P pXgX",
"gXjXgXsXjXlXjXfXtXpXlXtX}.lX'. X*XvX=..XGXGXMX;X-.} _ ) ) ) ) ` ( } +.6.9.9.>.b.k.f.b.1.6.a | M.h.a.g.g.a.a.g.g.z.k.q.d J yXdXiX",
"hXtXgXjXpXsXgXgXtXpXlXpXlXlXlX= E.*XGXGXCX;X:.Q ( ` ` ) ) ` ( R $.5.6.G.>.m.f.f.d.1.O.a <.d.g.l.a.g.g.a.a.a.g.g.k.8.k E.qXiXdXiX",
"gXpXsXjXiXpXgXgXpXlXyXrXlXpXzX# FXGXDXbX:.X.' ` ` ) ) ` / R $.+.5.v. .b.f.f.j.8.a - s v.x.g.z.a.a.a.g.g.g.a.k.w.>.A ^.aXaXaXiXaX",
"kXgXtXgX}.iXgXpXgXjXpXgXlX}.lXK *XDX-.;./ ` ' ) ( ( / } $.O.5.I.>.m.x.f.f.t.a >     : i <.d.l.a.l.l.z.z.z.d.1.k F ).aXjXfXaXrXfX",
"gXpXfXgXaXgXgXpXpXaXfXzXlXiXtX).4 P 8 9 U W X.+.e.r.r.0.b.n.0.m.g.l.z.c.p q X           - i t.a.z.l.x.d.8.i B ~.qXiXaXhXjXfXfXtX",
"fXgXfXhXgXjXfXfXiX'.J V M A D.D.5.<.1.1.1.2.0.u.d.h.g.a.a.g.a.p.a.h.>.q . e A           k o.3.p N.n.>.y f T._.jXgXjXgXpXgXjXaXiX",
"sXsXfXgXkXhX_.F b A 6.8.2.q.i.j.m.k.k.j.g.g.g.a.a.a.a.a.a.a.a.f.v.=X&XX   g oX3         > 7.j + t q 5 !./.iXjXjXaXgXaXpXjXgXeXaX",
"gXpXlXtX!.7 j 7.q.u.h.k.g.z.g.g.g.g.a.g.a.g.g.a.a.a.a.a.a.g.M.t BXZXnX.   g 2X=.:         - : $ Q.(.(.rXjXjXlXgXsXkXhXsXaXgXpXtX",
"dXtX'.6 l c.s.f.f.p.g.g.g.f.g.g.g.a.g.g.a.g.a.a.a.a.a.g.m.i 5 bXGXDXnX. # &.7XV.D f         ^.qXhXgXiXfXkXjXjXsXsXgX}.pXaXsXgXjX",
"gXqXP K.d.x.l.a.z.g.a.l.z.l.a.a.g.a.g.g.g.g.a.a.a.g.m.a - o bXGXGXGXVXN e 1X3XS.S.=.#       `.jXaXkXgXjXsX}.pXkXhXkXpXpXjXjXfXhX",
"sXqX, q m.l.g.z.z.g.g.f.g.f.z.a.a.g.g.a.a.a.g.m.y.e O . . e ZXGX$XP DX%Xe 7X3XJ.oXmXN   ^., 6 fXkXjXhXkXpX}.gXgXrXaXtXuXjXhXhXkX",
"gXgX_.& >.l.a.z.g.g.g.g.g.a.a.a.g.h.g.h.d.9.u           @ 5XN C ZXVXP *Xg 4X7XD.&.;XM   ^.gX3 eXkXzXkXfXuXgXgXiXaXgXpXgXgXgXtXgX",
"jXpXgX^.t v.z.z.g.g.g.f.p.h.s.N.L.9.h O o $ $ @   + o   S.0X5XMX6 nXFXnX-X4X7X=XL *XC   W.aXT.gXkXgXgXhXkXkXgXiXwXpXhXjXhX].aXsX",
"jXfXjXeXF u b.l.g.h.w.n.y.p i M.L.P.Z.& Z 0X<XC # |.C + OX9XBX$ o N GXSX0X7X0XOX7 I B 1 ^.jXjXjXgXiXkXjXpXiXsXtXwXiXgXkXjXjXhXwX",
"kXgXdXgX_.3 a s.w.t.| O.M.j.g.a.k.0.> 4 <X>XD.0XP A.A.f <X8XNXM 7 %XGXSX7X7X0XMX.XM n (./.gXjXsXgXsXjXdXpXiXgXpXaXjXjXhXjXjXjXuX",
"cXpXsXjXjX^.N g t t.m.k.l.z.a.a.g.u.l $ S.6X6X6X=.XX0XoX2X7XOXnXZXGXGXBX7X7X1X5X*XC !.dX_.gXsXzXiXaXgXaXpXpXpXpXgXlXgXtXaXjXiXiX",
"kXeXeXaXkXjX!.b A V.<.,.,.2.w.u.2.u     f 1X2X1XS.<X0X1X3XoXI *XZX;XNX0X7X3X3XoX7 b `.jXkXjXwXcXwXgXiXsXiXaXaXgXjXjXjXfXgX}.iXdX",
"pXeXsXjXaXsXjXjXeXT.n n V B s d :       $ D =X,XJ.6X8X7XJ.=.VXVX$X|.5XNX=X=X8X0XD R.}.aXjXsXuXjXiXjXiXpXfXgXjXaXgXjXjXjXjXwX}.jX",
"tXpXjXgXiXiXsXgXjXsX}.sXgX_.3 .     .       f D &.A.&.*.&.%XZXVX@XDXbX$X|.OXMX-Xf K eXjXjXsXrXkXaXjXaXgXgXiXjXjXaXdXgXhXgXpXaXgX",
"aXkXjXaXaXfXwXpXjXsXaXgXgXK # o o . o . . . . . . . % 9 %.r &XbX.XZXnX%XbXVX*X7 c _.fXgXkXgXpXcXgXpXiXjXaXgXaXgXaXaXgXfXiXgXpXiX",
"pXkXtXjXgXgXpXaXkXjXiXgXQ.$ o o @ # o . . o . o o . 8 Q ] E %.H & L I L L L E.R._.gXgXhXkXaXaXhXhXpXgXgXiXiXgXgXiXgXjXfXeXpXaXgX",
"gXdXiXgXiXpXgXfXhXjXaXhXF n R.R.W.R.o   . .   .   . % E T U 0 ..5.V.3 !.W.W.`.pXjXgXfXhXkXhXjXpXhXhXgXhXiXiXgXpXgXaXwXrXeXaXpXgX",
"}.zXsXsXsXiXgXgXgXjXjXjXqX/.wXgXiXn . , n . o @ . o O 8 U 0 w H.F.F.e F kXhXsXsXxXkXhXgXjXgXsXgXhXaXfXzXgXzXaXiXgXaXiXrXiXgXiXsX",
"gXjXjXrXjXgXiXfXhXeXiXgXsXrX[.jXgX@ , ^.W.c !.K 3 o O 0 ! ] [ w Y.>X* H qXeXjXzXfXpXdXgXpXgXjXsXiXjXhXkXdXlXgXaXjXjXgXhXgXgXiXrX",
"jXiXgXjXjXgXfXtXpXrXaXiXiXpXpXsXtX@ `.gX[.(.iXrX#Xc * 9 0 ! ~ ] u 4XOX: N hXjXsXuXpXgXsXgXsXpXsXgXhXgXjXjXdXsXgXjXjXkXhXfXhX}.jX",
"eXiXsXjXsXuXpXgXjXjXkXzXhXsXuXlXwXqXgXaXfXrXgXaX}.n 0 E U ] ~ ~ Q 0X<X@ G dXfXfXsXgXkXlXjXrXkXpXjXuXjXzXjXsXjXjXsXjXgXfXkXpXkXxX",
"].}.pXjXzXjXjXgXjXjXjXwXjXdXgXcXgXjXaXiXgXzXaXgXR.& 8 E Y ! ~ ~ [ D.,X. 6 ).kXsXgXsXjXfXsXuXcXpXgXkXwXgXhXgXgXaX}.iXjXgXgXjXiXjX",
"jXpXgXlXkXzXgXiXrXaXsXpXtXrXlXhXzXzXiXiXgXzXlXiXV 8 U Y Y ! ~ ~ Q Z.U.- * N zXkXzXgXsXjXxXgXfXjXeXhXiXjX}.}.gXkXpXiXjXgXpXjXsXjX",
"pXuXjXsXiXiXiXpXaXaXaXsXjXpXfXhXgXjXwXsXaXaXiX!.3 O O % U T ~ ~ 0 P.U.g + H tXgXgXiXgXkXpXfXkXiXgXfXsXhXpXaXhXgXaXhXzXdXjXxXpXsX",
"jXaXjXwXfXgXaXjXjXgXgXkXgXzXgXjXuXkXfXkXzXaXiXJ & e &.=.9 ! ] ] | 0.O.k # 4 C gXgXzXxXgXpXfXkXgXfXgXpXjXjXgXfXfXtXgXkXuXgXgXkXaX",
"aXjXjXjXkXjXgXgXkXgXsXaXrXjXpXfXaXgXgXiXtXgXtXK &.8X7X0X&.%.#.W V.j h s O + J pXaXsXfXkXiXhXgXgXiXaXfXkXhXjXgXpXgXkXsXuXjXgXaXkX",
"iXhXhXjXhXjXfXiXiXaXaXaXsX}.[.hXaXpXrXkXrXiXpXW.P <X7X7X7X1XJ.j a a p u 5   m lXaXpXjXzXfXgXtXuXgXjXgXgXgXaXaXgXtXgXgXrXlXjXjXzX",
"pXhXgXjXkXhXhXiXgXgX}.iXaXtXpXkXgXhXiXjXgXaXjXjXE.D <X9X4X3Xo.Z.7.8.7.7.D @ F lXgXiXfXpXeXfXtXpXjXjXgXiXgXrXpXgXfXjXjXlXxXrX}.gX",
"iXgXjXkXfXjXgXjXgXiXiXpXdXaXgXaXhXjXaXaXaXjXjXaXF @ S.3X3X3XC.& : = 1 < < # J jXjXjXaXfXgXhXgXgXgXpXiXiXzXgXkXgXzXzXgXjXjXdX}.zX",
"iXgXjXjXwXjXjXpXpXpXpXsXdXjXgXiXjXgXgXpXpXgXpXiXF @ V.2X3X3XD.O c x v v z 3 !.aXdXaXrXtXhXgXhXhXaX].gXgXjXjXhXgXhXgXgXdXiXgXgXjX",
"pXdXpXdXrXjXjXiXpXgXsXpXjXgXtXgXzXjXpXtXpXpXiXsXF , k U.3XA.c z x z R.+XW.E.yXhXgXsXsXaXtXpXgXhXrXwXjXjXgXzXgXgXfXjXgXtXpXdXlXtX",
"pXpXaXjXpXaXsXrXpXgXrXtXgXfXeXpXgXjXhXfXhXpXwXgXQ.2 1 B P c x W.@X@XvXDXbX~.fXhXgXpXpXgXgXjXhXiXjXjXjXtXzXgXyXpXjXhXfXaXgXgXdXaX",
"dXlXzXrX].gXiXaXgXgXiXpXgXpXpXpX[.jXkXkXhXgXaXkX'.K 6 , 2 c , M L S L H H ).hXhXaXpXaXlXjXkXsXiXjXgXgXiXfXfXaXaXgXlXrXpXgXgXgXlX",
"dXpXlXiXrXgXgXaXgXpXgXjXaXsXkXgXsXkXfXgXyXaXgXaXlX].T.7  X&X&XI e { % 4 _.uXtXpXpXgXjXjXjXjXsXjXgXjXiXgXaXzXhXgXgXdXaXrXlXpXpXlX",
"zXgXgXgXjXjXgXsXiXeXgXsXjXpXkXzXlXpXpXhXfXrXaXaXlXlX!.5 D S.S .X% @.8 w 7 6 K fXtXiXpXgXgXiXtXlXjXiXdXiXrXlXaXaXlXaXaXaXgXtX].lX",
"{.lXdX/.hXpXiXjXjXsXgXrXjXjXjXjXxXjXkXgXfXaXgXgX}.}.).7 S.*.-X=.% @.w r.e.6.l E.zXiXpXtXaXfXlXlXjXdXlXgXdXlXlXjXgXdXpXtXzXzXtXzX",
"sXlX}.sXkXiXaXjXgXjXjXeXtXiX}.cXsXaXhXaXpXgXzXgXgXzXyXN *.o.*.& O 9 O.H.H.O.M +XhXaXfXtXjXjXpXrXjXiXjXiXpXpXpXrXaXaXgXgXaXyXlXzX",
"lXlXpXsXaXsXgXaXjXlXkXeXgX}.iXiXdXzXjXgXaXpXpXgXyXhXlXE.$ X   qXhX#X+X~.).+XeXpXiXiXtXgXlXsXsXzXzXaXsXjXdXpXpXpXpXpXjXgXdXiXpXrX"
};
