/* XPM */
static char *result[] = {
/* columns rows colors chars-per-pixel */
"64 64 179 2 ",
"   c #2D202C",
".  c #36312E",
"X  c #352633",
"o  c #382732",
"O  c #382C34",
"+  c #3B2C3C",
"@  c #3C3837",
"#  c #423136",
"$  c #443C35",
"%  c #42353C",
"&  c #443C3B",
"*  c #3E3542",
"=  c #433442",
"-  c #463B44",
";  c #473A49",
":  c #4B3E4B",
">  c #4A3F51",
",  c #4C4345",
"<  c #4F4A46",
"1  c #464248",
"2  c #4D434C",
"3  c #4E4A4C",
"4  c #514347",
"5  c #534A45",
"6  c #52454B",
"7  c #534A4C",
"8  c #5B4D4C",
"9  c #54504C",
"0  c #5B544C",
"q  c #4D4B52",
"w  c #544C52",
"e  c #594E54",
"r  c #5C4D59",
"t  c #555253",
"y  c #5C5454",
"u  c #5E5A54",
"i  c #57535B",
"p  c #5C545A",
"a  c #5D5B5C",
"s  c #60564D",
"d  c #625653",
"f  c #625A55",
"g  c #6B5E54",
"h  c #63555B",
"j  c #645C5C",
"k  c #6A5E5A",
"l  c #715F56",
"z  c #6B6157",
"x  c #66605D",
"c  c #6B635D",
"v  c #6C685F",
"b  c #72645A",
"n  c #75685F",
"m  c #594F60",
"M  c #5F5C62",
"N  c #645D61",
"B  c #685E62",
"V  c #666262",
"C  c #6B6463",
"Z  c #6D6A66",
"A  c #676268",
"S  c #6C6568",
"D  c #6E6A6B",
"F  c #726462",
"G  c #746B65",
"H  c #7B6E64",
"J  c #736D6B",
"K  c #796D6B",
"L  c #777065",
"P  c #7A7265",
"I  c #76716D",
"U  c #7A726D",
"Y  c #7F786F",
"T  c #776D72",
"R  c #796E71",
"E  c #777373",
"W  c #7C7472",
"Q  c #7E7975",
"!  c #7F7779",
"~  c #7D797B",
"^  c #867264",
"/  c #8E7B65",
"(  c #82766C",
")  c #847B6E",
"_  c #8B7D6D",
"`  c #927E68",
"'  c #807673",
"]  c #837C75",
"[  c #897D74",
"{  c #807778",
"}  c #837D7A",
"|  c #897E79",
" . c #87856C",
".. c #8E836C",
"X. c #94816B",
"o. c #99856D",
"O. c #868077",
"+. c #8B8275",
"@. c #86817B",
"#. c #8C847C",
"$. c #8E897E",
"%. c #928574",
"&. c #978B75",
"*. c #91867C",
"=. c #938A7D",
"-. c #9A8D7C",
";. c #95927F",
":. c #9C927E",
">. c #7D7780",
",. c #857D80",
"<. c #887F81",
"1. c #858182",
"2. c #8C8581",
"3. c #878882",
"4. c #8E8983",
"5. c #8F8789",
"6. c #8F8A89",
"7. c #918781",
"8. c #938C83",
"9. c #998E83",
"0. c #958E89",
"q. c #998F89",
"w. c #8F9181",
"e. c #969186",
"r. c #9A9286",
"t. c #9C9886",
"y. c #96918A",
"u. c #9A948B",
"i. c #979B8B",
"p. c #9D998D",
"a. c #959392",
"s. c #9B9691",
"d. c #979990",
"f. c #9D9A92",
"g. c #9E9D9B",
"h. c #A09587",
"j. c #A39A86",
"k. c #A1968B",
"l. c #A29A8D",
"z. c #AA9B8F",
"x. c #A19695",
"c. c #A29C93",
"v. c #A39E9A",
"b. c #9FA08F",
"n. c #A6A18D",
"m. c #ACA28E",
"M. c #A4A295",
"N. c #AAA494",
"B. c #A6A897",
"V. c #A5A39B",
"C. c #AAA49A",
"Z. c #A7A99E",
"A. c #ABA99D",
"S. c #B1A695",
"D. c #B0A999",
"F. c #BBAF9A",
"G. c #B0B09F",
"H. c #BBB29E",
"J. c #A5A4A2",
"K. c #A9A6A2",
"L. c #A7A8A1",
"P. c #ACAAA2",
"I. c #ACACAA",
"U. c #B1ACA3",
"Y. c #B0AFAC",
"T. c #B4B1A4",
"R. c #BBB9A7",
"E. c #B3B1AB",
"W. c #B8B7AB",
"Q. c #B6B8B1",
"!. c #BEBDB7",
"~. c #C1BAAA",
"^. c #C1BDB6",
"/. c #C3C3B5",
"(. c #C1C1BB",
"). c #C4C4C0",
"_. c #C8C7C2",
"`. c #CFD1CE",
"'. c #D9DDD4",
/* pixels */
"u.f.1.2.2.7.,.} } 2.2.,.} 1.<.} { } 2.2.5.3.2.a.a.a.g.M.O.V.c.c.s.c.y.v z.4.y.u.e.O.y.c.u.} y.p.0.f.s.q.0.y.0.i.s.0.u.y.u.f.u.y.",
"0.0.! } 1.} E ,.{ 2.{ ~ { ! R ,.E ! { 2.2.~ { s.u.y.C.i.i.f.d.c.t.c.u.0.p.I c.p.4.u.1.u.p.} 9.y.r.M.8.u.0.i.y.] q.y.y.u.#.d.e.~ ",
"0.0.W @.Q @.0.0.2.q.8.r.s.f.0.s.0.u.s.y.y.i.s.s.y.4.2.1.w } } @.1.| 7.7.2.1.2.} 4.2.2.W 2.2.2.2.#.y.2.2.4.8.e.f.0.y.0.4.<.7.1.} ",
"x.s.@.u.y.s.s.s.s.s.y.y.p.u.y.p.i.y.f.i.y.0.s.s.2.,.K J W J ~ I W R T W R S E K C T V { W W Q I } 4.} @.Z Q 4.y.] y.@.Q R R W { ",
"i : = ; - 2 w Q M t Z.T.W.y.G.i.M.8.s.B.e.V.s.2.0.2.0.W #.@.#.u.e.e.$.e.r.u.y.r.8.u.y.i.2.i.4.e.8.4.y.0.=.e.4.;.0.8.2.0.7.=.4.0.",
"y.0.@.y.u.f.i.y.s.c.f.p.u.g.a.i.u.s.s.6.c.s.p.u.u.f.p.y.4.y.y.f.i.p.8.t.e.r.u.u.y.d.c.u.u.#.e.8.e.8.u.7.=.p.@.e.y.w.e.8.u.e.e.e.",
"u.p.t.3.u.O.C j M = # % o X + * p = : > ; 2 q 1 : - , Z V a ;.L.e f.$.e.B.0.i.B.M.y.4.e.@.e.#.8.e.I i.7.O.$.@.4.2.0.8.4.y.+.e.c.",
"y.u.6.i.a.d.u.y.y.y.4.0.0.p.s.u.8.2.u.0.0.s.y.0.f.0.8.u.4.y.e.i.8.p.r.0.y.0.e.y.f.y.y.y.O.y.y.u.e.8.u.y.p.#.4.e.8.y.i.e.e.y.8.u.",
"i.s.f.u.5.0.0.i.s.0.s.l.y.C.v.i.8.8.b.4.e.w.y.4.8.} j 7 O +     o X % O @ q + = r 2 ; ; 2 * ; A A a 2 2 ~ t @ - w w t t 4 t 4 2 ",
"D F J S T T J Z T T 1.y.6.u.Q s.3.E i.u.Z.V.y.M.f.c.s.0.e.4.8.7.8.J 2.8.e.Z y.u.4.s.8.0.#.y.y.u.0.0.0.0.4.e.2.y.u.0.y.y.e.0.7.0.",
"2.5.2.0.8.0.e.s.y.0.a.s.0.0.4.0.4.8.0.} c.u.f.u.u.u.y.@.8.e.l.8.O.e.y.0.e.I f.i.$.i.e.e.n.e.y.t.$.#.p.0.i.8.e.=.p.e.e.e.e.=.t.0.",
"u.0.y.0.0.8.O.j e.y.i.i.4.s.u.0.f.f.8.#.] } W J K ! ~ } 2.E E Q ~ @.f.] f.y.W 8.i.C.u.g.i.f.$.c.l.d.p.@.i.4.8.8.e.e.0.7.#.8.i.y.",
"s.y.0.y.y.8.4.4.q.y.p.0.#.i.c.s.g.f.p.2.7.8.2.@.2.} 2.8.8.2.#.I #.8.8.0.a.y.0.u.#.y.s.8.g.e.e.p.7.e.7.8.0.] 8.2.q.0.y.8.$.#.0.e.",
"q.W E Z.V.C.K.e.f.p.c.0.u.4.y.8.+.8.8.y.0.0.0.4.u.@.8.8.4.y.y.#.@.8.$.0.@.W W @.I W ] W W Y ! ' } Q W @.W } 0.} +.W } } @.2.I 2.",
"| u.p.q.8.2.0.y.u.y.u.y.x.y.0.p.Q u.y.#.k.e.i.f.f.7.y.y.8.e.e.0.s.d.7.} } J 1.7.W $.] ' 1.| +.1.| #.@.8.+.} u.@.8.} O.2.7.8.2.0.",
"' y.] y.r.y.k W y 4 & 2 e w t 6 D B u I t y ] Q I M.M.f.g.M.8.u.p.;.e.8.8.7.e.u.y.8.y.r.y.8.y.c.8.l.p.4.8.0.~ 4.8.p.y.#.y.8.8.y.",
"f.0.f.0.0.#.q.0.f.f.u.@.s.s.s.y.u.C $.e.i.y.p.8.8.$.0.u.0.L.e.+.p.0.p.u.r.y.u.p.c.u.0.7.u.4.p.p.y.u.f.=.y.r.4.p.0.r.y.7.y.4.r.u.",
"0.u.u.f.p.s.u.u.u.y.u.y.0.s.8.y.f.+.l.e.t.l.f.] x C j 2 6 4.6 i 6 , , S e i } t E f $.C 3.I j U u.@.T.e.u.8.$.p.B.8.8.k.M.r.7.p.",
"4 3 w N N N V t p N p p 1.x 3.y.4.s.M.f.p.e.7.e.#.8.7.@.#.2.7.$.8.+.e.r.$.7.7.8.4.y.r.8.0.8.8.4.f.7.8.$.8.8.y.q.r.y.u.p.0.8.y.u.",
"2.0.u.q.y.q.u.s.} u.0.8.7.#.y.p.$.q.e.y.u.4.e.u.7.u.2.*.Q y.G e.8.p.p.p.p.$.y.i.C.p.G i.8.] $.@.4 5 8 Z % w 6 6 4 t R 4 5 h e y ",
"4.0.e.y.0.y.y.p.i.0.y.p., c.y.P 0.0.G 8 u e e j u E j Z Z p.V e.V U k.$.#.y.8.0.e.0.e.=.8.$.$.#.=.0.0.=.y.+.y.q.e.0.y.0.u.y.0.u.",
"p.y.y.4.7.s.p.s.u.e.0.k.y.c.y.8.r.u.y.$.8.u.0.y.W 0.7.y.y.8.7.@.y.q.=.8.c 1.i.q.u.#.p.8.0.e.0.r.8.t.p.4.4.6.y.4.u.u.0.i.N.c.c.l.",
"0.a.2.s.J V.s.c.u.g.C.d.$.y.$.t.y.4.$.#.8.r.7.y.8.2.8.0.] e.0.y.#.4.8.+.H j G V c ! W V j V x Z Z S J s.Z I $.d.g.4.d.y.s.f.e.e.",
"0.8.y.2.r.7.s.s.y.u.u.=.u.#.8.4.8.8.7.@.4.4.7.y.$.y.7.8.0.8.8.4.G $.8.$.y.8.8.4.8.*.$.#.e.@.y.u.e.p.c.y.u.u.e.e.+.#.7.8.7.r.y.e.",
"s.u.u.0.i.8.0.f.c.p.8.G G P Z C j f k W Z Z x C C V V @.Z D Z } d.f.C.7.e.8.e.2.8.s.W $.8.#.y.p.=.=.q.8.p.p.u.y.e.4.+.) t.p.4.8.",
"3 3 2 i E a.i _.'.).A.d.L.V.p.$.u.y.] u 8.] 4.+.0.+.e.8.y.8.] =.@.$.=.e.e.#.8.8.+.8.#.#.4.] y.8.0.u.k.p.u.t.e.l.8.u.e.8.8.8.u.r.",
"7.0.0.y.0.7.u.8.] r.e.c.4.y.8.8.#.0.8.4.e.8.4.8.y.7.4.4.O.4.y.y.V.8.0.y.k.+.O.a x f f z f Z S C S O.J P.J Z.U.U.P.4.c.u.u.f.c.7.",
"$.e.0.u.M.0.y.u.c.l.c.y.g.p.G 7 $ & @ . 3 9 t 3 7 y t a M 3.x 9 a I.y.M.^.T./.B.=.] 2.' 7.+.7.#.$.p.y.+.0.p.u.7.u.y.u.y.y.0.u.e.",
"W W W Y W ] f.f.s.y.C.V.K y.e.=.4.4.$.8.8.Y 8.y.8.0.8.=.0.#.k.8.Q q.e.r.0.u.r.u.q.e.r.c.y.y.p.e.$.u.q.u.y.g.e.M.l.k.u.e.] G G G ",
"#.} 2.@.3.2.y.f.u.f.f.s.t p.0.e.8.y.r.e.#.8.8.u.8.r.e.C.t.=.c.c.t.8.M.O.U P 9 & , u < t u u j a y ~ N V g.L.K.W.Z.C.u.4.N.$.7.$.",
"3.u.y.q.8.0.r.r.K.y.u.u.+.} $.} ] ] U Q U U ] Q ] ] U Q Q O.y.s.v.e.8.8.u.4.=.8.y.y.7.p.0.=.0.8.r.y.y.y.8.8.y.u.u.r.u.$.0.8.e.u.",
"y.1.y.8.7.0.e.8.u.8.u.y.+.+.7.+.+.] ] O.Y O.Q ] ] ] Q Q W } +.0.u.8.0.r.r.y.=.@.8.e.0.y.[ y.r.0.7.r.) z V.5 5 u 9 0 0 & d 0 f D ",
"j ~ j 1.E t i D J 2.V.V.Y.U.c.u.r.M.2.C.#.Q 8.=.r.e.8.u.u.u.u.e.=.0.=.@.q.e.r.] ] ] Y ) Q #.@.$.Q 4.8.y.y.u.V.u.r.u.r.7.r.7.u.e.",
"y.7.0.0.8.y.r.q.@.y.O.q.q.y.r.p.y.8.e.u.r.8.r.u.e.y.e.u.u.u.e.8.8.0.p.0.0.r.u.G Y ] ) U ] @.@.#.@.4.2.g.u.s.y.q.r.8.0.0.] t.p.y.",
"c.y.e.l.v.v.q.s.u.+.c.l.-.0 z v 5 < 0 9 < 7 9 t 7 t +.j a d.~ C 7 0.+.2.r.u.k.N.+.7.0.+.=.@.e.e.@.r.p.y.q.8.y.;.+.+.+.$.2.8.8.u.",
"@.4.c.0.W 8.c.y.z.y.t.$.=.Q =.#.p.+.0.=.0.r.#.0.O.8.8.u.0.r.e.7.4.$.$.8.+.e.$.8.r.8.t.e.e.+.p.8.c.u.k.r.u.t.l.e.U U I ' ] @.O.#.",
"y.y.q.8.} p.8.W 0.r.e.q.0.$.8.0.0.7.u.7.8.8.0.7.u.$.r.0.O.t.c.t.f.=.y.g t $ & 5 a t ~ A t T a.J.W @.t.U.r.t.e.+.0.0.7.r.y.u.r.8.",
"k.u.t.q.p.0.u.h.N.l.:.8.+.U Y j G u c u f x I W C Q A C 0.Z I J V.s.P.v.f.Y.G 0.e.r.=.8.] ] 8.*.7.$.c.$.7.8.0.e.2.8.=.2.*.p.0.$.",
"2.2.@.8.$.$.O.[ 8.7.2.e.! $.#.#.7.2.@.1.s.@.2.+.7.@.+.#.$.r.8.#.O.G 2.P +.] 8.i.8.=.#.O.#.#.] $.$.7.J 4.+.y.e.e.e.e.z.O.s 0 d h ",
"J W W K J J I E y Z Z C @.4.J 2.V.Q.D.0.f.M.M.f.f.8.+.4.+.#.#.#.+.#.#.s.$.$.*.} #.=.=.] +.=.3.P ] j W W J F s.V.V.P.c.A.8.+.=.7.",
"] J *.=.[ =.+.*.8.#.+.=.0.*.=.8.8.=.$.8.+.8.e.0.8.$.7.*.0.8.] r.4.8.8.8.=.#.0.9.=.4.7.t.t.0.8.0.e.u.c.8.q.y.k.u.8.u.t.y.0.e.8.0.",
"7.y.7.] =.$.7.7.$.7.=.e.0.*.=.7.s.0.7.=.8.r.r.8.e.e.y.8.*.#.Y U C s g f Z W C D C Q 6.} A.C.c.8.9.r.7.$.+.$.4.8.=.r.p.y.r.=.G H ",
"@.p.t.0.r.] ] Y , & 3 & 4 - , - Q N i i t q 3 i D a.`.(.!./.Z.e.+.V.#.V.T.7.$.=.] +.0.#.$.g.=.$.#.8.=.0.+.0.2.7.u.s.0.0.y.7.$.7.",
"8.y.f.f.6.C.P.M.7.8.] y.v.l.8.p.8.] [ *.4.=.8.*.=.#.=.7.8.#.#.] 7.+.$.#.2.+.+.*.8.8.=.8.8.8.$.=.$.7.7.+.L d f V y.s.V.E.Z.f.8.c.",
"2.0.u.s.f.y.u.y.7.8.8.r.+.p.2.$.O.4.+.7.7.=.y.] | *.7.O.0.q.$.8.8.f =.e.k.;.u 0 5 v f y h 6 y 7 f j 0.P.$.M.8.+.#.7.7.#.r.y.=.=.",
"$.7.*.+.P $.7.9.=.=.4.=.J 8.) 7.0.+.$.] 2.I K P ' ] K W ] Q ] 8.5.s.} y.y.#.4.y.t.=.8.0.7.+.8.7.7.e.7.8.0.7.0.=.0.q.8.q.7.e.8.8.",
"0.+.8.8.$.0.$.8.C.8.=.e.y.0.@.4.4.#.$.+.$.] Q ] ] ' W J @.+.] $.7.y.] 8.u.4.0.r.k.7.$.u.8.4.*.8.$.u.e.8.u.r.0.k 5 e y t j Q E.J ",
"7.c f k y j V c g.A s.,.j V ~ L.W.@.E.a.v.P.E.C.v.t.s.8.q.#.*.9.c.p.*.*.+.4.+.+.*.*.7.*.8.[ ] ] Y W ] i.] @.| u.y.u.K 0.7.q.e.e.",
"K.V.8.y.=.9.*.$.c.*.+.=.8.0.+.0.] 7.8.8.8.8.7.8.r.=.#.+.q.-.*.8.9.$.7.q.*.#.7.0.0.u.q.8.8.*.] ] } ] } s.+.2.7.u.u.l.8.r.8.#.t.8.",
"0.u.q.q.q.q.r.0.V.r.9.y.*.7.9.q.p.8.=.e.9.8.r.0.e.r.t.u.l.c.t.e.P F z k j y y u u } V v.f.@.A.C.l.u.r.=.q.q.=.0.r.8.8.=.#.=.@.+.",
"r.u.r.r.q.8.h.8.r.r.j.] c ] g k k F j S J J C V N D @.1.K.v.K $.8.I k.8.u.k.8.#.*.*.8.*.0.8.D.0.y.9.y.9.y.y.r.u.y.9.r.} ] +.' ] ",
"2.*.| *.8.7.#.8.8.e.7.u.u.t.u.u.u.8.=.8.9.*.=.7.8.8.7.q.$.7.k.q.8.k.0.*.8.8.] =.*.8.=.r.] =.c.t.t.9.$.+.g 8 a p S g.E.g.V.+.*.*.",
"] [ ( [ ' W ' @.q.] } x.s.u.U.c.u.@.8.*.8.r.8.+.7.] 8.u.9.*.7.q.r.9.7.=.t.j.=.+.G k C C C F B S S ' u.C.#.=.y.r.-.u.u.s.p.p.#.q.",
"N.c.l.=.9.K #.9.$.*.*.8.0.f *.q.r.q.q.9.=.y.=.9.q.8.8.+.*.*.q.u.=.8.7.8.=.q.y.q.} k.q.q.*.=.q.0.0.r.y.t.k.k.9.=.q.c.u.z.z.$.q.l ",
"q.+.k.8.u.#.u.h.u.8.u.8.s.( q.u.u.k.q.u.t.r.u.k.k.l.t.Y J R K 5.! s.C.y.2.l.r.u.z.c.h.=.=.9.u.r.r.r.u.l.l.z.] [ H K #.J <.M.c.z.",
"j.[ N.-.&.H n g j R T i r m p p i 2 >.1.a.L.V.^.K.K.M.s.~.C.^ g e | u.*.h.8.k.y.K.u.r.=.=.9.q.k.u.9.u.r.8.t.u.u.u.q.u.K.k.r.0.u.",
"| ' #.| ' s.u.A.C.z.+.#.-.8.C.8.*.7.7.9.9.=.8.0.$.=.r.q.=.9.8.8.] q.q.k.u.y.r.p.c.t.k.p.-.r.P R ] R 0.8.p.v.u.g.9.9.q.9.r.r.| *.",
"q.q.k.8.q.9.0.q.r.c.0.*.9.r.0.9.8.q.q.8.8.8.f.z.=.:.r.j.r.h.l.( d p d 6 r r w g.J y.M.A.D.M.8.k.q.9.*.9.k.u.k.h.r.q.q.7.r.k.h.k.",
"8.7.k.9.q.9.k.l.k.u.t.t.r.-.9.| [ ( ' ( ^ J U ' u.W ' K [ u.c.k.q.k.8.9.9.9.s.9.9.q.q.h.9.t.l.u.q.u.r.k.u.-.k.%.H H K q.U.N.k.h.",
"=.h.c.S.r.k.l.q.9.l.h.z.q.9.q.8.9.x.-.9.q.=.*.8.r.q.8.*.*.u.k.C.q.k.r.8.q.q.9.x.r.z.q.9.j.:.k.U r D T { Q.v.^.[ U.z.9.%.h.r.h.l.",
"^ F k ' F c B C b K x.U 9.u W r.R.T.~.T.H.+.h.+.[ %.] 9.q.9.r.9.9.h.r.c.:.j.r.&.) ^ ] 0.' ' ' 7.7.8.8.z.k.9.=.h.9._ k.h.=.-.9.h.",
"F #.T.F.S.m.:.X.%.*.9.[ [ [ +.8.*.| q.q.-.+.*.0.9.*.*.%.%.r.h.g -.9.r.9.-.=.+.*.+.[ | #.[ x.| *.%.*.9.9.h.*.-.-.%.h.h.-.h.l d 8 ",
"*.9.-.=.=.9.%.9.9.8.-.*.*.*.q.9.+.+.-.=.r.&.-.;.&.&.-.) [ n b z g k j : h j h h e B k 2.N.D.S.h.9.` &.%.[ ` 7.%._ / ^ ^ o.-.-.o.",
"*.9.` =.| v. .*...*.[ -.%.+.=./ :.:.%. ...H b 8 8 6 6 W r e 4 B +.j.z.R.N.) -.*.[ %.[ %.[ *.*.%.*.-.&.%.%.%.&.` ` / ( ^ ` ` ^ o."
};
